<svg width="479" height="165" viewBox="0 0 479 165" fill="none" xmlns="http://www.w3.org/2000/svg">
<mask id="path-1-outside-1_213_3021" maskUnits="userSpaceOnUse" x="-0.564453" y="-0.357178" width="480" height="166" fill="black">
<rect fill="white" x="-0.564453" y="-0.357178" width="480" height="166"/>
<path d="M101.335 139.125V158.643H16.9351V139.125H47.8466V50.1888C47.8466 46.6722 47.9521 43.05 48.1631 39.3223L26.2191 57.6793C24.9531 58.664 23.6871 59.297 22.4211 59.5783C21.2254 59.7893 20.0649 59.7893 18.9396 59.5783C17.8846 59.3673 16.9351 59.0157 16.0911 58.5233C15.2471 57.9607 14.6141 57.3628 14.1921 56.7298L5.96308 45.4413L52.4886 5.87881H73.9051V139.125H101.335ZM149.354 51.8768C149.354 60.3872 151.534 66.893 155.895 71.3943C160.326 75.8253 166.586 78.0408 174.674 78.0408C178.894 78.0408 182.657 77.3726 185.963 76.0363C189.268 74.7 192.046 72.8713 194.297 70.5503C196.548 68.2293 198.236 65.4863 199.361 62.3213C200.557 59.1563 201.155 55.7452 201.155 52.0878C201.155 47.9382 200.522 44.2457 199.256 41.0103C197.99 37.7047 196.196 34.9265 193.875 32.6758C191.554 30.4252 188.776 28.702 185.541 27.5063C182.376 26.3106 178.894 25.7128 175.096 25.7128C171.157 25.7128 167.606 26.381 164.441 27.7173C161.276 28.9833 158.568 30.7768 156.317 33.0978C154.066 35.4188 152.343 38.197 151.148 41.4323C149.952 44.5973 149.354 48.0788 149.354 51.8768ZM183.958 99.4573C185.154 97.9803 186.279 96.5385 187.334 95.1318C188.389 93.7252 189.409 92.3185 190.394 90.9118C186.877 93.1625 183.009 94.8857 178.789 96.0813C174.569 97.2067 170.138 97.7693 165.496 97.7693C160.221 97.7693 155.051 96.855 149.987 95.0263C144.923 93.1977 140.422 90.4547 136.483 86.7973C132.544 83.0697 129.344 78.498 126.883 73.0823C124.491 67.5963 123.296 61.196 123.296 53.8813C123.296 47.059 124.562 40.6587 127.094 34.6803C129.626 28.702 133.177 23.4621 137.749 18.9608C142.321 14.4595 147.807 10.9077 154.207 8.30531C160.607 5.70299 167.676 4.40182 175.413 4.40182C183.22 4.40182 190.218 5.63265 196.407 8.09432C202.667 10.556 207.977 14.0023 212.338 18.4333C216.769 22.8643 220.145 28.1745 222.466 34.3638C224.857 40.5531 226.053 47.3403 226.053 54.7253C226.053 59.4377 225.631 63.9038 224.787 68.1238C224.013 72.3438 222.888 76.4232 221.411 80.3618C219.934 84.2302 218.14 88.0282 216.03 91.7558C213.92 95.4835 211.564 99.176 208.962 102.833L174.041 152.629C172.845 154.317 171.052 155.759 168.661 156.955C166.269 158.08 163.561 158.643 160.537 158.643H136.589L183.958 99.4573ZM298.126 139.969C302.416 139.969 306.179 139.371 309.414 138.176C312.649 136.91 315.357 135.187 317.538 133.006C319.788 130.826 321.476 128.224 322.602 125.199C323.727 122.175 324.29 118.904 324.29 115.388C324.29 107.018 321.969 100.688 317.327 96.3978C312.685 92.1075 306.284 89.9623 298.126 89.9623C289.967 89.9623 283.567 92.1075 278.925 96.3978C274.283 100.688 271.962 107.018 271.962 115.388C271.962 118.904 272.524 122.175 273.65 125.199C274.775 128.224 276.428 130.826 278.608 133.006C280.859 135.187 283.602 136.91 286.837 138.176C290.072 139.371 293.835 139.969 298.126 139.969ZM298.126 24.0248C294.257 24.0248 290.916 24.6227 288.103 25.8183C285.29 27.014 282.934 28.6316 281.035 30.6713C279.206 32.6406 277.834 34.9265 276.92 37.5288C276.076 40.1312 275.654 42.8741 275.654 45.7578C275.654 48.7821 276.006 51.7361 276.709 54.6198C277.483 57.4332 278.749 59.9652 280.507 62.2158C282.265 64.3962 284.586 66.1545 287.47 67.4908C290.354 68.8272 293.906 69.4953 298.126 69.4953C302.346 69.4953 305.897 68.8272 308.781 67.4908C311.665 66.1545 313.986 64.3962 315.744 62.2158C317.502 59.9652 318.733 57.4332 319.437 54.6198C320.21 51.7361 320.597 48.7821 320.597 45.7578C320.597 42.8741 320.14 40.1312 319.226 37.5288C318.311 34.9265 316.94 32.6406 315.111 30.6713C313.282 28.6316 310.961 27.014 308.148 25.8183C305.335 24.6227 301.994 24.0248 298.126 24.0248ZM323.868 79.0958C333.152 82.1202 340.009 86.7622 344.44 93.0218C348.871 99.2112 351.087 106.807 351.087 115.81C351.087 122.562 349.785 128.681 347.183 134.167C344.651 139.653 341.064 144.33 336.422 148.198C331.78 152.067 326.189 155.056 319.648 157.166C313.177 159.276 306.003 160.331 298.126 160.331C290.248 160.331 283.039 159.276 276.498 157.166C270.027 155.056 264.471 152.067 259.829 148.198C255.187 144.33 251.565 139.653 248.963 134.167C246.431 128.681 245.165 122.562 245.165 115.81C245.165 106.807 247.38 99.2112 251.811 93.0218C256.242 86.7622 263.1 82.1202 272.384 79.0958C264.999 76.0012 259.442 71.6053 255.715 65.9083C252.057 60.2113 250.229 53.3538 250.229 45.3358C250.229 39.5685 251.389 34.188 253.71 29.1943C256.101 24.2006 259.407 19.8751 263.627 16.2178C267.847 12.4901 272.876 9.60648 278.714 7.56682C284.622 5.45682 291.092 4.40182 298.126 4.40182C305.159 4.40182 311.594 5.45682 317.432 7.56682C323.34 9.60648 328.404 12.4901 332.624 16.2178C336.844 19.8751 340.115 24.2006 342.436 29.1943C344.827 34.188 346.023 39.5685 346.023 45.3358C346.023 53.3538 344.159 60.2113 340.431 65.9083C336.774 71.6053 331.253 76.0012 323.868 79.0958ZM474.538 6.08981V17.3783C474.538 20.7543 474.186 23.4973 473.483 25.6073C472.78 27.647 472.076 29.3701 471.373 30.7768L413.559 149.781C412.363 152.242 410.675 154.352 408.495 156.111C406.315 157.799 403.396 158.643 399.739 158.643H380.854L439.829 42.0653C441.165 39.674 442.466 37.4936 443.732 35.5243C445.068 33.4846 446.545 31.5505 448.163 29.7218H375.157C373.539 29.7218 372.133 29.124 370.937 27.9283C369.741 26.7326 369.144 25.326 369.144 23.7083V6.08981H474.538Z"/>
</mask>
<path d="M101.335 139.125H105.737V134.723H101.335V139.125ZM101.335 158.643V163.045H105.737V158.643H101.335ZM16.9351 158.643H12.5332V163.045H16.9351V158.643ZM16.9351 139.125V134.723H12.5332V139.125H16.9351ZM47.8466 139.125V143.527H52.2484V139.125H47.8466ZM48.1631 39.3223L52.5579 39.5711L53.1321 29.4265L45.3387 35.946L48.1631 39.3223ZM26.2191 57.6793L28.9216 61.1539L28.9834 61.1059L29.0435 61.0556L26.2191 57.6793ZM22.4211 59.5783L23.1861 63.9132L23.2814 63.8964L23.376 63.8754L22.4211 59.5783ZM18.9396 59.5783L18.0763 63.8947L18.1023 63.8999L18.1284 63.9048L18.9396 59.5783ZM16.0911 58.5233L13.6494 62.1859L13.7591 62.2591L13.8731 62.3255L16.0911 58.5233ZM14.1921 56.7298L17.8546 54.2881L17.8035 54.2114L17.7491 54.1368L14.1921 56.7298ZM5.96308 45.4413L3.11156 42.0879L2.57492e-05 44.7338L2.40601 48.0343L5.96308 45.4413ZM52.4886 5.87881V1.47696H50.8701L49.6371 2.52543L52.4886 5.87881ZM73.9051 5.87881H78.3069V1.47696H73.9051V5.87881ZM73.9051 139.125H69.5032V143.527H73.9051V139.125ZM101.335 139.125H96.9332V158.643H101.335H105.737V139.125H101.335ZM101.335 158.643V154.241H16.9351V158.643V163.045H101.335V158.643ZM16.9351 158.643H21.3369V139.125H16.9351H12.5332V158.643H16.9351ZM16.9351 139.125V143.527H47.8466V139.125V134.723H16.9351V139.125ZM47.8466 139.125H52.2484V50.1888H47.8466H43.4447V139.125H47.8466ZM47.8466 50.1888H52.2484C52.2484 46.76 52.3513 43.2209 52.5579 39.5711L48.1631 39.3223L43.7683 39.0736C43.5528 42.879 43.4447 46.5843 43.4447 50.1888H47.8466ZM48.1631 39.3223L45.3387 35.946L23.3947 54.303L26.2191 57.6793L29.0435 61.0556L50.9875 42.6986L48.1631 39.3223ZM26.2191 57.6793L23.5166 54.2047C22.6461 54.8817 21.9636 55.1707 21.4662 55.2813L22.4211 59.5783L23.376 63.8754C25.4105 63.4232 27.26 62.4462 28.9216 61.1539L26.2191 57.6793ZM22.4211 59.5783L21.6561 55.2434C20.9502 55.368 20.3247 55.3595 19.7508 55.2519L18.9396 59.5783L18.1284 63.9048C19.8051 64.2192 21.5006 64.2106 23.1861 63.9132L22.4211 59.5783ZM18.9396 59.5783L19.8028 55.2619C19.1767 55.1367 18.6927 54.9449 18.3091 54.7211L16.0911 58.5233L13.8731 62.3255C15.1774 63.0864 16.5924 63.5979 18.0763 63.8947L18.9396 59.5783ZM16.0911 58.5233L18.5328 54.8607C18.0199 54.5189 17.8662 54.3055 17.8546 54.2881L14.1921 56.7298L10.5295 59.1715C11.3619 60.4202 12.4742 61.4025 13.6494 62.1859L16.0911 58.5233ZM14.1921 56.7298L17.7491 54.1368L9.52015 42.8483L5.96308 45.4413L2.40601 48.0343L10.635 59.3228L14.1921 56.7298ZM5.96308 45.4413L8.8146 48.7947L55.3401 9.2322L52.4886 5.87881L49.6371 2.52543L3.11156 42.0879L5.96308 45.4413ZM52.4886 5.87881V10.2807H73.9051V5.87881V1.47696H52.4886V5.87881ZM73.9051 5.87881H69.5032V139.125H73.9051H78.3069V5.87881H73.9051ZM73.9051 139.125V143.527H101.335V139.125V134.723H73.9051V139.125ZM155.895 71.3943L152.733 74.4571L152.758 74.4822L152.782 74.5069L155.895 71.3943ZM199.361 62.3213L195.243 60.7657L195.228 60.806L195.214 60.8467L199.361 62.3213ZM199.256 41.0103L195.145 42.5846L195.151 42.5995L195.156 42.6144L199.256 41.0103ZM193.875 32.6758L190.811 35.8359V35.8359L193.875 32.6758ZM185.541 27.5063L183.985 31.6241L184 31.6297L184.015 31.6352L185.541 27.5063ZM164.441 27.7173L166.075 31.8043L166.114 31.7888L166.153 31.7725L164.441 27.7173ZM151.148 41.4323L155.265 42.9879L155.271 42.9731L155.276 42.9582L151.148 41.4323ZM183.958 99.4573L180.537 96.6877L180.529 96.6972L180.521 96.7067L183.958 99.4573ZM187.334 95.1318L190.856 97.7729L187.334 95.1318ZM190.394 90.9118L194 93.4361L188.021 87.2043L190.394 90.9118ZM178.789 96.0813L179.923 100.335L179.956 100.326L179.989 100.316L178.789 96.0813ZM149.987 95.0263L151.482 90.8861L149.987 95.0263ZM136.483 86.7973L133.457 89.9944L133.472 90.0087L133.488 90.023L136.483 86.7973ZM126.883 73.0823L122.847 74.8412L122.861 74.8726L122.875 74.9038L126.883 73.0823ZM137.749 18.9608L134.661 15.8242V15.8242L137.749 18.9608ZM154.207 8.30531L152.549 4.22763V4.22763L154.207 8.30531ZM196.407 8.09432L194.78 12.1845L194.788 12.1877L194.796 12.1908L196.407 8.09432ZM212.338 18.4333L209.2 21.5209L209.213 21.5334L209.225 21.5459L212.338 18.4333ZM222.466 34.3638L218.344 35.9094L218.352 35.9299L218.36 35.9502L222.466 34.3638ZM224.787 68.1238L220.47 67.2605L220.463 67.2952L220.457 67.33L224.787 68.1238ZM221.411 80.3618L225.523 81.932L225.528 81.9197L225.532 81.9074L221.411 80.3618ZM216.03 91.7558L219.861 93.9242L219.861 93.9242L216.03 91.7558ZM208.962 102.833L205.375 100.281L205.366 100.294L205.358 100.306L208.962 102.833ZM174.041 152.629L177.633 155.174L177.639 155.165L177.645 155.157L174.041 152.629ZM168.661 156.955L170.535 160.938L170.582 160.915L170.629 160.892L168.661 156.955ZM136.589 158.643L133.152 155.892L127.427 163.045H136.589V158.643ZM149.354 51.8768H144.952C144.952 61.1124 147.328 68.8768 152.733 74.4571L155.895 71.3943L159.057 68.3315C155.741 64.9092 153.756 59.6618 153.756 51.8768H149.354ZM155.895 71.3943L152.782 74.5069C158.26 79.9843 165.773 82.4427 174.674 82.4427V78.0408V73.639C167.398 73.639 162.392 71.6663 159.008 68.2817L155.895 71.3943ZM174.674 78.0408V82.4427C179.358 82.4427 183.696 81.7007 187.612 80.1173L185.963 76.0363L184.313 71.9553C181.618 73.0446 178.43 73.639 174.674 73.639V78.0408ZM185.963 76.0363L187.612 80.1173C191.428 78.5749 194.737 76.4195 197.457 73.6147L194.297 70.5503L191.137 67.486C189.356 69.3231 187.109 70.8251 184.313 71.9553L185.963 76.0363ZM194.297 70.5503L197.457 73.6147C200.164 70.8229 202.18 67.5318 203.509 63.796L199.361 62.3213L195.214 60.8467C194.291 63.4409 192.931 65.6357 191.137 67.486L194.297 70.5503ZM199.361 62.3213L203.479 63.8769C204.877 60.1759 205.556 56.2334 205.556 52.0878H201.155H196.753C196.753 55.2569 196.236 58.1367 195.243 60.7657L199.361 62.3213ZM201.155 52.0878H205.556C205.556 47.4935 204.856 43.2416 203.355 39.4063L199.256 41.0103L195.156 42.6144C196.188 45.2497 196.753 48.3828 196.753 52.0878H201.155ZM199.256 41.0103L203.366 39.436C201.893 35.5893 199.763 32.2534 196.939 29.5157L193.875 32.6758L190.811 35.8359C192.629 37.5995 194.086 39.82 195.145 42.5846L199.256 41.0103ZM193.875 32.6758L196.939 29.5157C194.15 26.8105 190.837 24.771 187.066 23.3774L185.541 27.5063L184.015 31.6352C186.714 32.633 188.958 34.0398 190.811 35.8359L193.875 32.6758ZM185.541 27.5063L187.096 23.3885C183.377 21.9834 179.361 21.311 175.096 21.311V25.7128V30.1147C178.427 30.1147 181.374 30.6379 183.985 31.6241L185.541 27.5063ZM175.096 25.7128V21.311C170.655 21.311 166.509 22.0659 162.728 23.6621L164.441 27.7173L166.153 31.7725C168.702 30.696 171.66 30.1147 175.096 30.1147V25.7128ZM164.441 27.7173L162.806 23.6303C159.098 25.1134 155.862 27.2441 153.157 30.0335L156.317 33.0978L159.477 36.1622C161.274 34.3095 163.453 32.8532 166.075 31.8043L164.441 27.7173ZM156.317 33.0978L153.157 30.0335C150.452 32.8232 148.412 36.1355 147.019 39.9064L151.148 41.4323L155.276 42.9582C156.274 40.2585 157.681 38.0144 159.477 36.1622L156.317 33.0978ZM151.148 41.4323L147.03 39.8767C145.625 43.596 144.952 47.6121 144.952 51.8768H149.354H153.756C153.756 48.5455 154.279 45.5986 155.265 42.9879L151.148 41.4323ZM183.958 99.4573L187.379 102.227C188.607 100.711 189.765 99.2264 190.856 97.7729L187.334 95.1318L183.813 92.4907C182.793 93.8506 181.701 95.2496 180.537 96.6877L183.958 99.4573ZM187.334 95.1318L190.856 97.7729C191.939 96.3287 192.987 94.8831 194 93.4361L190.394 90.9118L186.787 88.3875C185.831 89.7539 184.839 91.1216 183.813 92.4907L187.334 95.1318ZM190.394 90.9118L188.021 87.2043C184.885 89.2111 181.415 90.762 177.589 91.8462L178.789 96.0813L179.989 100.316C184.602 99.0093 188.869 97.1139 192.766 94.6194L190.394 90.9118ZM178.789 96.0813L177.654 91.8281C173.827 92.8488 169.779 93.3675 165.496 93.3675V97.7693V102.171C170.496 102.171 175.31 101.565 179.923 100.335L178.789 96.0813ZM165.496 97.7693V93.3675C160.741 93.3675 156.077 92.5453 151.482 90.8861L149.987 95.0263L148.492 99.1665C154.025 101.165 159.7 102.171 165.496 102.171V97.7693ZM149.987 95.0263L151.482 90.8861C146.974 89.258 142.983 86.8257 139.478 83.5717L136.483 86.7973L133.488 90.023C137.861 94.0836 142.873 97.1373 148.492 99.1665L149.987 95.0263ZM136.483 86.7973L139.509 83.6003C136.021 80.2998 133.139 76.2093 130.89 71.2608L126.883 73.0823L122.875 74.9038C125.549 80.7867 129.067 85.8396 133.457 89.9944L136.483 86.7973ZM126.883 73.0823L130.918 71.3234C128.816 66.5011 127.697 60.7219 127.697 53.8813H123.296H118.894C118.894 61.67 120.167 68.6915 122.847 74.8412L126.883 73.0823ZM123.296 53.8813H127.697C127.697 47.6183 128.856 41.8048 131.147 36.397L127.094 34.6803L123.04 32.9636C120.267 39.5125 118.894 46.4997 118.894 53.8813H123.296ZM127.094 34.6803L131.147 36.397C133.456 30.9442 136.682 26.1884 140.837 22.0974L137.749 18.9608L134.661 15.8242C129.672 20.7359 125.795 26.4598 123.04 32.9636L127.094 34.6803ZM137.749 18.9608L140.837 22.0974C144.968 18.0306 149.957 14.7851 155.865 12.383L154.207 8.30531L152.549 4.22763C145.656 7.03016 139.674 10.8883 134.661 15.8242L137.749 18.9608ZM154.207 8.30531L155.865 12.383C161.679 10.0189 168.176 8.80368 175.413 8.80368V4.40182V-3.8147e-05C167.175 -3.8147e-05 159.535 1.38703 152.549 4.22763L154.207 8.30531ZM175.413 4.40182V8.80368C182.757 8.80368 189.19 9.96095 194.78 12.1845L196.407 8.09432L198.034 4.0041C191.246 1.30436 183.682 -3.8147e-05 175.413 -3.8147e-05V4.40182ZM196.407 8.09432L194.796 12.1908C200.53 14.4455 205.307 17.5645 209.2 21.5209L212.338 18.4333L215.475 15.3457C210.647 10.4402 204.804 6.66645 198.018 3.99784L196.407 8.09432ZM212.338 18.4333L209.225 21.5459C213.187 25.5083 216.231 30.2755 218.344 35.9094L222.466 34.3638L226.587 32.8182C224.058 26.0735 220.35 20.2203 215.45 15.3207L212.338 18.4333ZM222.466 34.3638L218.36 35.9502C220.534 41.5795 221.651 47.8217 221.651 54.7253H226.053H230.454C230.454 46.8589 229.179 39.5268 226.572 32.7774L222.466 34.3638ZM226.053 54.7253H221.651C221.651 59.1749 221.252 63.3502 220.47 67.2605L224.787 68.1238L229.103 68.9871C230.009 64.4575 230.454 59.7004 230.454 54.7253H226.053ZM224.787 68.1238L220.457 67.33C219.729 71.2989 218.673 75.1263 217.289 78.8162L221.411 80.3618L225.532 81.9074C227.102 77.72 228.297 73.3888 229.116 68.9176L224.787 68.1238ZM221.411 80.3618L217.298 78.7917C215.903 82.4469 214.204 86.0453 212.199 89.5875L216.03 91.7558L219.861 93.9242C222.076 90.011 223.964 86.0134 225.523 81.932L221.411 80.3618ZM216.03 91.7558L212.199 89.5875C210.168 93.177 207.894 96.7417 205.375 100.281L208.962 102.833L212.548 105.385C215.234 101.61 217.673 97.79 219.861 93.9242L216.03 91.7558ZM208.962 102.833L205.358 100.306L170.437 150.102L174.041 152.629L177.645 155.157L212.566 105.361L208.962 102.833ZM174.041 152.629L170.449 150.085C169.776 151.035 168.62 152.054 166.692 153.018L168.661 156.955L170.629 160.892C173.484 159.465 175.914 157.6 177.633 155.174L174.041 152.629ZM168.661 156.955L166.786 152.972C165.06 153.784 163.007 154.241 160.537 154.241V158.643V163.045C164.116 163.045 167.478 162.376 170.535 160.938L168.661 156.955ZM160.537 158.643V154.241H136.589V158.643V163.045H160.537V158.643ZM136.589 158.643L140.025 161.393L187.395 102.208L183.958 99.4573L180.521 96.7067L133.152 155.892L136.589 158.643ZM309.414 138.176L310.94 142.305L310.979 142.29L311.018 142.275L309.414 138.176ZM317.538 133.006L314.475 129.845L314.45 129.869L314.425 129.894L317.538 133.006ZM322.602 125.199L318.476 123.664L322.602 125.199ZM317.327 96.3978L314.339 99.6304L317.327 96.3978ZM278.925 96.3978L281.912 99.6304H281.912L278.925 96.3978ZM273.65 125.199L269.524 126.734L273.65 125.199ZM278.608 133.006L275.495 136.119L275.52 136.144L275.545 136.168L278.608 133.006ZM286.837 138.176L285.233 142.275L285.272 142.29L285.311 142.305L286.837 138.176ZM288.103 25.8183L286.381 21.7671L288.103 25.8183ZM281.035 30.6713L277.813 27.6718L277.809 27.6761L281.035 30.6713ZM276.92 37.5288L272.767 36.0697L272.749 36.12L272.733 36.1708L276.92 37.5288ZM276.709 54.6198L272.433 55.6629L272.448 55.7252L272.465 55.787L276.709 54.6198ZM280.507 62.2158L277.038 64.9258L277.059 64.9526L277.081 64.9791L280.507 62.2158ZM287.47 67.4908L285.619 71.4847L287.47 67.4908ZM315.744 62.2158L319.171 64.9791L319.192 64.9526L319.213 64.9258L315.744 62.2158ZM319.437 54.6198L315.185 53.4792L315.175 53.5156L315.166 53.5522L319.437 54.6198ZM319.226 37.5288L315.073 38.988L319.226 37.5288ZM315.111 30.6713L311.834 33.6098L311.859 33.6384L311.885 33.6666L315.111 30.6713ZM308.148 25.8183L306.426 29.8695L308.148 25.8183ZM323.868 79.0958L322.166 75.036L311.244 79.6131L322.504 83.2812L323.868 79.0958ZM344.44 93.0218L340.847 95.565L340.854 95.5746L340.861 95.5842L344.44 93.0218ZM347.183 134.167L343.206 132.28L343.196 132.301L343.186 132.322L347.183 134.167ZM336.422 148.198L333.604 144.817L336.422 148.198ZM319.648 157.166L318.296 152.977L318.283 152.981L319.648 157.166ZM276.498 157.166L275.133 161.351L275.147 161.355L276.498 157.166ZM259.829 148.198L257.011 151.58L259.829 148.198ZM248.963 134.167L244.966 136.011L244.976 136.032L244.985 136.053L248.963 134.167ZM251.811 93.0218L255.39 95.5842L255.397 95.5746L255.404 95.565L251.811 93.0218ZM272.384 79.0958L273.747 83.2812L285.007 79.6131L274.085 75.036L272.384 79.0958ZM255.715 65.9083L252.01 68.2863L252.021 68.3024L252.031 68.3185L255.715 65.9083ZM253.71 29.1943L249.74 27.2931L249.729 27.316L249.718 27.339L253.71 29.1943ZM263.627 16.2178L266.51 19.5443L266.526 19.5307L266.541 19.5169L263.627 16.2178ZM278.714 7.56682L280.165 11.7223L280.18 11.7173L280.194 11.7122L278.714 7.56682ZM317.432 7.56682L315.936 11.7066L315.966 11.7173L315.996 11.7277L317.432 7.56682ZM332.624 16.2178L329.71 19.5169L329.725 19.5307L329.741 19.5443L332.624 16.2178ZM342.436 29.1943L338.444 31.0496L338.454 31.0726L338.465 31.0955L342.436 29.1943ZM340.431 65.9083L336.748 63.4982L336.737 63.5142L336.727 63.5303L340.431 65.9083ZM298.126 139.969V144.371C302.814 144.371 307.113 143.719 310.94 142.305L309.414 138.176L307.888 134.047C305.244 135.024 302.017 135.567 298.126 135.567V139.969ZM309.414 138.176L311.018 142.275C314.747 140.816 317.989 138.78 320.65 136.119L317.538 133.006L314.425 129.894C312.725 131.593 310.551 133.004 307.81 134.077L309.414 138.176ZM317.538 133.006L320.6 136.168C323.336 133.518 325.38 130.354 326.727 126.734L322.602 125.199L318.476 123.664C317.572 126.093 316.24 128.134 314.475 129.845L317.538 133.006ZM322.602 125.199L326.727 126.734C328.051 123.177 328.691 119.381 328.691 115.388H324.29H319.888C319.888 118.428 319.403 121.173 318.476 123.664L322.602 125.199ZM324.29 115.388H328.691C328.691 106.208 326.124 98.5351 320.314 93.1652L317.327 96.3978L314.339 99.6304C317.813 102.841 319.888 107.828 319.888 115.388H324.29ZM317.327 96.3978L320.314 93.1652C314.644 87.9244 307.059 85.5605 298.126 85.5605V89.9623V94.3642C305.509 94.3642 310.725 96.2906 314.339 99.6304L317.327 96.3978ZM298.126 89.9623V85.5605C289.192 85.5605 281.607 87.9244 275.937 93.1652L278.925 96.3978L281.912 99.6304C285.526 96.2906 290.742 94.3642 298.126 94.3642V89.9623ZM278.925 96.3978L275.937 93.1652C270.127 98.5351 267.56 106.208 267.56 115.388H271.962H276.363C276.363 107.828 278.438 102.841 281.912 99.6304L278.925 96.3978ZM271.962 115.388H267.56C267.56 119.381 268.2 123.177 269.524 126.734L273.65 125.199L277.775 123.664C276.848 121.173 276.363 118.428 276.363 115.388H271.962ZM273.65 125.199L269.524 126.734C270.859 130.323 272.847 133.471 275.495 136.119L278.608 133.006L281.721 129.894C280.008 128.181 278.69 126.124 277.775 123.664L273.65 125.199ZM278.608 133.006L275.545 136.168C278.259 138.796 281.513 140.819 285.233 142.275L286.837 138.176L288.441 134.077C285.69 133 283.459 131.577 281.671 129.845L278.608 133.006ZM286.837 138.176L285.311 142.305C289.138 143.719 293.437 144.371 298.126 144.371V139.969V135.567C294.234 135.567 291.007 135.024 288.363 134.047L286.837 138.176ZM298.126 24.0248V19.623C293.817 19.623 289.863 20.2874 286.381 21.7671L288.103 25.8183L289.825 29.8695C291.97 28.9579 294.698 28.4267 298.126 28.4267V24.0248ZM288.103 25.8183L286.381 21.7671C283.055 23.1807 280.172 25.1381 277.813 27.6718L281.035 30.6713L284.256 33.6708C285.695 32.1252 287.524 30.8473 289.825 29.8695L288.103 25.8183ZM281.035 30.6713L277.809 27.6761C275.558 30.1002 273.876 32.9125 272.767 36.0697L276.92 37.5288L281.073 38.988C281.792 36.9405 282.854 35.1811 284.26 33.6666L281.035 30.6713ZM276.92 37.5288L272.733 36.1708C271.739 39.235 271.252 42.4381 271.252 45.7578H275.654H280.056C280.056 43.3102 280.413 41.0273 281.107 38.8868L276.92 37.5288ZM275.654 45.7578H271.252C271.252 49.1269 271.644 52.4313 272.433 55.6629L276.709 54.6198L280.986 53.5768C280.367 51.041 280.056 48.4374 280.056 45.7578H275.654ZM276.709 54.6198L272.465 55.787C273.389 59.1484 274.914 62.2071 277.038 64.9258L280.507 62.2158L283.976 59.5058C282.583 57.7232 281.576 55.7179 280.953 53.4526L276.709 54.6198ZM280.507 62.2158L277.081 64.9791C279.317 67.7519 282.206 69.9029 285.619 71.4847L287.47 67.4908L289.321 63.497C286.967 62.4061 285.214 61.0404 283.934 59.4525L280.507 62.2158ZM287.47 67.4908L285.619 71.4847C289.24 73.1627 293.466 73.8972 298.126 73.8972V69.4953V65.0935C294.345 65.0935 291.467 64.4916 289.321 63.497L287.47 67.4908ZM298.126 69.4953V73.8972C302.785 73.8972 307.011 73.1627 310.632 71.4847L308.781 67.4908L306.93 63.497C304.784 64.4916 301.906 65.0935 298.126 65.0935V69.4953ZM308.781 67.4908L310.632 71.4847C314.045 69.9029 316.934 67.7519 319.171 64.9791L315.744 62.2158L312.318 59.4525C311.037 61.0404 309.284 62.4061 306.93 63.497L308.781 67.4908ZM315.744 62.2158L319.213 64.9258C321.356 62.1822 322.857 59.0888 323.707 55.6874L319.437 54.6198L315.166 53.5522C314.61 55.7775 313.648 57.7481 312.275 59.5058L315.744 62.2158ZM319.437 54.6198L323.688 55.7605C324.563 52.5 324.999 49.1623 324.999 45.7578H320.597H316.195C316.195 48.402 315.858 50.9723 315.185 53.4792L319.437 54.6198ZM320.597 45.7578H324.999C324.999 42.4 324.465 39.1619 323.379 36.0697L319.226 37.5288L315.073 38.988C315.815 41.1004 316.195 43.3483 316.195 45.7578H320.597ZM319.226 37.5288L323.379 36.0697C322.269 32.9125 320.588 30.1002 318.337 27.6761L315.111 30.6713L311.885 33.6666C313.292 35.1811 314.353 36.9405 315.073 38.988L319.226 37.5288ZM315.111 30.6713L318.389 27.7329C316.082 25.1597 313.208 23.1858 309.87 21.7671L308.148 25.8183L306.426 29.8695C308.715 30.8422 310.483 32.1036 311.834 33.6098L315.111 30.6713ZM308.148 25.8183L309.87 21.7671C306.388 20.2874 302.434 19.623 298.126 19.623V24.0248V28.4267C301.554 28.4267 304.281 28.9579 306.426 29.8695L308.148 25.8183ZM323.868 79.0958L322.504 83.2812C331.136 86.093 337.097 90.267 340.847 95.565L344.44 93.0218L348.033 90.4786C342.921 83.2573 335.167 78.1473 325.231 74.9104L323.868 79.0958ZM344.44 93.0218L340.861 95.5842C344.664 100.897 346.685 107.554 346.685 115.81H351.087H355.488C355.488 106.061 353.078 97.5251 348.019 90.4594L344.44 93.0218ZM351.087 115.81H346.685C346.685 121.983 345.499 127.447 343.206 132.28L347.183 134.167L351.16 136.053C354.072 129.915 355.488 123.141 355.488 115.81H351.087ZM347.183 134.167L343.186 132.322C340.928 137.215 337.744 141.367 333.604 144.817L336.422 148.198L339.24 151.58C344.384 147.293 348.374 142.091 351.18 136.011L347.183 134.167ZM336.422 148.198L333.604 144.817C329.45 148.278 324.374 151.016 318.296 152.977L319.648 157.166L320.999 161.355C328.003 159.096 334.11 155.855 339.24 151.58L336.422 148.198ZM319.648 157.166L318.283 152.981C312.316 154.927 305.611 155.929 298.126 155.929V160.331V164.733C306.395 164.733 314.038 163.625 321.012 161.351L319.648 157.166ZM298.126 160.331V155.929C290.641 155.929 283.895 154.927 277.849 152.977L276.498 157.166L275.147 161.355C282.183 163.625 289.855 164.733 298.126 164.733V160.331ZM276.498 157.166L277.863 152.981C271.856 151.022 266.809 148.285 262.647 144.817L259.829 148.198L257.011 151.58C262.133 155.848 268.198 159.089 275.133 161.351L276.498 157.166ZM259.829 148.198L262.647 144.817C258.498 141.359 255.27 137.193 252.94 132.28L248.963 134.167L244.985 136.053C247.86 142.113 251.876 147.301 257.011 151.58L259.829 148.198ZM248.963 134.167L252.959 132.322C250.724 127.479 249.566 122 249.566 115.81H245.165H240.763C240.763 123.124 242.137 129.882 244.966 136.011L248.963 134.167ZM245.165 115.81H249.566C249.566 107.554 251.587 100.897 255.39 95.5842L251.811 93.0218L248.232 90.4594C243.173 97.5251 240.763 106.061 240.763 115.81H245.165ZM251.811 93.0218L255.404 95.565C259.154 90.267 265.115 86.093 273.747 83.2812L272.384 79.0958L271.02 74.9104C261.084 78.1473 253.33 83.2573 248.218 90.4786L251.811 93.0218ZM272.384 79.0958L274.085 75.036C267.364 72.2198 262.564 68.3376 259.398 63.4982L255.715 65.9083L252.031 68.3185C256.32 74.8731 262.633 79.7825 270.682 83.1556L272.384 79.0958ZM255.715 65.9083L259.419 63.5303C256.295 58.6648 254.63 52.6685 254.63 45.3358H250.229H245.827C245.827 54.0392 247.819 61.7578 252.01 68.2863L255.715 65.9083ZM250.229 45.3358H254.63C254.63 40.1783 255.664 35.4346 257.702 31.0496L253.71 29.1943L249.718 27.339C247.114 32.9414 245.827 38.9586 245.827 45.3358H250.229ZM253.71 29.1943L257.68 31.0955C259.808 26.6513 262.742 22.8096 266.51 19.5443L263.627 16.2178L260.744 12.8914C256.072 16.9407 252.394 21.75 249.74 27.2931L253.71 29.1943ZM263.627 16.2178L266.541 19.5169C270.294 16.2022 274.813 13.5925 280.165 11.7223L278.714 7.56682L277.262 3.41131C270.939 5.6205 265.4 8.77807 260.713 12.9187L263.627 16.2178ZM278.714 7.56682L280.194 11.7122C285.573 9.79118 291.536 8.80368 298.126 8.80368V4.40182V-3.8147e-05C290.648 -3.8147e-05 283.67 1.12246 277.233 3.4214L278.714 7.56682ZM298.126 4.40182V8.80368C304.716 8.80368 310.637 9.79143 315.936 11.7066L317.432 7.56682L318.928 3.42707C312.552 1.12221 305.602 -3.8147e-05 298.126 -3.8147e-05V4.40182ZM317.432 7.56682L315.996 11.7277C321.419 13.6002 325.966 16.2102 329.71 19.5169L332.624 16.2178L335.538 12.9187C330.842 8.77009 325.261 5.61279 318.869 3.40594L317.432 7.56682ZM332.624 16.2178L329.741 19.5443C333.499 22.8008 336.388 26.6272 338.444 31.0496L342.436 29.1943L346.427 27.339C343.841 21.7741 340.189 16.9495 335.507 12.8914L332.624 16.2178ZM342.436 29.1943L338.465 31.0955C340.561 35.4708 341.621 40.1983 341.621 45.3358H346.023H350.424C350.424 38.9386 349.093 32.9052 346.406 27.2931L342.436 29.1943ZM346.023 45.3358H341.621C341.621 52.6527 339.928 58.6371 336.748 63.4982L340.431 65.9083L344.114 68.3185C348.389 61.7855 350.424 54.055 350.424 45.3358H346.023ZM340.431 65.9083L336.727 63.5303C333.634 68.3477 328.882 72.2216 322.166 75.036L323.868 79.0958L325.569 83.1556C333.623 79.7807 339.913 74.863 344.135 68.2863L340.431 65.9083ZM474.538 6.08981H478.94V1.68795H474.538V6.08981ZM473.483 25.6073L477.644 27.0423L477.652 27.0208L477.659 26.9993L473.483 25.6073ZM471.373 30.7768L467.436 28.8083L467.425 28.8307L467.414 28.8533L471.373 30.7768ZM413.559 149.781L409.6 147.857L409.6 147.858L413.559 149.781ZM408.495 156.111L411.19 159.591L411.224 159.565L411.258 159.537L408.495 156.111ZM380.854 158.643L376.926 156.656L373.694 163.045H380.854V158.643ZM439.829 42.0653L435.986 39.918L435.942 39.9973L435.901 40.0783L439.829 42.0653ZM443.732 35.5243L440.05 33.112L440.04 33.1279L440.029 33.144L443.732 35.5243ZM448.163 29.7218L451.46 32.6384L457.934 25.32H448.163V29.7218ZM370.937 27.9283L374.05 24.8157V24.8157L370.937 27.9283ZM369.144 6.08981V1.68795H364.742V6.08981H369.144ZM474.538 6.08981H470.136V17.3783H474.538H478.94V6.08981H474.538ZM474.538 17.3783H470.136C470.136 20.4999 469.805 22.723 469.307 24.2153L473.483 25.6073L477.659 26.9993C478.568 24.2716 478.94 21.0087 478.94 17.3783H474.538ZM473.483 25.6073L469.322 24.1724C468.66 26.0914 468.028 27.6244 467.436 28.8083L471.373 30.7768L475.31 32.7454C476.125 31.1159 476.9 29.2026 477.644 27.0423L473.483 25.6073ZM471.373 30.7768L467.414 28.8533L409.6 147.857L413.559 149.781L417.518 151.704L475.332 32.7003L471.373 30.7768ZM413.559 149.781L409.6 147.858C408.694 149.722 407.42 151.323 405.732 152.684L408.495 156.111L411.258 159.537C413.931 157.382 416.033 154.763 417.519 151.704L413.559 149.781ZM408.495 156.111L405.8 152.63C404.61 153.552 402.738 154.241 399.739 154.241V158.643V163.045C404.053 163.045 408.02 162.046 411.19 159.591L408.495 156.111ZM399.739 158.643V154.241H380.854V158.643V163.045H399.739V158.643ZM380.854 158.643L384.782 160.63L443.756 44.0524L439.829 42.0653L435.901 40.0783L376.926 156.656L380.854 158.643ZM439.829 42.0653L443.671 44.2126C444.97 41.8875 446.225 39.7863 447.435 37.9046L443.732 35.5243L440.029 33.144C438.707 35.201 437.359 37.4605 435.986 39.918L439.829 42.0653ZM443.732 35.5243L447.414 37.9367C448.634 36.0743 449.982 34.3086 451.46 32.6384L448.163 29.7218L444.866 26.8053C443.108 28.7923 441.503 30.895 440.05 33.112L443.732 35.5243ZM448.163 29.7218V25.32H375.157V29.7218V34.1237H448.163V29.7218ZM375.157 29.7218V25.32C374.764 25.32 374.461 25.2276 374.05 24.8157L370.937 27.9283L367.824 31.0409C369.804 33.0204 372.314 34.1237 375.157 34.1237V29.7218ZM370.937 27.9283L374.05 24.8157C373.638 24.4039 373.545 24.1009 373.545 23.7083H369.144H364.742C364.742 26.551 365.845 29.0614 367.824 31.0409L370.937 27.9283ZM369.144 23.7083H373.545V6.08981H369.144H364.742V23.7083H369.144ZM369.144 6.08981V10.4917H474.538V6.08981V1.68795H369.144V6.08981Z" fill="#A1A1AA" mask="url(#path-1-outside-1_213_3021)"/>
</svg>
