<svg width="479" height="165" viewBox="0 0 479 165" fill="none" xmlns="http://www.w3.org/2000/svg">
<mask id="path-1-outside-1_213_3029" maskUnits="userSpaceOnUse" x="-0.323242" y="-0.356934" width="479" height="166" fill="black">
<rect fill="white" x="-0.323242" y="-0.356934" width="479" height="166"/>
<path d="M99.8793 134.378C102.693 134.378 104.908 135.187 106.526 136.805C108.214 138.352 109.058 140.427 109.058 143.029V158.643H4.40179V149.992C4.40179 148.234 4.75346 146.405 5.45679 144.506C6.23046 142.537 7.42612 140.778 9.04379 139.231L55.3583 92.8111C59.2266 88.8724 62.673 85.1096 65.6973 81.5226C68.792 77.9356 71.3591 74.3837 73.3988 70.8671C75.4385 67.3504 76.9858 63.7986 78.0408 60.2116C79.1661 56.5542 79.7288 52.7211 79.7288 48.7121C79.7288 45.0547 79.2013 41.8546 78.1463 39.1116C77.0913 36.2982 75.5791 33.9421 73.6098 32.0431C71.7108 30.1441 69.3898 28.7374 66.6468 27.8231C63.9741 26.8384 60.9498 26.3461 57.5738 26.3461C54.4791 26.3461 51.5955 26.8032 48.9228 27.7176C46.3205 28.5616 43.9995 29.7924 41.9598 31.4101C39.9201 32.9574 38.197 34.7861 36.7903 36.8961C35.3836 39.0061 34.3286 41.3271 33.6253 43.8591C32.4296 47.0944 30.8823 49.2396 28.9833 50.2946C27.0843 51.3496 24.3413 51.5957 20.7543 51.0331L7.03929 48.6066C8.09429 41.2919 10.134 34.8916 13.1583 29.4056C16.1826 23.8492 19.9455 19.2424 24.4468 15.5851C29.0185 11.8574 34.2231 9.07923 40.0608 7.25056C45.9688 5.35156 52.2988 4.40207 59.0508 4.40207C66.0841 4.40207 72.5196 5.45706 78.3573 7.56706C84.195 9.60672 89.1886 12.5256 93.3383 16.3236C97.488 20.1216 100.723 24.6932 103.044 30.0386C105.365 35.3839 106.526 41.3271 106.526 47.8681C106.526 53.4947 105.682 58.6994 103.994 63.4821C102.376 68.2647 100.161 72.8364 97.3473 77.1971C94.6043 81.5577 91.369 85.7777 87.6413 89.8571C83.9136 93.9364 80.0101 98.0861 75.9308 102.306L41.5378 137.438C44.8435 136.453 48.114 135.714 51.3493 135.222C54.655 134.659 57.7848 134.378 60.7388 134.378H99.8793ZM235.885 82.3666C235.885 95.6596 234.443 107.229 231.56 117.076C228.746 126.852 224.808 134.941 219.744 141.341C214.75 147.741 208.807 152.524 201.914 155.689C195.092 158.784 187.707 160.331 179.759 160.331C171.812 160.331 164.427 158.784 157.604 155.689C150.852 152.524 144.979 147.741 139.986 141.341C134.992 134.941 131.089 126.852 128.275 117.076C125.462 107.229 124.055 95.6596 124.055 82.3666C124.055 69.0032 125.462 57.4334 128.275 47.6571C131.089 37.8807 134.992 29.7924 139.986 23.3921C144.979 16.9917 150.852 12.2442 157.604 9.14956C164.427 5.98456 171.812 4.40207 179.759 4.40207C187.707 4.40207 195.092 5.98456 201.914 9.14956C208.807 12.2442 214.75 16.9917 219.744 23.3921C224.808 29.7924 228.746 37.8807 231.56 47.6571C234.443 57.4334 235.885 69.0032 235.885 82.3666ZM208.983 82.3666C208.983 71.3242 208.174 62.1809 206.556 54.9366C204.939 47.6922 202.758 41.9249 200.015 37.6346C197.343 33.3442 194.248 30.3551 190.731 28.6671C187.215 26.9087 183.557 26.0296 179.759 26.0296C176.032 26.0296 172.409 26.9087 168.893 28.6671C165.446 30.3551 162.387 33.3442 159.714 37.6346C157.042 41.9249 154.896 47.6922 153.279 54.9366C151.731 62.1809 150.958 71.3242 150.958 82.3666C150.958 93.4089 151.731 102.552 153.279 109.797C154.896 117.041 157.042 122.808 159.714 127.099C162.387 131.389 165.446 134.413 168.893 136.172C172.409 137.86 176.032 138.704 179.759 138.704C183.557 138.704 187.215 137.86 190.731 136.172C194.248 134.413 197.343 131.389 200.015 127.099C202.758 122.808 204.939 117.041 206.556 109.797C208.174 102.552 208.983 93.4089 208.983 82.3666ZM358.282 82.3666C358.282 95.6596 356.84 107.229 353.956 117.076C351.143 126.852 347.204 134.941 342.14 141.341C337.147 147.741 331.203 152.524 324.311 155.689C317.488 158.784 310.103 160.331 302.156 160.331C294.208 160.331 286.823 158.784 280.001 155.689C273.249 152.524 267.376 147.741 262.382 141.341C257.389 134.941 253.485 126.852 250.672 117.076C247.858 107.229 246.452 95.6596 246.452 82.3666C246.452 69.0032 247.858 57.4334 250.672 47.6571C253.485 37.8807 257.389 29.7924 262.382 23.3921C267.376 16.9917 273.249 12.2442 280.001 9.14956C286.823 5.98456 294.208 4.40207 302.156 4.40207C310.103 4.40207 317.488 5.98456 324.311 9.14956C331.203 12.2442 337.147 16.9917 342.14 23.3921C347.204 29.7924 351.143 37.8807 353.956 47.6571C356.84 57.4334 358.282 69.0032 358.282 82.3666ZM331.379 82.3666C331.379 71.3242 330.57 62.1809 328.953 54.9366C327.335 47.6922 325.155 41.9249 322.412 37.6346C319.739 33.3442 316.644 30.3551 313.128 28.6671C309.611 26.9087 305.954 26.0296 302.156 26.0296C298.428 26.0296 294.806 26.9087 291.289 28.6671C287.843 30.3551 284.783 33.3442 282.111 37.6346C279.438 41.9249 277.293 47.6922 275.675 54.9366C274.128 62.1809 273.354 71.3242 273.354 82.3666C273.354 93.4089 274.128 102.552 275.675 109.797C277.293 117.041 279.438 122.808 282.111 127.099C284.783 131.389 287.843 134.413 291.289 136.172C294.806 137.86 298.428 138.704 302.156 138.704C305.954 138.704 309.611 137.86 313.128 136.172C316.644 134.413 319.739 131.389 322.412 127.099C325.155 122.808 327.335 117.041 328.953 109.797C330.57 102.552 331.379 93.4089 331.379 82.3666ZM406.406 61.4776C409.782 60.7742 413.018 60.2819 416.112 60.0006C419.207 59.6489 422.196 59.4731 425.08 59.4731C433.098 59.4731 440.166 60.6687 446.285 63.0601C452.404 65.4514 457.539 68.7571 461.688 72.9771C465.838 77.1971 468.968 82.1556 471.078 87.8526C473.188 93.4792 474.243 99.5631 474.243 106.104C474.243 114.192 472.801 121.577 469.917 128.259C467.104 134.941 463.165 140.673 458.101 145.456C453.037 150.168 447.024 153.825 440.061 156.428C433.168 159.03 425.642 160.331 417.484 160.331C412.701 160.331 408.165 159.839 403.874 158.854C399.584 157.869 395.54 156.568 391.742 154.951C388.014 153.263 384.533 151.364 381.297 149.254C378.132 147.073 375.284 144.787 372.752 142.396L380.77 131.319C382.458 128.927 384.673 127.732 387.416 127.732C389.175 127.732 390.968 128.294 392.797 129.42C394.625 130.545 396.7 131.776 399.021 133.112C401.413 134.448 404.191 135.679 407.356 136.805C410.591 137.93 414.459 138.493 418.961 138.493C423.743 138.493 427.963 137.719 431.621 136.172C435.278 134.624 438.302 132.479 440.694 129.736C443.155 126.923 444.984 123.617 446.18 119.819C447.446 115.951 448.079 111.766 448.079 107.265C448.079 98.9652 445.652 92.4946 440.799 87.8526C436.017 83.1402 428.913 80.7841 419.488 80.7841C412.244 80.7841 404.824 82.1204 397.228 84.7931L380.981 80.1511L393.641 6.09006H468.968V17.1676C468.968 20.8952 467.807 23.9196 465.486 26.2406C463.165 28.5616 459.227 29.7221 453.67 29.7221H411.787L406.406 61.4776Z"/>
</mask>
<path d="M106.526 136.805L103.413 139.917L103.481 139.985L103.551 140.049L106.526 136.805ZM109.058 158.643V163.045H113.46V158.643H109.058ZM4.40179 158.643H-6.91414e-05V163.045H4.40179V158.643ZM5.45679 144.506L1.35975 142.897L1.34396 142.937L1.32895 142.977L5.45679 144.506ZM9.04379 139.231L12.0865 142.412L12.1236 142.376L12.1599 142.34L9.04379 139.231ZM55.3583 92.8111L58.4744 95.9201L58.4866 95.9078L58.4988 95.8955L55.3583 92.8111ZM65.6973 81.5226L62.3644 78.6471L62.3481 78.666L62.332 78.6851L65.6973 81.5226ZM73.3988 70.8671L69.591 68.6586L73.3988 70.8671ZM78.0408 60.2116L73.8336 58.917L73.8255 58.9432L73.8178 58.9695L78.0408 60.2116ZM78.1463 39.1116L74.0247 40.6572L74.0312 40.6745L74.0378 40.6917L78.1463 39.1116ZM73.6098 32.0431L70.4972 35.1556L70.5255 35.1839L70.5543 35.2117L73.6098 32.0431ZM66.6468 27.8231L65.125 31.9535L65.1896 31.9773L65.2548 31.999L66.6468 27.8231ZM48.9228 27.7176L50.2808 31.9047L50.3143 31.8938L50.3476 31.8824L48.9228 27.7176ZM41.9598 31.4101L44.6202 34.917L44.658 34.8883L44.6951 34.8589L41.9598 31.4101ZM33.6253 43.8591L37.7542 45.385L37.8176 45.2134L37.8666 45.0372L33.6253 43.8591ZM20.7543 51.0331L19.9874 55.3676L20.0297 55.3751L20.0721 55.3817L20.7543 51.0331ZM7.03929 48.6066L2.68251 47.9782L2.07384 52.1983L6.27241 52.9411L7.03929 48.6066ZM13.1583 29.4056L17.0132 31.5307L17.0189 31.5204L17.0245 31.51L13.1583 29.4056ZM24.4468 15.5851L27.2226 19.0014L27.2285 18.9966L24.4468 15.5851ZM40.0608 7.25056L41.3766 11.4511L41.3922 11.4463L41.4078 11.4413L40.0608 7.25056ZM78.3573 7.56706L76.861 11.7068L76.8831 11.7148L76.9054 11.7226L78.3573 7.56706ZM103.044 30.0386L107.082 28.2854V28.2854L103.044 30.0386ZM103.994 63.4821L99.8429 62.017L99.8333 62.0443L99.824 62.0717L103.994 63.4821ZM97.3473 77.1971L93.6484 74.8107L93.6347 74.8319L93.6213 74.8533L97.3473 77.1971ZM87.6413 89.8571L90.8908 92.8264L87.6413 89.8571ZM75.9308 102.306L79.0763 105.385L79.086 105.375L79.0957 105.365L75.9308 102.306ZM41.5378 137.438L38.3923 134.358L26.4945 146.512L42.7944 141.656L41.5378 137.438ZM51.3493 135.222L52.0115 139.574L52.0498 139.568L52.0879 139.562L51.3493 135.222ZM99.8793 134.378V138.78C101.81 138.78 102.803 139.307 103.413 139.917L106.526 136.805L109.638 133.692C107.014 131.067 103.575 129.976 99.8793 129.976V134.378ZM106.526 136.805L103.551 140.049C104.201 140.645 104.656 141.475 104.656 143.029H109.058H113.46C113.46 139.379 112.226 136.059 109.5 133.56L106.526 136.805ZM109.058 143.029H104.656V158.643H109.058H113.46V143.029H109.058ZM109.058 158.643V154.241H4.40179V158.643V163.045H109.058V158.643ZM4.40179 158.643H8.80365V149.992H4.40179H-6.91414e-05V158.643H4.40179ZM4.40179 149.992H8.80365C8.80365 148.828 9.03544 147.518 9.58463 146.035L5.45679 144.506L1.32895 142.977C0.47147 145.292 -6.91414e-05 147.639 -6.91414e-05 149.992H4.40179ZM5.45679 144.506L9.55383 146.116C10.0807 144.775 10.9027 143.544 12.0865 142.412L9.04379 139.231L6.00112 136.05C3.94954 138.012 2.38023 140.299 1.35975 142.897L5.45679 144.506ZM9.04379 139.231L12.1599 142.34L58.4744 95.9201L55.3583 92.8111L52.2422 89.702L5.92767 136.122L9.04379 139.231ZM55.3583 92.8111L58.4988 95.8955C62.432 91.8908 65.9553 88.0454 69.0626 84.36L65.6973 81.5226L62.332 78.6851C59.3906 82.1737 56.0213 85.854 52.2178 89.7266L55.3583 92.8111ZM65.6973 81.5226L69.0302 84.398C72.275 80.637 75.0094 76.8638 77.2065 73.0756L73.3988 70.8671L69.591 68.6586C67.7089 71.9037 65.3089 75.2342 62.3644 78.6471L65.6973 81.5226ZM73.3988 70.8671L77.2065 73.0756C79.4075 69.2808 81.1013 65.4062 82.2638 61.4536L78.0408 60.2116L73.8178 58.9695C72.8703 62.191 71.4694 65.42 69.591 68.6586L73.3988 70.8671ZM78.0408 60.2116L82.248 61.5061C83.5084 57.4097 84.1307 53.1388 84.1307 48.7121H79.7288H75.3269C75.3269 52.3033 74.8238 55.6987 73.8336 58.917L78.0408 60.2116ZM79.7288 48.7121H84.1307C84.1307 44.6417 83.5447 40.8852 82.2547 37.5314L78.1463 39.1116L74.0378 40.6917C74.8579 42.824 75.3269 45.4677 75.3269 48.7121H79.7288ZM78.1463 39.1116L82.2679 37.566C81.0057 34.2001 79.1512 31.2715 76.6653 28.8744L73.6098 32.0431L70.5543 35.2117C72.0071 36.6126 73.1769 38.3964 74.0247 40.6572L78.1463 39.1116ZM73.6098 32.0431L76.7224 28.9305C74.3037 26.5118 71.3793 24.7606 68.0388 23.6471L66.6468 27.8231L65.2548 31.999C67.4003 32.7142 69.1179 33.7763 70.4972 35.1556L73.6098 32.0431ZM66.6468 27.8231L68.1685 23.6926C64.9276 22.4986 61.3751 21.9442 57.5738 21.9442V26.3461V30.7479C60.5245 30.7479 63.0206 31.1782 65.125 31.9535L66.6468 27.8231ZM57.5738 26.3461V21.9442C54.0405 21.9442 50.671 22.4672 47.498 23.5527L48.9228 27.7176L50.3476 31.8824C52.5199 31.1393 54.9177 30.7479 57.5738 30.7479V26.3461ZM48.9228 27.7176L47.5648 23.5304C44.4887 24.5281 41.6962 26.0009 39.2245 27.9612L41.9598 31.4101L44.6951 34.8589C46.3027 33.5839 48.1522 32.5951 50.2808 31.9047L48.9228 27.7176ZM41.9598 31.4101L39.2994 27.9031C36.8724 29.7443 34.8093 31.9319 33.1277 34.4543L36.7903 36.8961L40.4529 39.3378C41.5846 37.6402 42.9678 36.1705 44.6202 34.917L41.9598 31.4101ZM36.7903 36.8961L33.1277 34.4543C31.4532 36.9662 30.2076 39.7162 29.384 42.6809L33.6253 43.8591L37.8666 45.0372C38.4497 42.9379 39.3141 41.0459 40.4529 39.3378L36.7903 36.8961ZM33.6253 43.8591L29.4964 42.3332C28.4629 45.1295 27.4178 46.1288 26.8456 46.4466L28.9833 50.2946L31.121 54.1425C34.3468 52.3504 36.3963 49.0593 37.7542 45.385L33.6253 43.8591ZM28.9833 50.2946L26.8456 46.4466C26.2132 46.798 24.6484 47.1882 21.4364 46.6844L20.7543 51.0331L20.0721 55.3817C24.0342 56.0032 27.9554 55.9011 31.121 54.1425L28.9833 50.2946ZM20.7543 51.0331L21.5212 46.6985L7.80617 44.272L7.03929 48.6066L6.27241 52.9411L19.9874 55.3676L20.7543 51.0331ZM7.03929 48.6066L11.3961 49.2349C12.3887 42.353 14.2865 36.4768 17.0132 31.5307L13.1583 29.4056L9.3034 27.2804C5.98144 33.3063 3.79992 40.2308 2.68251 47.9782L7.03929 48.6066ZM13.1583 29.4056L17.0245 31.51C19.7995 26.4119 23.2057 22.2651 27.2226 19.0014L24.4468 15.5851L21.671 12.1687C16.6852 16.2197 12.5658 21.2866 9.29205 27.3012L13.1583 29.4056ZM24.4468 15.5851L27.2285 18.9966C31.3501 15.6359 36.0532 13.1187 41.3766 11.4511L40.0608 7.25056L38.7449 3.04998C32.3931 5.03972 26.6868 8.0789 21.6651 12.1735L24.4468 15.5851ZM40.0608 7.25056L41.4078 11.4413C46.8439 9.69394 52.7159 8.80392 59.0508 8.80392V4.40207V0.000205994C51.8816 0.000205994 45.0937 1.00918 38.7138 3.05986L40.0608 7.25056ZM59.0508 4.40207V8.80392C65.6411 8.80392 71.5625 9.79168 76.861 11.7068L78.3573 7.56706L79.8536 3.42732C73.4768 1.12245 66.5272 0.000205994 59.0508 0.000205994V4.40207ZM78.3573 7.56706L76.9054 11.7226C82.2363 13.5852 86.6985 16.2137 90.3663 19.5707L93.3383 16.3236L96.3102 13.0764C91.6788 8.83744 86.1536 5.62827 79.8092 3.41155L78.3573 7.56706ZM93.3383 16.3236L90.3663 19.5707C94.0433 22.936 96.9229 26.9928 99.0066 31.7917L103.044 30.0386L107.082 28.2854C104.524 22.3936 100.933 17.3071 96.3102 13.0764L93.3383 16.3236ZM103.044 30.0386L99.0066 31.7917C101.06 36.5198 102.124 41.8563 102.124 47.8681H106.526H110.928C110.928 40.7978 109.671 34.248 107.082 28.2854L103.044 30.0386ZM106.526 47.8681H102.124C102.124 53.05 101.348 57.7535 99.8429 62.017L103.994 63.4821L108.145 64.9471C110.016 59.6452 110.928 53.9395 110.928 47.8681H106.526ZM103.994 63.4821L99.824 62.0717C98.3257 66.5014 96.2707 70.7462 93.6484 74.8107L97.3473 77.1971L101.046 79.5834C104.051 74.9266 106.427 70.0281 108.164 64.8924L103.994 63.4821ZM97.3473 77.1971L93.6213 74.8533C91.0278 78.9762 87.955 82.9883 84.3918 86.8877L87.6413 89.8571L90.8908 92.8264C94.7829 88.5671 98.1807 84.1392 101.073 79.5408L97.3473 77.1971ZM87.6413 89.8571L84.3918 86.8877C80.6936 90.9348 76.8184 95.0545 72.7659 99.2467L75.9308 102.306L79.0957 105.365C83.2019 101.118 87.1337 96.938 90.8908 92.8264L87.6413 89.8571ZM75.9308 102.306L72.7853 99.2267L38.3923 134.358L41.5378 137.438L44.6833 140.517L79.0763 105.385L75.9308 102.306ZM41.5378 137.438L42.7944 141.656C45.9157 140.727 48.9876 140.034 52.0115 139.574L51.3493 135.222L50.6871 130.87C47.2403 131.395 43.7712 132.179 40.2812 133.219L41.5378 137.438ZM51.3493 135.222L52.0879 139.562C55.1816 139.035 58.0628 138.78 60.7388 138.78V134.378V129.976C57.5068 129.976 54.1283 130.284 50.6107 130.883L51.3493 135.222ZM60.7388 134.378V138.78H99.8793V134.378V129.976H60.7388V134.378ZM231.56 117.076L227.335 115.839L227.332 115.849L227.33 115.859L231.56 117.076ZM219.744 141.341L216.292 138.61L216.282 138.622L216.273 138.633L219.744 141.341ZM201.914 155.689L203.733 159.698L203.742 159.694L203.751 159.689L201.914 155.689ZM157.604 155.689L155.736 159.675L155.761 159.686L155.786 159.698L157.604 155.689ZM139.986 141.341L136.515 144.049L139.986 141.341ZM128.275 117.076L124.043 118.285L124.045 118.293L128.275 117.076ZM128.275 47.6571L132.505 48.8744L128.275 47.6571ZM139.986 23.3921L136.515 20.6843V20.6843L139.986 23.3921ZM157.604 9.14956L159.438 13.1511L159.448 13.1469L159.457 13.1426L157.604 9.14956ZM201.914 9.14956L200.062 13.1426L200.087 13.1541L200.111 13.1652L201.914 9.14956ZM219.744 23.3921L216.273 26.0998L216.282 26.1116L216.292 26.1233L219.744 23.3921ZM231.56 47.6571L227.33 48.8744L227.334 48.8884L227.338 48.9024L231.56 47.6571ZM206.556 54.9366L202.26 55.8959L206.556 54.9366ZM200.015 37.6346L196.279 39.962L196.293 39.9839L196.307 40.0057L200.015 37.6346ZM190.731 28.6671L188.763 32.6042L188.794 32.6201L188.826 32.6354L190.731 28.6671ZM168.893 28.6671L170.829 32.6202L170.845 32.6123L170.861 32.6042L168.893 28.6671ZM159.714 37.6346L155.978 35.3071L159.714 37.6346ZM153.279 54.9366L148.983 53.9772L148.978 53.9972L148.974 54.0171L153.279 54.9366ZM153.279 109.797L148.974 110.716L148.978 110.736L148.983 110.756L153.279 109.797ZM159.714 127.099L155.978 129.426L159.714 127.099ZM168.893 136.172L166.892 140.093L166.94 140.117L166.988 140.14L168.893 136.172ZM190.731 136.172L192.636 140.14L192.668 140.125L192.7 140.109L190.731 136.172ZM200.015 127.099L196.307 124.727L196.293 124.749L196.279 124.771L200.015 127.099ZM206.556 109.797L202.26 108.837L206.556 109.797ZM235.885 82.3666H231.483C231.483 95.3574 230.073 106.492 227.335 115.839L231.56 117.076L235.784 118.313C238.814 107.966 240.287 95.9618 240.287 82.3666H235.885ZM231.56 117.076L227.33 115.859C224.637 125.216 220.924 132.755 216.292 138.61L219.744 141.341L223.196 144.072C228.691 137.127 232.856 128.489 235.79 118.293L231.56 117.076ZM219.744 141.341L216.273 138.633C211.682 144.518 206.285 148.838 200.077 151.689L201.914 155.689L203.751 159.689C211.329 156.21 217.819 150.964 223.214 144.049L219.744 141.341ZM201.914 155.689L200.096 151.68C193.879 154.5 187.119 155.929 179.759 155.929V160.331V164.733C188.295 164.733 196.305 163.067 203.733 159.698L201.914 155.689ZM179.759 160.331V155.929C172.4 155.929 165.639 154.5 159.423 151.68L157.604 155.689L155.786 159.698C163.214 163.067 171.223 164.733 179.759 164.733V160.331ZM157.604 155.689L159.473 151.703C153.402 148.858 148.062 144.537 143.456 138.633L139.986 141.341L136.515 144.049C141.897 150.946 148.302 156.19 155.736 159.675L157.604 155.689ZM139.986 141.341L143.456 138.633C138.884 132.773 135.201 125.226 132.505 115.859L128.275 117.076L124.045 118.293C126.976 128.479 131.1 137.108 136.515 144.049L139.986 141.341ZM128.275 117.076L132.508 115.867C129.834 106.51 128.457 95.3652 128.457 82.3666H124.055H119.653C119.653 95.9539 121.089 107.949 124.043 118.285L128.275 117.076ZM124.055 82.3666H128.457C128.457 69.2941 129.835 58.1535 132.505 48.8744L128.275 47.6571L124.045 46.4397C121.089 56.7133 119.653 68.7124 119.653 82.3666H124.055ZM128.275 47.6571L132.505 48.8744C135.201 39.5069 138.884 31.9597 143.456 26.0998L139.986 23.3921L136.515 20.6843C131.1 27.625 126.976 36.2545 124.045 46.4397L128.275 47.6571ZM139.986 23.3921L143.456 26.0998C148.057 20.2029 153.386 15.9252 159.438 13.1511L157.604 9.14956L155.77 5.14799C148.319 8.56324 141.902 13.7806 136.515 20.6843L139.986 23.3921ZM157.604 9.14956L159.457 13.1426C165.666 10.2621 172.414 8.80392 179.759 8.80392V4.40207V0.000205994C171.209 0.000205994 163.187 1.70701 155.752 5.15647L157.604 9.14956ZM179.759 4.40207V8.80392C187.104 8.80392 193.853 10.2621 200.062 13.1426L201.914 9.14956L203.767 5.15647C196.331 1.70701 188.31 0.000205994 179.759 0.000205994V4.40207ZM201.914 9.14956L200.111 13.1652C206.302 15.9446 211.687 20.2216 216.273 26.0998L219.744 23.3921L223.214 20.6843C217.813 13.7619 211.312 8.54386 203.717 5.13388L201.914 9.14956ZM219.744 23.3921L216.292 26.1233C220.924 31.9786 224.637 39.5174 227.33 48.8744L231.56 47.6571L235.79 46.4397C232.856 36.244 228.691 27.6062 223.196 20.6608L219.744 23.3921ZM231.56 47.6571L227.338 48.9024C230.072 58.1713 231.483 69.3018 231.483 82.3666H235.885H240.287C240.287 68.7046 238.815 56.6955 235.782 46.4117L231.56 47.6571ZM208.983 82.3666H213.385C213.385 71.1417 212.565 61.6489 210.852 53.9772L206.556 54.9366L202.26 55.8959C203.782 62.7129 204.581 71.5068 204.581 82.3666H208.983ZM206.556 54.9366L210.852 53.9772C209.169 46.4404 206.839 40.136 203.724 35.2634L200.015 37.6346L196.307 40.0057C198.677 43.7138 200.708 48.9441 202.26 55.8959L206.556 54.9366ZM200.015 37.6346L203.751 35.3071C200.765 30.5138 197.1 26.8413 192.636 24.6987L190.731 28.6671L188.826 32.6354C191.396 33.8689 193.92 36.1747 196.279 39.962L200.015 37.6346ZM190.731 28.6671L192.7 24.7299C188.594 22.6771 184.265 21.6277 179.759 21.6277V26.0296V30.4314C182.849 30.4314 185.835 31.1404 188.763 32.6042L190.731 28.6671ZM179.759 26.0296V21.6277C175.311 21.6277 171.018 22.6832 166.924 24.7299L168.893 28.6671L170.861 32.6042C173.801 31.1343 176.752 30.4314 179.759 30.4314V26.0296ZM168.893 28.6671L166.957 24.7139C162.57 26.8626 158.951 30.534 155.978 35.3071L159.714 37.6346L163.45 39.962C165.822 36.1544 168.323 33.8475 170.829 32.6202L168.893 28.6671ZM159.714 37.6346L155.978 35.3071C152.951 40.1664 150.663 46.4541 148.983 53.9772L153.279 54.9366L157.575 55.8959C159.13 48.9303 161.132 43.6833 163.45 39.962L159.714 37.6346ZM153.279 54.9366L148.974 54.0171C147.339 61.6719 146.556 71.15 146.556 82.3666H150.958H155.36C155.36 71.4984 156.124 62.6899 157.584 55.856L153.279 54.9366ZM150.958 82.3666H146.556C146.556 93.5831 147.339 103.061 148.974 110.716L153.279 109.797L157.584 108.877C156.124 102.043 155.36 93.2347 155.36 82.3666H150.958ZM153.279 109.797L148.983 110.756C150.663 118.279 152.951 124.567 155.978 129.426L159.714 127.099L163.45 124.771C161.132 121.05 159.13 115.803 157.575 108.837L153.279 109.797ZM159.714 127.099L155.978 129.426C158.947 134.192 162.546 137.875 166.892 140.093L168.893 136.172L170.893 132.251C168.346 130.951 165.827 128.586 163.45 124.771L159.714 127.099ZM168.893 136.172L166.988 140.14C171.071 142.1 175.341 143.105 179.759 143.105V138.704V134.302C176.722 134.302 173.748 133.619 170.798 132.203L168.893 136.172ZM179.759 138.704V143.105C184.235 143.105 188.542 142.105 192.636 140.14L190.731 136.172L188.826 132.203C185.888 133.614 182.88 134.302 179.759 134.302V138.704ZM190.731 136.172L192.7 140.109C197.123 137.897 200.77 134.212 203.751 129.426L200.015 127.099L196.279 124.771C193.915 128.566 191.373 130.929 188.763 132.234L190.731 136.172ZM200.015 127.099L203.724 129.47C206.839 124.597 209.169 118.293 210.852 110.756L206.556 109.797L202.26 108.837C200.708 115.789 198.677 121.019 196.307 124.727L200.015 127.099ZM206.556 109.797L210.852 110.756C212.565 103.084 213.385 93.5914 213.385 82.3666H208.983H204.581C204.581 93.2263 203.782 102.02 202.26 108.837L206.556 109.797ZM353.956 117.076L349.732 115.839L349.729 115.849L349.726 115.859L353.956 117.076ZM342.14 141.341L338.688 138.61L338.679 138.622L338.67 138.633L342.14 141.341ZM324.311 155.689L326.129 159.698L326.138 159.694L326.148 159.689L324.311 155.689ZM280.001 155.689L278.132 159.675L278.157 159.686L278.182 159.698L280.001 155.689ZM262.382 141.341L258.912 144.049L262.382 141.341ZM250.672 117.076L246.439 118.285L246.442 118.293L250.672 117.076ZM250.672 47.6571L254.902 48.8744L250.672 47.6571ZM262.382 23.3921L258.912 20.6843V20.6843L262.382 23.3921ZM280.001 9.14956L281.835 13.1511L281.844 13.1469L281.853 13.1426L280.001 9.14956ZM324.311 9.14956L322.458 13.1426L322.483 13.1541L322.508 13.1652L324.311 9.14956ZM342.14 23.3921L338.67 26.0998L338.679 26.1116L338.688 26.1233L342.14 23.3921ZM353.956 47.6571L349.726 48.8744L349.73 48.8884L349.734 48.9024L353.956 47.6571ZM328.953 54.9366L324.657 55.8959L328.953 54.9366ZM322.412 37.6346L318.676 39.962L318.689 39.9839L318.703 40.0057L322.412 37.6346ZM313.128 28.6671L311.159 32.6042L311.191 32.6201L311.223 32.6354L313.128 28.6671ZM291.289 28.6671L293.225 32.6202L293.242 32.6123L293.258 32.6042L291.289 28.6671ZM282.111 37.6346L278.375 35.3071L282.111 37.6346ZM275.675 54.9366L271.379 53.9772L271.375 53.9972L271.371 54.0171L275.675 54.9366ZM275.675 109.797L271.371 110.716L271.375 110.736L271.379 110.756L275.675 109.797ZM282.111 127.099L278.375 129.426L282.111 127.099ZM291.289 136.172L289.289 140.093L289.336 140.117L289.384 140.14L291.289 136.172ZM313.128 136.172L315.033 140.14L315.065 140.125L315.096 140.109L313.128 136.172ZM322.412 127.099L318.703 124.727L318.689 124.749L318.676 124.771L322.412 127.099ZM328.953 109.797L324.657 108.837L328.953 109.797ZM358.282 82.3666H353.88C353.88 95.3574 352.469 106.492 349.732 115.839L353.956 117.076L358.181 118.313C361.211 107.966 362.684 95.9618 362.684 82.3666H358.282ZM353.956 117.076L349.726 115.859C347.033 125.216 343.321 132.755 338.688 138.61L342.14 141.341L345.592 144.072C351.088 137.127 355.252 128.489 358.186 118.293L353.956 117.076ZM342.14 141.341L338.67 138.633C334.078 144.518 328.682 148.838 322.474 151.689L324.311 155.689L326.148 159.689C333.725 156.21 340.215 150.964 345.611 144.049L342.14 141.341ZM324.311 155.689L322.492 151.68C316.276 154.5 309.515 155.929 302.156 155.929V160.331V164.733C310.692 164.733 318.701 163.067 326.129 159.698L324.311 155.689ZM302.156 160.331V155.929C294.796 155.929 288.036 154.5 281.819 151.68L280.001 155.689L278.182 159.698C285.61 163.067 293.62 164.733 302.156 164.733V160.331ZM280.001 155.689L281.869 151.703C275.799 148.858 270.459 144.537 265.853 138.633L262.382 141.341L258.912 144.049C264.293 150.946 270.699 156.19 278.132 159.675L280.001 155.689ZM262.382 141.341L265.853 138.633C261.281 132.773 257.598 125.226 254.902 115.859L250.672 117.076L246.442 118.293C249.373 128.479 253.496 137.108 258.912 144.049L262.382 141.341ZM250.672 117.076L254.904 115.867C252.231 106.51 250.854 95.3652 250.854 82.3666H246.452H242.05C242.05 95.9539 243.486 107.949 246.439 118.285L250.672 117.076ZM246.452 82.3666H250.854C250.854 69.2941 252.232 58.1535 254.902 48.8744L250.672 47.6571L246.442 46.4397C243.485 56.7133 242.05 68.7124 242.05 82.3666H246.452ZM250.672 47.6571L254.902 48.8744C257.598 39.5069 261.281 31.9597 265.853 26.0998L262.382 23.3921L258.912 20.6843C253.496 27.625 249.373 36.2545 246.442 46.4397L250.672 47.6571ZM262.382 23.3921L265.853 26.0998C270.454 20.2029 275.782 15.9252 281.835 13.1511L280.001 9.14956L278.167 5.14799C270.715 8.56324 264.298 13.7806 258.912 20.6843L262.382 23.3921ZM280.001 9.14956L281.853 13.1426C288.062 10.2621 294.811 8.80392 302.156 8.80392V4.40207V0.000205994C293.605 0.000205994 285.584 1.70701 278.148 5.15647L280.001 9.14956ZM302.156 4.40207V8.80392C309.501 8.80392 316.249 10.2621 322.458 13.1426L324.311 9.14956L326.163 5.15647C318.728 1.70701 310.706 0.000205994 302.156 0.000205994V4.40207ZM324.311 9.14956L322.508 13.1652C328.698 15.9446 334.083 20.2216 338.67 26.0998L342.14 23.3921L345.611 20.6843C340.21 13.7619 333.709 8.54386 326.114 5.13388L324.311 9.14956ZM342.14 23.3921L338.688 26.1233C343.321 31.9786 347.033 39.5174 349.726 48.8744L353.956 47.6571L358.186 46.4397C355.252 36.244 351.088 27.6062 345.592 20.6608L342.14 23.3921ZM353.956 47.6571L349.734 48.9024C352.468 58.1713 353.88 69.3018 353.88 82.3666H358.282H362.684C362.684 68.7046 361.212 56.6955 358.178 46.4117L353.956 47.6571ZM331.379 82.3666H335.781C335.781 71.1417 334.962 61.6489 333.249 53.9772L328.953 54.9366L324.657 55.8959C326.179 62.7129 326.977 71.5068 326.977 82.3666H331.379ZM328.953 54.9366L333.249 53.9772C331.566 46.4404 329.236 40.136 326.12 35.2634L322.412 37.6346L318.703 40.0057C321.074 43.7138 323.104 48.9441 324.657 55.8959L328.953 54.9366ZM322.412 37.6346L326.148 35.3071C323.162 30.5138 319.496 26.8413 315.033 24.6987L313.128 28.6671L311.223 32.6354C313.793 33.8689 316.316 36.1747 318.676 39.962L322.412 37.6346ZM313.128 28.6671L315.096 24.7299C310.991 22.6771 306.662 21.6277 302.156 21.6277V26.0296V30.4314C305.246 30.4314 308.232 31.1404 311.159 32.6042L313.128 28.6671ZM302.156 26.0296V21.6277C297.707 21.6277 293.414 22.6832 289.321 24.7299L291.289 28.6671L293.258 32.6042C296.198 31.1343 299.149 30.4314 302.156 30.4314V26.0296ZM291.289 28.6671L289.353 24.7139C284.966 26.8626 281.348 30.534 278.375 35.3071L282.111 37.6346L285.847 39.962C288.219 36.1544 290.72 33.8475 293.225 32.6202L291.289 28.6671ZM282.111 37.6346L278.375 35.3071C275.347 40.1664 273.059 46.4541 271.379 53.9772L275.675 54.9366L279.971 55.8959C281.527 48.9303 283.529 43.6833 285.847 39.962L282.111 37.6346ZM275.675 54.9366L271.371 54.0171C269.736 61.6719 268.952 71.15 268.952 82.3666H273.354H277.756C277.756 71.4984 278.52 62.6899 279.98 55.856L275.675 54.9366ZM273.354 82.3666H268.952C268.952 93.5831 269.736 103.061 271.371 110.716L275.675 109.797L279.98 108.877C278.52 102.043 277.756 93.2347 277.756 82.3666H273.354ZM275.675 109.797L271.379 110.756C273.059 118.279 275.347 124.567 278.375 129.426L282.111 127.099L285.847 124.771C283.529 121.05 281.527 115.803 279.971 108.837L275.675 109.797ZM282.111 127.099L278.375 129.426C281.344 134.192 284.943 137.875 289.289 140.093L291.289 136.172L293.29 132.251C290.743 130.951 288.223 128.586 285.847 124.771L282.111 127.099ZM291.289 136.172L289.384 140.14C293.467 142.1 297.738 143.105 302.156 143.105V138.704V134.302C299.118 134.302 296.145 133.619 293.194 132.203L291.289 136.172ZM302.156 138.704V143.105C306.631 143.105 310.938 142.105 315.033 140.14L313.128 136.172L311.223 132.203C308.284 133.614 305.276 134.302 302.156 134.302V138.704ZM313.128 136.172L315.096 140.109C319.52 137.897 323.167 134.212 326.148 129.426L322.412 127.099L318.676 124.771C316.312 128.566 313.769 130.929 311.159 132.234L313.128 136.172ZM322.412 127.099L326.12 129.47C329.236 124.597 331.566 118.293 333.249 110.756L328.953 109.797L324.657 108.837C323.104 115.789 321.074 121.019 318.703 124.727L322.412 127.099ZM328.953 109.797L333.249 110.756C334.962 103.084 335.781 93.5914 335.781 82.3666H331.379H326.977C326.977 93.2263 326.179 102.02 324.657 108.837L328.953 109.797ZM406.406 61.4776L402.066 60.7422L400.989 67.1026L407.304 65.7869L406.406 61.4776ZM416.112 60.0006L416.511 64.3843L416.56 64.3799L416.609 64.3743L416.112 60.0006ZM446.285 63.0601L444.683 67.16L446.285 63.0601ZM461.688 72.9771L464.827 69.8907V69.8907L461.688 72.9771ZM471.078 87.8526L466.95 89.3814L466.953 89.3898L466.956 89.3982L471.078 87.8526ZM469.917 128.259L465.876 126.515L465.868 126.533L465.86 126.551L469.917 128.259ZM458.101 145.456L461.1 148.678L461.112 148.667L461.124 148.656L458.101 145.456ZM440.061 156.428L438.52 152.304L438.513 152.307L438.506 152.309L440.061 156.428ZM403.874 158.854L404.859 154.564L403.874 158.854ZM391.742 154.951L389.926 158.96L389.971 158.981L390.017 159L391.742 154.951ZM381.297 149.254L378.8 152.879L378.846 152.91L378.893 152.941L381.297 149.254ZM372.752 142.396L369.186 139.815L366.921 142.944L369.729 145.596L372.752 142.396ZM380.77 131.319L384.336 133.9L384.351 133.878L384.366 133.857L380.77 131.319ZM399.021 133.112L396.825 136.927L396.849 136.941L396.874 136.955L399.021 133.112ZM407.356 136.805L405.881 140.952L405.895 140.957L405.91 140.962L407.356 136.805ZM440.694 129.736L437.381 126.837L437.376 126.843L440.694 129.736ZM446.18 119.819L441.996 118.45L441.988 118.474L441.981 118.497L446.18 119.819ZM440.799 87.8526L437.71 90.9881L437.733 91.011L437.757 91.0335L440.799 87.8526ZM397.228 84.7931L396.018 89.0256L397.366 89.4107L398.689 88.9454L397.228 84.7931ZM380.981 80.1511L376.642 79.4094L375.977 83.2994L379.771 84.3836L380.981 80.1511ZM393.641 6.09006V1.6882H389.927L389.302 5.34836L393.641 6.09006ZM468.968 6.09006H473.37V1.6882H468.968V6.09006ZM465.486 26.2406L462.374 23.128V23.128L465.486 26.2406ZM411.787 29.7221V25.3202H408.068L407.447 28.9867L411.787 29.7221ZM406.406 61.4776L407.304 65.7869C410.533 65.1142 413.601 64.6489 416.511 64.3843L416.112 60.0006L415.714 55.6168C412.434 55.9149 409.032 56.4342 405.508 57.1682L406.406 61.4776ZM416.112 60.0006L416.609 64.3743C419.552 64.0399 422.375 63.8749 425.08 63.8749V59.4731V55.0712C422.017 55.0712 418.862 55.2579 415.615 55.6268L416.112 60.0006ZM425.08 59.4731V63.8749C432.667 63.8749 439.174 65.0068 444.683 67.16L446.285 63.0601L447.888 58.9602C441.159 56.3306 433.529 55.0712 425.08 55.0712V59.4731ZM446.285 63.0601L444.683 67.16C450.288 69.3505 454.881 72.3322 458.55 76.0634L461.688 72.9771L464.827 69.8907C460.197 65.1819 454.52 61.5523 447.888 58.9602L446.285 63.0601ZM461.688 72.9771L458.55 76.0634C462.251 79.828 465.05 84.2517 466.95 89.3814L471.078 87.8526L475.206 86.3237C472.885 80.0594 469.424 74.5661 464.827 69.8907L461.688 72.9771ZM471.078 87.8526L466.956 89.3982C468.865 94.4886 469.841 100.044 469.841 106.104H474.243H478.645C478.645 99.082 477.51 92.4699 475.199 86.307L471.078 87.8526ZM474.243 106.104H469.841C469.841 113.66 468.496 120.442 465.876 126.515L469.917 128.259L473.959 130.003C477.105 122.712 478.645 114.725 478.645 106.104H474.243ZM469.917 128.259L465.86 126.551C463.275 132.692 459.68 137.91 455.079 142.255L458.101 145.456L461.124 148.656C466.651 143.436 470.933 137.189 473.974 129.967L469.917 128.259ZM458.101 145.456L455.103 142.233C450.491 146.524 444.983 149.889 438.52 152.304L440.061 156.428L441.602 160.551C449.064 157.762 455.583 153.812 461.1 148.678L458.101 145.456ZM440.061 156.428L438.506 152.309C432.161 154.705 425.168 155.929 417.484 155.929V160.331V164.733C426.117 164.733 434.175 163.355 441.616 160.546L440.061 156.428ZM417.484 160.331V155.929C413.004 155.929 408.8 155.468 404.859 154.564L403.874 158.854L402.89 163.144C407.529 164.209 412.398 164.733 417.484 164.733V160.331ZM403.874 158.854L404.859 154.564C400.805 153.633 397.01 152.41 393.467 150.901L391.742 154.951L390.017 159C394.069 160.726 398.362 162.105 402.89 163.144L403.874 158.854ZM391.742 154.951L393.558 150.941C390.022 149.34 386.739 147.547 383.702 145.567L381.297 149.254L378.893 152.941C382.326 155.18 386.006 157.185 389.926 158.96L391.742 154.951ZM381.297 149.254L383.794 145.629C380.796 143.563 378.126 141.417 375.774 139.196L372.752 142.396L369.729 145.596C372.441 148.157 375.468 150.583 378.8 152.879L381.297 149.254ZM372.752 142.396L376.318 144.977L384.336 133.9L380.77 131.319L377.204 128.738L369.186 139.815L372.752 142.396ZM380.77 131.319L384.366 133.857C385.294 132.542 386.213 132.133 387.416 132.133V127.732V123.33C383.134 123.33 379.621 125.313 377.174 128.78L380.77 131.319ZM387.416 127.732V132.133C388.197 132.133 389.201 132.376 390.49 133.168L392.797 129.42L395.104 125.671C392.735 124.213 390.152 123.33 387.416 123.33V127.732ZM392.797 129.42L390.49 133.168C392.363 134.321 394.475 135.574 396.825 136.927L399.021 133.112L401.218 129.297C398.925 127.977 396.888 126.769 395.104 125.671L392.797 129.42ZM399.021 133.112L396.874 136.955C399.522 138.435 402.534 139.762 405.881 140.952L407.356 136.805L408.83 132.657C405.848 131.597 403.303 130.462 401.169 129.269L399.021 133.112ZM407.356 136.805L405.91 140.962C409.73 142.291 414.113 142.894 418.961 142.894V138.493V134.091C414.806 134.091 411.452 133.569 408.802 132.647L407.356 136.805ZM418.961 138.493V142.894C424.215 142.894 429.037 142.044 433.336 140.226L431.621 136.172L429.906 132.118C426.89 133.394 423.272 134.091 418.961 134.091V138.493ZM431.621 136.172L433.336 140.226C437.552 138.442 441.142 135.92 444.012 132.629L440.694 129.736L437.376 126.843C435.463 129.038 433.004 130.807 429.906 132.118L431.621 136.172ZM440.694 129.736L444.006 132.635C446.895 129.333 449.012 125.482 450.378 121.141L446.18 119.819L441.981 118.497C440.956 121.752 439.416 124.512 437.381 126.837L440.694 129.736ZM446.18 119.819L450.363 121.188C451.788 116.834 452.481 112.182 452.481 107.265H448.079H443.677C443.677 111.35 443.103 115.068 441.996 118.45L446.18 119.819ZM448.079 107.265H452.481C452.481 98.0664 449.76 90.3322 443.842 84.6716L440.799 87.8526L437.757 91.0335C441.545 94.657 443.677 99.8641 443.677 107.265H448.079ZM440.799 87.8526L443.889 84.717C437.998 78.9131 429.597 76.3822 419.488 76.3822V80.7841V85.1859C428.229 85.1859 434.035 87.3673 437.71 90.9881L440.799 87.8526ZM419.488 80.7841V76.3822C411.694 76.3822 403.78 77.8212 395.767 80.6407L397.228 84.7931L398.689 88.9454C405.867 86.4196 412.794 85.1859 419.488 85.1859V80.7841ZM397.228 84.7931L398.437 80.5606L382.19 75.9186L380.981 80.1511L379.771 84.3836L396.018 89.0256L397.228 84.7931ZM380.981 80.1511L385.32 80.8928L397.98 6.83175L393.641 6.09006L389.302 5.34836L376.642 79.4094L380.981 80.1511ZM393.641 6.09006V10.4919H468.968V6.09006V1.6882H393.641V6.09006ZM468.968 6.09006H464.566V17.1676H468.968H473.37V6.09006H468.968ZM468.968 17.1676H464.566C464.566 19.9002 463.755 21.7469 462.374 23.128L465.486 26.2406L468.599 29.3531C471.86 26.0922 473.37 21.8903 473.37 17.1676H468.968ZM465.486 26.2406L462.374 23.128C461.293 24.2085 458.819 25.3202 453.67 25.3202V29.7221V34.1239C459.635 34.1239 465.037 32.9146 468.599 29.3531L465.486 26.2406ZM453.67 29.7221V25.3202H411.787V29.7221V34.1239H453.67V29.7221ZM411.787 29.7221L407.447 28.9867L402.066 60.7422L406.406 61.4776L410.746 62.2129L416.127 30.4574L411.787 29.7221Z" fill="#A1A1AA" mask="url(#path-1-outside-1_213_3029)"/>
</svg>
