<svg width="483" height="165" viewBox="0 0 483 165" fill="none" xmlns="http://www.w3.org/2000/svg">
<mask id="path-1-outside-1_213_3035" maskUnits="userSpaceOnUse" x="-0.323242" y="-0.356934" width="483" height="166" fill="black">
<rect fill="white" x="-0.323242" y="-0.356934" width="483" height="166"/>
<path d="M99.8793 134.378C102.693 134.378 104.908 135.187 106.526 136.805C108.214 138.352 109.058 140.427 109.058 143.029V158.643H4.40179V149.992C4.40179 148.234 4.75346 146.405 5.45679 144.506C6.23046 142.537 7.42612 140.778 9.04379 139.231L55.3583 92.8111C59.2266 88.8724 62.673 85.1096 65.6973 81.5226C68.792 77.9356 71.3591 74.3837 73.3988 70.8671C75.4385 67.3504 76.9858 63.7986 78.0408 60.2116C79.1661 56.5542 79.7288 52.7211 79.7288 48.7121C79.7288 45.0547 79.2013 41.8546 78.1463 39.1116C77.0913 36.2982 75.5791 33.9421 73.6098 32.0431C71.7108 30.1441 69.3898 28.7374 66.6468 27.8231C63.9741 26.8384 60.9498 26.3461 57.5738 26.3461C54.4791 26.3461 51.5955 26.8032 48.9228 27.7176C46.3205 28.5616 43.9995 29.7924 41.9598 31.4101C39.9201 32.9574 38.197 34.7861 36.7903 36.8961C35.3836 39.0061 34.3286 41.3271 33.6253 43.8591C32.4296 47.0944 30.8823 49.2396 28.9833 50.2946C27.0843 51.3496 24.3413 51.5957 20.7543 51.0331L7.03929 48.6066C8.09429 41.2919 10.134 34.8916 13.1583 29.4056C16.1826 23.8492 19.9455 19.2424 24.4468 15.5851C29.0185 11.8574 34.2231 9.07923 40.0608 7.25056C45.9688 5.35156 52.2988 4.40207 59.0508 4.40207C66.0841 4.40207 72.5196 5.45706 78.3573 7.56706C84.195 9.60672 89.1886 12.5256 93.3383 16.3236C97.488 20.1216 100.723 24.6932 103.044 30.0386C105.365 35.3839 106.526 41.3271 106.526 47.8681C106.526 53.4947 105.682 58.6994 103.994 63.4821C102.376 68.2647 100.161 72.8364 97.3473 77.1971C94.6043 81.5577 91.369 85.7777 87.6413 89.8571C83.9136 93.9364 80.0101 98.0861 75.9308 102.306L41.5378 137.438C44.8435 136.453 48.114 135.714 51.3493 135.222C54.655 134.659 57.7848 134.378 60.7388 134.378H99.8793ZM235.885 82.3666C235.885 95.6596 234.443 107.229 231.56 117.076C228.746 126.852 224.808 134.941 219.744 141.341C214.75 147.741 208.807 152.524 201.914 155.689C195.092 158.784 187.707 160.331 179.759 160.331C171.812 160.331 164.427 158.784 157.604 155.689C150.852 152.524 144.979 147.741 139.986 141.341C134.992 134.941 131.089 126.852 128.275 117.076C125.462 107.229 124.055 95.6596 124.055 82.3666C124.055 69.0032 125.462 57.4334 128.275 47.6571C131.089 37.8807 134.992 29.7924 139.986 23.3921C144.979 16.9917 150.852 12.2442 157.604 9.14956C164.427 5.98456 171.812 4.40207 179.759 4.40207C187.707 4.40207 195.092 5.98456 201.914 9.14956C208.807 12.2442 214.75 16.9917 219.744 23.3921C224.808 29.7924 228.746 37.8807 231.56 47.6571C234.443 57.4334 235.885 69.0032 235.885 82.3666ZM208.983 82.3666C208.983 71.3242 208.174 62.1809 206.556 54.9366C204.939 47.6922 202.758 41.9249 200.015 37.6346C197.343 33.3442 194.248 30.3551 190.731 28.6671C187.215 26.9087 183.557 26.0296 179.759 26.0296C176.032 26.0296 172.409 26.9087 168.893 28.6671C165.446 30.3551 162.387 33.3442 159.714 37.6346C157.042 41.9249 154.896 47.6922 153.279 54.9366C151.731 62.1809 150.958 71.3242 150.958 82.3666C150.958 93.4089 151.731 102.552 153.279 109.797C154.896 117.041 157.042 122.808 159.714 127.099C162.387 131.389 165.446 134.413 168.893 136.172C172.409 137.86 176.032 138.704 179.759 138.704C183.557 138.704 187.215 137.86 190.731 136.172C194.248 134.413 197.343 131.389 200.015 127.099C202.758 122.808 204.939 117.041 206.556 109.797C208.174 102.552 208.983 93.4089 208.983 82.3666ZM350.369 139.126V158.643H265.969V139.126H296.881V50.1891C296.881 46.6724 296.986 43.0502 297.197 39.3226L275.253 57.6796C273.987 58.6642 272.721 59.2972 271.455 59.5786C270.26 59.7896 269.099 59.7896 267.974 59.5786C266.919 59.3676 265.969 59.0159 265.125 58.5236C264.281 57.9609 263.648 57.3631 263.226 56.7301L254.997 45.4416L301.523 5.87906H322.939V139.126H350.369ZM424.763 139.97C429.054 139.97 432.816 139.372 436.052 138.176C439.287 136.91 441.995 135.187 444.175 133.007C446.426 130.826 448.114 128.224 449.239 125.2C450.365 122.175 450.927 118.905 450.927 115.388C450.927 107.018 448.606 100.688 443.964 96.3981C439.322 92.1077 432.922 89.9626 424.763 89.9626C416.605 89.9626 410.204 92.1077 405.562 96.3981C400.92 100.688 398.599 107.018 398.599 115.388C398.599 118.905 399.162 122.175 400.287 125.2C401.413 128.224 403.065 130.826 405.246 133.007C407.496 135.187 410.239 136.91 413.475 138.176C416.71 139.372 420.473 139.97 424.763 139.97ZM424.763 24.0251C420.895 24.0251 417.554 24.6229 414.741 25.8186C411.927 27.0142 409.571 28.6319 407.672 30.6716C405.844 32.6409 404.472 34.9267 403.558 37.5291C402.714 40.1314 402.292 42.8744 402.292 45.7581C402.292 48.7824 402.643 51.7364 403.347 54.6201C404.12 57.4334 405.386 59.9654 407.145 62.2161C408.903 64.3964 411.224 66.1547 414.108 67.4911C416.991 68.8274 420.543 69.4956 424.763 69.4956C428.983 69.4956 432.535 68.8274 435.419 67.4911C438.302 66.1547 440.623 64.3964 442.382 62.2161C444.14 59.9654 445.371 57.4334 446.074 54.6201C446.848 51.7364 447.235 48.7824 447.235 45.7581C447.235 42.8744 446.778 40.1314 445.863 37.5291C444.949 34.9267 443.577 32.6409 441.749 30.6716C439.92 28.6319 437.599 27.0142 434.786 25.8186C431.972 24.6229 428.632 24.0251 424.763 24.0251ZM450.505 79.0961C459.789 82.1204 466.647 86.7624 471.078 93.0221C475.509 99.2114 477.724 106.807 477.724 115.81C477.724 122.562 476.423 128.681 473.821 134.167C471.289 139.653 467.702 144.33 463.06 148.199C458.418 152.067 452.826 155.056 446.285 157.166C439.815 159.276 432.641 160.331 424.763 160.331C416.886 160.331 409.677 159.276 403.136 157.166C396.665 155.056 391.109 152.067 386.467 148.199C381.825 144.33 378.203 139.653 375.6 134.167C373.068 128.681 371.802 122.562 371.802 115.81C371.802 106.807 374.018 99.2114 378.449 93.0221C382.88 86.7624 389.737 82.1204 399.021 79.0961C391.636 76.0014 386.08 71.6056 382.352 65.9086C378.695 60.2116 376.866 53.3541 376.866 45.3361C376.866 39.5687 378.027 34.1882 380.348 29.1946C382.739 24.2009 386.045 19.8754 390.265 16.2181C394.485 12.4904 399.514 9.60672 405.351 7.56706C411.259 5.45706 417.73 4.40207 424.763 4.40207C431.797 4.40207 438.232 5.45706 444.07 7.56706C449.978 9.60672 455.042 12.4904 459.262 16.2181C463.482 19.8754 466.752 24.2009 469.073 29.1946C471.465 34.1882 472.66 39.5687 472.66 45.3361C472.66 53.3541 470.796 60.2116 467.069 65.9086C463.411 71.6056 457.89 76.0014 450.505 79.0961Z"/>
</mask>
<path d="M106.526 136.805L103.413 139.917L103.481 139.985L103.551 140.049L106.526 136.805ZM109.058 158.643V163.045H113.46V158.643H109.058ZM4.40179 158.643H-6.91414e-05V163.045H4.40179V158.643ZM5.45679 144.506L1.35975 142.897L1.34396 142.937L1.32895 142.977L5.45679 144.506ZM9.04379 139.231L12.0865 142.412L12.1236 142.376L12.1599 142.34L9.04379 139.231ZM55.3583 92.8111L58.4744 95.9201L58.4866 95.9078L58.4988 95.8955L55.3583 92.8111ZM65.6973 81.5226L62.3644 78.6471L62.3481 78.666L62.332 78.6851L65.6973 81.5226ZM73.3988 70.8671L69.591 68.6586L73.3988 70.8671ZM78.0408 60.2116L73.8336 58.917L73.8255 58.9432L73.8178 58.9695L78.0408 60.2116ZM78.1463 39.1116L74.0247 40.6572L74.0312 40.6745L74.0378 40.6917L78.1463 39.1116ZM73.6098 32.0431L70.4972 35.1556L70.5255 35.1839L70.5543 35.2117L73.6098 32.0431ZM66.6468 27.8231L65.125 31.9535L65.1896 31.9773L65.2548 31.999L66.6468 27.8231ZM48.9228 27.7176L50.2808 31.9047L50.3143 31.8938L50.3476 31.8824L48.9228 27.7176ZM41.9598 31.4101L44.6202 34.917L44.658 34.8883L44.6951 34.8589L41.9598 31.4101ZM33.6253 43.8591L37.7542 45.385L37.8176 45.2134L37.8666 45.0372L33.6253 43.8591ZM20.7543 51.0331L19.9874 55.3676L20.0297 55.3751L20.0721 55.3817L20.7543 51.0331ZM7.03929 48.6066L2.68251 47.9782L2.07384 52.1983L6.27241 52.9411L7.03929 48.6066ZM13.1583 29.4056L17.0132 31.5307L17.0189 31.5204L17.0245 31.51L13.1583 29.4056ZM24.4468 15.5851L27.2226 19.0014L27.2285 18.9966L24.4468 15.5851ZM40.0608 7.25056L41.3766 11.4511L41.3922 11.4463L41.4078 11.4413L40.0608 7.25056ZM78.3573 7.56706L76.861 11.7068L76.8831 11.7148L76.9054 11.7226L78.3573 7.56706ZM103.044 30.0386L107.082 28.2854V28.2854L103.044 30.0386ZM103.994 63.4821L99.8429 62.017L99.8333 62.0443L99.824 62.0717L103.994 63.4821ZM97.3473 77.1971L93.6484 74.8107L93.6347 74.8319L93.6213 74.8533L97.3473 77.1971ZM87.6413 89.8571L90.8908 92.8264L87.6413 89.8571ZM75.9308 102.306L79.0763 105.385L79.086 105.375L79.0957 105.365L75.9308 102.306ZM41.5378 137.438L38.3923 134.358L26.4945 146.512L42.7944 141.656L41.5378 137.438ZM51.3493 135.222L52.0115 139.574L52.0498 139.568L52.0879 139.562L51.3493 135.222ZM99.8793 134.378V138.78C101.81 138.78 102.803 139.307 103.413 139.917L106.526 136.805L109.638 133.692C107.014 131.067 103.575 129.976 99.8793 129.976V134.378ZM106.526 136.805L103.551 140.049C104.201 140.645 104.656 141.475 104.656 143.029H109.058H113.46C113.46 139.379 112.226 136.059 109.5 133.56L106.526 136.805ZM109.058 143.029H104.656V158.643H109.058H113.46V143.029H109.058ZM109.058 158.643V154.241H4.40179V158.643V163.045H109.058V158.643ZM4.40179 158.643H8.80365V149.992H4.40179H-6.91414e-05V158.643H4.40179ZM4.40179 149.992H8.80365C8.80365 148.828 9.03544 147.518 9.58463 146.035L5.45679 144.506L1.32895 142.977C0.47147 145.292 -6.91414e-05 147.639 -6.91414e-05 149.992H4.40179ZM5.45679 144.506L9.55383 146.116C10.0807 144.775 10.9027 143.544 12.0865 142.412L9.04379 139.231L6.00112 136.05C3.94954 138.012 2.38023 140.299 1.35975 142.897L5.45679 144.506ZM9.04379 139.231L12.1599 142.34L58.4744 95.9201L55.3583 92.8111L52.2422 89.702L5.92767 136.122L9.04379 139.231ZM55.3583 92.8111L58.4988 95.8955C62.432 91.8908 65.9553 88.0454 69.0626 84.36L65.6973 81.5226L62.332 78.6851C59.3906 82.1737 56.0213 85.854 52.2178 89.7266L55.3583 92.8111ZM65.6973 81.5226L69.0302 84.398C72.275 80.637 75.0094 76.8638 77.2065 73.0756L73.3988 70.8671L69.591 68.6586C67.7089 71.9037 65.3089 75.2342 62.3644 78.6471L65.6973 81.5226ZM73.3988 70.8671L77.2065 73.0756C79.4075 69.2808 81.1013 65.4062 82.2638 61.4536L78.0408 60.2116L73.8178 58.9695C72.8703 62.191 71.4694 65.42 69.591 68.6586L73.3988 70.8671ZM78.0408 60.2116L82.248 61.5061C83.5084 57.4097 84.1307 53.1388 84.1307 48.7121H79.7288H75.3269C75.3269 52.3033 74.8238 55.6987 73.8336 58.917L78.0408 60.2116ZM79.7288 48.7121H84.1307C84.1307 44.6417 83.5447 40.8852 82.2547 37.5314L78.1463 39.1116L74.0378 40.6917C74.8579 42.824 75.3269 45.4677 75.3269 48.7121H79.7288ZM78.1463 39.1116L82.2679 37.566C81.0057 34.2001 79.1512 31.2715 76.6653 28.8744L73.6098 32.0431L70.5543 35.2117C72.0071 36.6126 73.1769 38.3964 74.0247 40.6572L78.1463 39.1116ZM73.6098 32.0431L76.7224 28.9305C74.3037 26.5118 71.3793 24.7606 68.0388 23.6471L66.6468 27.8231L65.2548 31.999C67.4003 32.7142 69.1179 33.7763 70.4972 35.1556L73.6098 32.0431ZM66.6468 27.8231L68.1685 23.6926C64.9276 22.4986 61.3751 21.9442 57.5738 21.9442V26.3461V30.7479C60.5245 30.7479 63.0206 31.1782 65.125 31.9535L66.6468 27.8231ZM57.5738 26.3461V21.9442C54.0405 21.9442 50.671 22.4672 47.498 23.5527L48.9228 27.7176L50.3476 31.8824C52.5199 31.1393 54.9177 30.7479 57.5738 30.7479V26.3461ZM48.9228 27.7176L47.5648 23.5304C44.4887 24.5281 41.6962 26.0009 39.2245 27.9612L41.9598 31.4101L44.6951 34.8589C46.3027 33.5839 48.1522 32.5951 50.2808 31.9047L48.9228 27.7176ZM41.9598 31.4101L39.2994 27.9031C36.8724 29.7443 34.8093 31.9319 33.1277 34.4543L36.7903 36.8961L40.4529 39.3378C41.5846 37.6402 42.9678 36.1705 44.6202 34.917L41.9598 31.4101ZM36.7903 36.8961L33.1277 34.4543C31.4532 36.9662 30.2076 39.7162 29.384 42.6809L33.6253 43.8591L37.8666 45.0372C38.4497 42.9379 39.3141 41.0459 40.4529 39.3378L36.7903 36.8961ZM33.6253 43.8591L29.4964 42.3332C28.4629 45.1295 27.4178 46.1288 26.8456 46.4466L28.9833 50.2946L31.121 54.1425C34.3468 52.3504 36.3963 49.0593 37.7542 45.385L33.6253 43.8591ZM28.9833 50.2946L26.8456 46.4466C26.2132 46.798 24.6484 47.1882 21.4364 46.6844L20.7543 51.0331L20.0721 55.3817C24.0342 56.0032 27.9554 55.9011 31.121 54.1425L28.9833 50.2946ZM20.7543 51.0331L21.5212 46.6985L7.80617 44.272L7.03929 48.6066L6.27241 52.9411L19.9874 55.3676L20.7543 51.0331ZM7.03929 48.6066L11.3961 49.2349C12.3887 42.353 14.2865 36.4768 17.0132 31.5307L13.1583 29.4056L9.3034 27.2804C5.98144 33.3063 3.79992 40.2308 2.68251 47.9782L7.03929 48.6066ZM13.1583 29.4056L17.0245 31.51C19.7995 26.4119 23.2057 22.2651 27.2226 19.0014L24.4468 15.5851L21.671 12.1687C16.6852 16.2197 12.5658 21.2866 9.29205 27.3012L13.1583 29.4056ZM24.4468 15.5851L27.2285 18.9966C31.3501 15.6359 36.0532 13.1187 41.3766 11.4511L40.0608 7.25056L38.7449 3.04998C32.3931 5.03972 26.6868 8.0789 21.6651 12.1735L24.4468 15.5851ZM40.0608 7.25056L41.4078 11.4413C46.8439 9.69394 52.7159 8.80392 59.0508 8.80392V4.40207V0.000205994C51.8816 0.000205994 45.0937 1.00918 38.7138 3.05986L40.0608 7.25056ZM59.0508 4.40207V8.80392C65.6411 8.80392 71.5625 9.79168 76.861 11.7068L78.3573 7.56706L79.8536 3.42732C73.4768 1.12245 66.5272 0.000205994 59.0508 0.000205994V4.40207ZM78.3573 7.56706L76.9054 11.7226C82.2363 13.5852 86.6985 16.2137 90.3663 19.5707L93.3383 16.3236L96.3102 13.0764C91.6788 8.83744 86.1536 5.62827 79.8092 3.41155L78.3573 7.56706ZM93.3383 16.3236L90.3663 19.5707C94.0433 22.936 96.9229 26.9928 99.0066 31.7917L103.044 30.0386L107.082 28.2854C104.524 22.3936 100.933 17.3071 96.3102 13.0764L93.3383 16.3236ZM103.044 30.0386L99.0066 31.7917C101.06 36.5198 102.124 41.8563 102.124 47.8681H106.526H110.928C110.928 40.7978 109.671 34.248 107.082 28.2854L103.044 30.0386ZM106.526 47.8681H102.124C102.124 53.05 101.348 57.7535 99.8429 62.017L103.994 63.4821L108.145 64.9471C110.016 59.6452 110.928 53.9395 110.928 47.8681H106.526ZM103.994 63.4821L99.824 62.0717C98.3257 66.5014 96.2707 70.7462 93.6484 74.8107L97.3473 77.1971L101.046 79.5834C104.051 74.9266 106.427 70.0281 108.164 64.8924L103.994 63.4821ZM97.3473 77.1971L93.6213 74.8533C91.0278 78.9762 87.955 82.9883 84.3918 86.8877L87.6413 89.8571L90.8908 92.8264C94.7829 88.5671 98.1807 84.1392 101.073 79.5408L97.3473 77.1971ZM87.6413 89.8571L84.3918 86.8877C80.6936 90.9348 76.8184 95.0545 72.7659 99.2467L75.9308 102.306L79.0957 105.365C83.2019 101.118 87.1337 96.938 90.8908 92.8264L87.6413 89.8571ZM75.9308 102.306L72.7853 99.2267L38.3923 134.358L41.5378 137.438L44.6833 140.517L79.0763 105.385L75.9308 102.306ZM41.5378 137.438L42.7944 141.656C45.9157 140.727 48.9876 140.034 52.0115 139.574L51.3493 135.222L50.6871 130.87C47.2403 131.395 43.7712 132.179 40.2812 133.219L41.5378 137.438ZM51.3493 135.222L52.0879 139.562C55.1816 139.035 58.0628 138.78 60.7388 138.78V134.378V129.976C57.5068 129.976 54.1283 130.284 50.6107 130.883L51.3493 135.222ZM60.7388 134.378V138.78H99.8793V134.378V129.976H60.7388V134.378ZM231.56 117.076L227.335 115.839L227.332 115.849L227.33 115.859L231.56 117.076ZM219.744 141.341L216.292 138.61L216.282 138.622L216.273 138.633L219.744 141.341ZM201.914 155.689L203.733 159.698L203.742 159.694L203.751 159.689L201.914 155.689ZM157.604 155.689L155.736 159.675L155.761 159.686L155.786 159.698L157.604 155.689ZM139.986 141.341L136.515 144.049L139.986 141.341ZM128.275 117.076L124.043 118.285L124.045 118.293L128.275 117.076ZM128.275 47.6571L132.505 48.8744L128.275 47.6571ZM139.986 23.3921L136.515 20.6843V20.6843L139.986 23.3921ZM157.604 9.14956L159.438 13.1511L159.448 13.1469L159.457 13.1426L157.604 9.14956ZM201.914 9.14956L200.062 13.1426L200.087 13.1541L200.111 13.1652L201.914 9.14956ZM219.744 23.3921L216.273 26.0998L216.282 26.1116L216.292 26.1233L219.744 23.3921ZM231.56 47.6571L227.33 48.8744L227.334 48.8884L227.338 48.9024L231.56 47.6571ZM206.556 54.9366L202.26 55.8959L206.556 54.9366ZM200.015 37.6346L196.279 39.962L196.293 39.9839L196.307 40.0057L200.015 37.6346ZM190.731 28.6671L188.763 32.6042L188.794 32.6201L188.826 32.6354L190.731 28.6671ZM168.893 28.6671L170.829 32.6202L170.845 32.6123L170.861 32.6042L168.893 28.6671ZM159.714 37.6346L155.978 35.3071L159.714 37.6346ZM153.279 54.9366L148.983 53.9772L148.978 53.9972L148.974 54.0171L153.279 54.9366ZM153.279 109.797L148.974 110.716L148.978 110.736L148.983 110.756L153.279 109.797ZM159.714 127.099L155.978 129.426L159.714 127.099ZM168.893 136.172L166.892 140.093L166.94 140.117L166.988 140.14L168.893 136.172ZM190.731 136.172L192.636 140.14L192.668 140.125L192.7 140.109L190.731 136.172ZM200.015 127.099L196.307 124.727L196.293 124.749L196.279 124.771L200.015 127.099ZM206.556 109.797L202.26 108.837L206.556 109.797ZM235.885 82.3666H231.483C231.483 95.3574 230.073 106.492 227.335 115.839L231.56 117.076L235.784 118.313C238.814 107.966 240.287 95.9618 240.287 82.3666H235.885ZM231.56 117.076L227.33 115.859C224.637 125.216 220.924 132.755 216.292 138.61L219.744 141.341L223.196 144.072C228.691 137.127 232.856 128.489 235.79 118.293L231.56 117.076ZM219.744 141.341L216.273 138.633C211.682 144.518 206.285 148.838 200.077 151.689L201.914 155.689L203.751 159.689C211.329 156.21 217.819 150.964 223.214 144.049L219.744 141.341ZM201.914 155.689L200.096 151.68C193.879 154.5 187.119 155.929 179.759 155.929V160.331V164.733C188.295 164.733 196.305 163.067 203.733 159.698L201.914 155.689ZM179.759 160.331V155.929C172.4 155.929 165.639 154.5 159.423 151.68L157.604 155.689L155.786 159.698C163.214 163.067 171.223 164.733 179.759 164.733V160.331ZM157.604 155.689L159.473 151.703C153.402 148.858 148.062 144.537 143.456 138.633L139.986 141.341L136.515 144.049C141.897 150.946 148.302 156.19 155.736 159.675L157.604 155.689ZM139.986 141.341L143.456 138.633C138.884 132.773 135.201 125.226 132.505 115.859L128.275 117.076L124.045 118.293C126.976 128.479 131.1 137.108 136.515 144.049L139.986 141.341ZM128.275 117.076L132.508 115.867C129.834 106.51 128.457 95.3652 128.457 82.3666H124.055H119.653C119.653 95.9539 121.089 107.949 124.043 118.285L128.275 117.076ZM124.055 82.3666H128.457C128.457 69.2941 129.835 58.1535 132.505 48.8744L128.275 47.6571L124.045 46.4397C121.089 56.7133 119.653 68.7124 119.653 82.3666H124.055ZM128.275 47.6571L132.505 48.8744C135.201 39.5069 138.884 31.9597 143.456 26.0998L139.986 23.3921L136.515 20.6843C131.1 27.625 126.976 36.2545 124.045 46.4397L128.275 47.6571ZM139.986 23.3921L143.456 26.0998C148.057 20.2029 153.386 15.9252 159.438 13.1511L157.604 9.14956L155.77 5.14799C148.319 8.56324 141.902 13.7806 136.515 20.6843L139.986 23.3921ZM157.604 9.14956L159.457 13.1426C165.666 10.2621 172.414 8.80392 179.759 8.80392V4.40207V0.000205994C171.209 0.000205994 163.187 1.70701 155.752 5.15647L157.604 9.14956ZM179.759 4.40207V8.80392C187.104 8.80392 193.853 10.2621 200.062 13.1426L201.914 9.14956L203.767 5.15647C196.331 1.70701 188.31 0.000205994 179.759 0.000205994V4.40207ZM201.914 9.14956L200.111 13.1652C206.302 15.9446 211.687 20.2216 216.273 26.0998L219.744 23.3921L223.214 20.6843C217.813 13.7619 211.312 8.54386 203.717 5.13388L201.914 9.14956ZM219.744 23.3921L216.292 26.1233C220.924 31.9786 224.637 39.5174 227.33 48.8744L231.56 47.6571L235.79 46.4397C232.856 36.244 228.691 27.6062 223.196 20.6608L219.744 23.3921ZM231.56 47.6571L227.338 48.9024C230.072 58.1713 231.483 69.3018 231.483 82.3666H235.885H240.287C240.287 68.7046 238.815 56.6955 235.782 46.4117L231.56 47.6571ZM208.983 82.3666H213.385C213.385 71.1417 212.565 61.6489 210.852 53.9772L206.556 54.9366L202.26 55.8959C203.782 62.7129 204.581 71.5068 204.581 82.3666H208.983ZM206.556 54.9366L210.852 53.9772C209.169 46.4404 206.839 40.136 203.724 35.2634L200.015 37.6346L196.307 40.0057C198.677 43.7138 200.708 48.9441 202.26 55.8959L206.556 54.9366ZM200.015 37.6346L203.751 35.3071C200.765 30.5138 197.1 26.8413 192.636 24.6987L190.731 28.6671L188.826 32.6354C191.396 33.8689 193.92 36.1747 196.279 39.962L200.015 37.6346ZM190.731 28.6671L192.7 24.7299C188.594 22.6771 184.265 21.6277 179.759 21.6277V26.0296V30.4314C182.849 30.4314 185.835 31.1404 188.763 32.6042L190.731 28.6671ZM179.759 26.0296V21.6277C175.311 21.6277 171.018 22.6832 166.924 24.7299L168.893 28.6671L170.861 32.6042C173.801 31.1343 176.752 30.4314 179.759 30.4314V26.0296ZM168.893 28.6671L166.957 24.7139C162.57 26.8626 158.951 30.534 155.978 35.3071L159.714 37.6346L163.45 39.962C165.822 36.1544 168.323 33.8475 170.829 32.6202L168.893 28.6671ZM159.714 37.6346L155.978 35.3071C152.951 40.1664 150.663 46.4541 148.983 53.9772L153.279 54.9366L157.575 55.8959C159.13 48.9303 161.132 43.6833 163.45 39.962L159.714 37.6346ZM153.279 54.9366L148.974 54.0171C147.339 61.6719 146.556 71.15 146.556 82.3666H150.958H155.36C155.36 71.4984 156.124 62.6899 157.584 55.856L153.279 54.9366ZM150.958 82.3666H146.556C146.556 93.5831 147.339 103.061 148.974 110.716L153.279 109.797L157.584 108.877C156.124 102.043 155.36 93.2347 155.36 82.3666H150.958ZM153.279 109.797L148.983 110.756C150.663 118.279 152.951 124.567 155.978 129.426L159.714 127.099L163.45 124.771C161.132 121.05 159.13 115.803 157.575 108.837L153.279 109.797ZM159.714 127.099L155.978 129.426C158.947 134.192 162.546 137.875 166.892 140.093L168.893 136.172L170.893 132.251C168.346 130.951 165.827 128.586 163.45 124.771L159.714 127.099ZM168.893 136.172L166.988 140.14C171.071 142.1 175.341 143.105 179.759 143.105V138.704V134.302C176.722 134.302 173.748 133.619 170.798 132.203L168.893 136.172ZM179.759 138.704V143.105C184.235 143.105 188.542 142.105 192.636 140.14L190.731 136.172L188.826 132.203C185.888 133.614 182.88 134.302 179.759 134.302V138.704ZM190.731 136.172L192.7 140.109C197.123 137.897 200.77 134.212 203.751 129.426L200.015 127.099L196.279 124.771C193.915 128.566 191.373 130.929 188.763 132.234L190.731 136.172ZM200.015 127.099L203.724 129.47C206.839 124.597 209.169 118.293 210.852 110.756L206.556 109.797L202.26 108.837C200.708 115.789 198.677 121.019 196.307 124.727L200.015 127.099ZM206.556 109.797L210.852 110.756C212.565 103.084 213.385 93.5914 213.385 82.3666H208.983H204.581C204.581 93.2263 203.782 102.02 202.26 108.837L206.556 109.797ZM350.369 139.126H354.771V134.724H350.369V139.126ZM350.369 158.643V163.045H354.771V158.643H350.369ZM265.969 158.643H261.567V163.045H265.969V158.643ZM265.969 139.126V134.724H261.567V139.126H265.969ZM296.881 139.126V143.527H301.283V139.126H296.881ZM297.197 39.3226L301.592 39.5713L302.166 29.4268L294.373 35.9463L297.197 39.3226ZM275.253 57.6796L277.956 61.1542L278.018 61.1061L278.078 61.0558L275.253 57.6796ZM271.455 59.5786L272.22 63.9134L272.316 63.8966L272.41 63.8756L271.455 59.5786ZM267.974 59.5786L267.111 63.8949L267.136 63.9001L267.163 63.905L267.974 59.5786ZM265.125 58.5236L262.684 62.1861L262.793 62.2593L262.907 62.3258L265.125 58.5236ZM263.226 56.7301L266.889 54.2884L266.838 54.2116L266.783 54.1371L263.226 56.7301ZM254.997 45.4416L252.146 42.0882L249.034 44.734L251.44 48.0346L254.997 45.4416ZM301.523 5.87906V1.4772H299.904L298.671 2.52567L301.523 5.87906ZM322.939 5.87906H327.341V1.4772H322.939V5.87906ZM322.939 139.126H318.537V143.527H322.939V139.126ZM350.369 139.126H345.967V158.643H350.369H354.771V139.126H350.369ZM350.369 158.643V154.241H265.969V158.643V163.045H350.369V158.643ZM265.969 158.643H270.371V139.126H265.969H261.567V158.643H265.969ZM265.969 139.126V143.527H296.881V139.126V134.724H265.969V139.126ZM296.881 139.126H301.283V50.1891H296.881H292.479V139.126H296.881ZM296.881 50.1891H301.283C301.283 46.7603 301.385 43.2212 301.592 39.5713L297.197 39.3226L292.802 39.0738C292.587 42.8793 292.479 46.5845 292.479 50.1891H296.881ZM297.197 39.3226L294.373 35.9463L272.429 54.3033L275.253 57.6796L278.078 61.0558L300.022 42.6988L297.197 39.3226ZM275.253 57.6796L272.551 54.2049C271.68 54.882 270.998 55.171 270.5 55.2815L271.455 59.5786L272.41 63.8756C274.445 63.4235 276.294 62.4465 277.956 61.1542L275.253 57.6796ZM271.455 59.5786L270.69 55.2437C269.984 55.3682 269.359 55.3597 268.785 55.2521L267.974 59.5786L267.163 63.905C268.839 64.2194 270.535 64.2109 272.22 63.9134L271.455 59.5786ZM267.974 59.5786L268.837 55.2622C268.211 55.137 267.727 54.9451 267.343 54.7213L265.125 58.5236L262.907 62.3258C264.212 63.0867 265.627 63.5982 267.111 63.8949L267.974 59.5786ZM265.125 58.5236L267.567 54.861C267.054 54.5191 266.9 54.3057 266.889 54.2884L263.226 56.7301L259.564 59.1718C260.396 60.4204 261.508 61.4027 262.684 62.1861L265.125 58.5236ZM263.226 56.7301L266.783 54.1371L258.554 42.8486L254.997 45.4416L251.44 48.0346L259.669 59.3231L263.226 56.7301ZM254.997 45.4416L257.849 48.7949L304.374 9.23244L301.523 5.87906L298.671 2.52567L252.146 42.0882L254.997 45.4416ZM301.523 5.87906V10.2809H322.939V5.87906V1.4772H301.523V5.87906ZM322.939 5.87906H318.537V139.126H322.939H327.341V5.87906H322.939ZM322.939 139.126V143.527H350.369V139.126V134.724H322.939V139.126ZM436.052 138.176L437.578 142.305L437.617 142.29L437.656 142.275L436.052 138.176ZM444.175 133.007L441.112 129.845L441.087 129.869L441.063 129.894L444.175 133.007ZM449.239 125.2L445.114 123.664L449.239 125.2ZM443.964 96.3981L440.977 99.6307L443.964 96.3981ZM405.562 96.3981L408.55 99.6307H408.55L405.562 96.3981ZM400.287 125.2L396.162 126.735L400.287 125.2ZM405.246 133.007L402.133 136.119L402.158 136.144L402.183 136.168L405.246 133.007ZM413.475 138.176L411.871 142.275L411.91 142.29L411.949 142.305L413.475 138.176ZM414.741 25.8186L413.019 21.7674L414.741 25.8186ZM407.672 30.6716L404.451 27.6721L404.447 27.6763L407.672 30.6716ZM403.558 37.5291L399.405 36.0699L399.387 36.1203L399.371 36.1711L403.558 37.5291ZM403.347 54.6201L399.07 55.6631L399.085 55.7254L399.102 55.7872L403.347 54.6201ZM407.145 62.2161L403.676 64.926L403.697 64.9529L403.718 64.9793L407.145 62.2161ZM414.108 67.4911L412.257 71.4849L414.108 67.4911ZM442.382 62.2161L445.808 64.9793L445.83 64.9529L445.851 64.926L442.382 62.2161ZM446.074 54.6201L441.823 53.4794L441.813 53.5159L441.804 53.5524L446.074 54.6201ZM445.863 37.5291L441.71 38.9882L445.863 37.5291ZM441.749 30.6716L438.471 33.61L438.497 33.6386L438.523 33.6668L441.749 30.6716ZM434.786 25.8186L433.064 29.8697L434.786 25.8186ZM450.505 79.0961L448.804 75.0363L437.881 79.6133L449.142 83.2814L450.505 79.0961ZM471.078 93.0221L467.485 95.5653L467.492 95.5749L467.499 95.5844L471.078 93.0221ZM473.821 134.167L469.844 132.281L469.834 132.301L469.824 132.322L473.821 134.167ZM463.06 148.199L460.242 144.817L463.06 148.199ZM446.285 157.166L444.934 152.977L444.921 152.981L446.285 157.166ZM403.136 157.166L401.771 161.351L401.784 161.355L403.136 157.166ZM386.467 148.199L383.649 151.58L386.467 148.199ZM375.6 134.167L371.604 136.012L371.613 136.033L371.623 136.054L375.6 134.167ZM378.449 93.0221L382.028 95.5844L382.035 95.5749L382.042 95.5653L378.449 93.0221ZM399.021 79.0961L400.385 83.2814L411.645 79.6133L400.723 75.0363L399.021 79.0961ZM382.352 65.9086L378.648 68.2866L378.658 68.3027L378.669 68.3187L382.352 65.9086ZM380.348 29.1946L376.378 27.2934L376.367 27.3162L376.356 27.3392L380.348 29.1946ZM390.265 16.2181L393.148 19.5445L393.163 19.5309L393.179 19.5171L390.265 16.2181ZM405.351 7.56706L406.803 11.7226L406.817 11.7176L406.832 11.7125L405.351 7.56706ZM444.07 7.56706L442.573 11.7068L442.603 11.7176L442.633 11.7279L444.07 7.56706ZM459.262 16.2181L456.348 19.5171L456.363 19.5309L456.379 19.5445L459.262 16.2181ZM469.073 29.1946L465.081 31.0499L465.092 31.0729L465.103 31.0957L469.073 29.1946ZM467.069 65.9086L463.385 63.4984L463.375 63.5144L463.365 63.5305L467.069 65.9086ZM424.763 139.97V144.371C429.452 144.371 433.751 143.719 437.578 142.305L436.052 138.176L434.526 134.047C431.882 135.024 428.655 135.568 424.763 135.568V139.97ZM436.052 138.176L437.656 142.275C441.385 140.816 444.627 138.78 447.288 136.119L444.175 133.007L441.063 129.894C439.363 131.594 437.189 133.004 434.448 134.077L436.052 138.176ZM444.175 133.007L447.238 136.168C449.974 133.518 452.018 130.355 453.365 126.735L449.239 125.2L445.114 123.664C444.21 126.093 442.878 128.135 441.112 129.845L444.175 133.007ZM449.239 125.2L453.365 126.735C454.689 123.177 455.329 119.382 455.329 115.388H450.927H446.525C446.525 118.428 446.041 121.174 445.114 123.664L449.239 125.2ZM450.927 115.388H455.329C455.329 106.208 452.762 98.5353 446.952 93.1654L443.964 96.3981L440.977 99.6307C444.451 102.841 446.525 107.829 446.525 115.388H450.927ZM443.964 96.3981L446.952 93.1654C441.282 87.9246 433.697 85.5607 424.763 85.5607V89.9626V94.3644C432.147 94.3644 437.363 96.2908 440.977 99.6307L443.964 96.3981ZM424.763 89.9626V85.5607C415.829 85.5607 408.245 87.9246 402.575 93.1654L405.562 96.3981L408.55 99.6307C412.164 96.2908 417.38 94.3644 424.763 94.3644V89.9626ZM405.562 96.3981L402.575 93.1654C396.764 98.5353 394.197 106.208 394.197 115.388H398.599H403.001C403.001 107.829 405.076 102.841 408.55 99.6307L405.562 96.3981ZM398.599 115.388H394.197C394.197 119.382 394.838 123.177 396.162 126.735L400.287 125.2L404.413 123.664C403.486 121.174 403.001 118.428 403.001 115.388H398.599ZM400.287 125.2L396.162 126.735C397.497 130.323 399.485 133.471 402.133 136.119L405.246 133.007L408.358 129.894C406.646 128.181 405.328 126.125 404.413 123.664L400.287 125.2ZM405.246 133.007L402.183 136.168C404.896 138.797 408.151 140.82 411.871 142.275L413.475 138.176L415.079 134.077C412.328 133 410.097 131.577 408.309 129.845L405.246 133.007ZM413.475 138.176L411.949 142.305C415.775 143.719 420.074 144.371 424.763 144.371V139.97V135.568C420.872 135.568 417.645 135.024 415.001 134.047L413.475 138.176ZM424.763 24.0251V19.6232C420.455 19.6232 416.501 20.2877 413.019 21.7674L414.741 25.8186L416.462 29.8697C418.607 28.9581 421.335 28.4269 424.763 28.4269V24.0251ZM414.741 25.8186L413.019 21.7674C409.693 23.1809 406.81 25.1383 404.451 27.6721L407.672 30.6716L410.894 33.6711C412.333 32.1254 414.162 30.8475 416.462 29.8697L414.741 25.8186ZM407.672 30.6716L404.447 27.6763C402.196 30.1004 400.514 32.9127 399.405 36.0699L403.558 37.5291L407.711 38.9882C408.43 36.9407 409.492 35.1814 410.898 33.6668L407.672 30.6716ZM403.558 37.5291L399.371 36.1711C398.377 39.2352 397.89 42.4383 397.89 45.7581H402.292H406.694C406.694 43.3105 407.051 41.0276 407.745 38.8871L403.558 37.5291ZM402.292 45.7581H397.89C397.89 49.1271 398.282 52.4316 399.07 55.6631L403.347 54.6201L407.623 53.577C407.005 51.0412 406.694 48.4376 406.694 45.7581H402.292ZM403.347 54.6201L399.102 55.7872C400.027 59.1486 401.552 62.2073 403.676 64.926L407.145 62.2161L410.614 59.5061C409.221 57.7235 408.214 55.7182 407.591 53.4529L403.347 54.6201ZM407.145 62.2161L403.718 64.9793C405.954 67.7521 408.844 69.9031 412.257 71.4849L414.108 67.4911L415.959 63.4972C413.605 62.4063 411.852 61.0407 410.571 59.4528L407.145 62.2161ZM414.108 67.4911L412.257 71.4849C415.878 73.1629 420.104 73.8974 424.763 73.8974V69.4956V65.0937C420.983 65.0937 418.105 64.4919 415.959 63.4972L414.108 67.4911ZM424.763 69.4956V73.8974C429.423 73.8974 433.649 73.1629 437.27 71.4849L435.419 67.4911L433.568 63.4972C431.422 64.4919 428.544 65.0937 424.763 65.0937V69.4956ZM435.419 67.4911L437.27 71.4849C440.683 69.9031 443.572 67.7521 445.808 64.9793L442.382 62.2161L438.955 59.4528C437.675 61.0407 435.922 62.4063 433.568 63.4972L435.419 67.4911ZM442.382 62.2161L445.851 64.926C447.994 62.1824 449.494 59.0891 450.345 55.6877L446.074 54.6201L441.804 53.5524C441.247 55.7777 440.286 57.7484 438.913 59.5061L442.382 62.2161ZM446.074 54.6201L450.326 55.7607C451.201 52.5002 451.637 49.1625 451.637 45.7581H447.235H442.833C442.833 48.4023 442.495 50.9726 441.823 53.4794L446.074 54.6201ZM447.235 45.7581H451.637C451.637 42.4003 451.103 39.1621 450.016 36.0699L445.863 37.5291L441.71 38.9882C442.452 41.1006 442.833 43.3485 442.833 45.7581H447.235ZM445.863 37.5291L450.016 36.0699C448.907 32.9127 447.225 30.1004 444.974 27.6763L441.749 30.6716L438.523 33.6668C439.929 35.1814 440.991 36.9407 441.71 38.9882L445.863 37.5291ZM441.749 30.6716L445.026 27.7331C442.719 25.1599 439.845 23.186 436.507 21.7674L434.786 25.8186L433.064 29.8697C435.353 30.8425 437.121 32.1039 438.471 33.61L441.749 30.6716ZM434.786 25.8186L436.507 21.7674C433.026 20.2877 429.072 19.6232 424.763 19.6232V24.0251V28.4269C428.191 28.4269 430.919 28.9581 433.064 29.8697L434.786 25.8186ZM450.505 79.0961L449.142 83.2814C457.773 86.0932 463.735 90.2673 467.485 95.5653L471.078 93.0221L474.671 90.4788C469.559 83.2575 461.805 78.1476 451.869 74.9107L450.505 79.0961ZM471.078 93.0221L467.499 95.5844C471.302 100.897 473.322 107.554 473.322 115.81H477.724H482.126C482.126 106.061 479.715 97.5253 474.657 90.4597L471.078 93.0221ZM477.724 115.81H473.322C473.322 121.983 472.136 127.447 469.844 132.281L473.821 134.167L477.798 136.054C480.71 129.915 482.126 123.141 482.126 115.81H477.724ZM473.821 134.167L469.824 132.322C467.566 137.215 464.382 141.367 460.242 144.817L463.06 148.199L465.878 151.58C471.022 147.293 475.012 142.091 477.817 136.012L473.821 134.167ZM463.06 148.199L460.242 144.817C456.088 148.279 451.012 151.016 444.934 152.977L446.285 157.166L447.637 161.355C454.641 159.096 460.748 155.855 465.878 151.58L463.06 148.199ZM446.285 157.166L444.921 152.981C438.954 154.927 432.249 155.929 424.763 155.929V160.331V164.733C433.033 164.733 440.675 163.625 447.65 161.351L446.285 157.166ZM424.763 160.331V155.929C417.279 155.929 410.533 154.927 404.487 152.977L403.136 157.166L401.784 161.355C408.82 163.625 416.493 164.733 424.763 164.733V160.331ZM403.136 157.166L404.5 152.981C398.494 151.022 393.447 148.285 389.285 144.817L386.467 148.199L383.649 151.58C388.771 155.848 394.836 159.09 401.771 161.351L403.136 157.166ZM386.467 148.199L389.285 144.817C385.135 141.359 381.908 137.193 379.577 132.281L375.6 134.167L371.623 136.054C374.498 142.113 378.514 147.301 383.649 151.58L386.467 148.199ZM375.6 134.167L379.597 132.322C377.362 127.479 376.204 122 376.204 115.81H371.802H367.4C367.4 123.124 368.775 129.883 371.604 136.012L375.6 134.167ZM371.802 115.81H376.204C376.204 107.554 378.224 100.897 382.028 95.5844L378.449 93.0221L374.87 90.4597C369.811 97.5253 367.4 106.061 367.4 115.81H371.802ZM378.449 93.0221L382.042 95.5653C385.792 90.2673 391.753 86.0932 400.385 83.2814L399.021 79.0961L397.658 74.9107C387.721 78.1476 379.968 83.2575 374.856 90.4788L378.449 93.0221ZM399.021 79.0961L400.723 75.0363C394.002 72.2201 389.202 68.3378 386.036 63.4984L382.352 65.9086L378.669 68.3187C382.958 74.8733 389.27 79.7827 397.32 83.1559L399.021 79.0961ZM382.352 65.9086L386.056 63.5305C382.933 58.6651 381.268 52.6687 381.268 45.3361H376.866H372.464C372.464 54.0394 374.457 61.7581 378.648 68.2866L382.352 65.9086ZM376.866 45.3361H381.268C381.268 40.1786 382.301 35.4348 384.34 31.0499L380.348 29.1946L376.356 27.3392C373.752 32.9416 372.464 38.9589 372.464 45.3361H376.866ZM380.348 29.1946L384.318 31.0957C386.446 26.6515 389.38 22.8098 393.148 19.5445L390.265 16.2181L387.382 12.8916C382.71 16.9409 379.032 21.7503 376.378 27.2934L380.348 29.1946ZM390.265 16.2181L393.179 19.5171C396.931 16.2025 401.451 13.5927 406.803 11.7226L405.351 7.56706L403.899 3.41155C397.576 5.62075 392.038 8.77831 387.351 12.919L390.265 16.2181ZM405.351 7.56706L406.832 11.7125C412.211 9.79143 418.174 8.80392 424.763 8.80392V4.40207V0.000205994C417.286 0.000205994 410.308 1.1227 403.871 3.42165L405.351 7.56706ZM424.763 4.40207V8.80392C431.354 8.80392 437.275 9.79168 442.573 11.7068L444.07 7.56706L445.566 3.42732C439.189 1.12245 432.24 0.000205994 424.763 0.000205994V4.40207ZM444.07 7.56706L442.633 11.7279C448.057 13.6004 452.604 16.2104 456.348 19.5171L459.262 16.2181L462.176 12.919C457.479 8.77034 451.898 5.61303 445.506 3.40619L444.07 7.56706ZM459.262 16.2181L456.379 19.5445C460.136 22.8011 463.026 26.6274 465.081 31.0499L469.073 29.1946L473.065 27.3392C470.479 21.7744 466.827 16.9497 462.145 12.8916L459.262 16.2181ZM469.073 29.1946L465.103 31.0957C467.198 35.471 468.258 40.1986 468.258 45.3361H472.66H477.062C477.062 38.9389 475.731 32.9054 473.043 27.2934L469.073 29.1946ZM472.66 45.3361H468.258C468.258 52.6529 466.566 58.6374 463.385 63.4984L467.069 65.9086L470.752 68.3187C475.027 61.7857 477.062 54.0552 477.062 45.3361H472.66ZM467.069 65.9086L463.365 63.5305C460.272 68.3479 455.52 72.2218 448.804 75.0363L450.505 79.0961L452.207 83.1559C460.26 79.7809 466.551 74.8632 470.773 68.2866L467.069 65.9086Z" fill="#A1A1AA" mask="url(#path-1-outside-1_213_3035)"/>
</svg>
