<svg width="481" height="165" viewBox="0 0 481 165" fill="none" xmlns="http://www.w3.org/2000/svg">
<mask id="path-1-outside-1_213_3040" maskUnits="userSpaceOnUse" x="-0.323242" y="-0.356934" width="481" height="166" fill="black">
<rect fill="white" x="-0.323242" y="-0.356934" width="481" height="166"/>
<path d="M99.8793 134.378C102.693 134.378 104.908 135.187 106.526 136.805C108.214 138.352 109.058 140.427 109.058 143.029V158.643H4.40179V149.992C4.40179 148.234 4.75346 146.405 5.45679 144.506C6.23046 142.537 7.42612 140.778 9.04379 139.231L55.3583 92.8111C59.2266 88.8724 62.673 85.1096 65.6973 81.5226C68.792 77.9356 71.3591 74.3837 73.3988 70.8671C75.4385 67.3504 76.9858 63.7986 78.0408 60.2116C79.1661 56.5542 79.7288 52.7211 79.7288 48.7121C79.7288 45.0547 79.2013 41.8546 78.1463 39.1116C77.0913 36.2982 75.5791 33.9421 73.6098 32.0431C71.7108 30.1441 69.3898 28.7374 66.6468 27.8231C63.9741 26.8384 60.9498 26.3461 57.5738 26.3461C54.4791 26.3461 51.5955 26.8032 48.9228 27.7176C46.3205 28.5616 43.9995 29.7924 41.9598 31.4101C39.9201 32.9574 38.197 34.7861 36.7903 36.8961C35.3836 39.0061 34.3286 41.3271 33.6253 43.8591C32.4296 47.0944 30.8823 49.2396 28.9833 50.2946C27.0843 51.3496 24.3413 51.5957 20.7543 51.0331L7.03929 48.6066C8.09429 41.2919 10.134 34.8916 13.1583 29.4056C16.1826 23.8492 19.9455 19.2424 24.4468 15.5851C29.0185 11.8574 34.2231 9.07923 40.0608 7.25056C45.9688 5.35156 52.2988 4.40207 59.0508 4.40207C66.0841 4.40207 72.5196 5.45706 78.3573 7.56706C84.195 9.60672 89.1886 12.5256 93.3383 16.3236C97.488 20.1216 100.723 24.6932 103.044 30.0386C105.365 35.3839 106.526 41.3271 106.526 47.8681C106.526 53.4947 105.682 58.6994 103.994 63.4821C102.376 68.2647 100.161 72.8364 97.3473 77.1971C94.6043 81.5577 91.369 85.7777 87.6413 89.8571C83.9136 93.9364 80.0101 98.0861 75.9308 102.306L41.5378 137.438C44.8435 136.453 48.114 135.714 51.3493 135.222C54.655 134.659 57.7848 134.378 60.7388 134.378H99.8793ZM235.885 82.3666C235.885 95.6596 234.443 107.229 231.56 117.076C228.746 126.852 224.808 134.941 219.744 141.341C214.75 147.741 208.807 152.524 201.914 155.689C195.092 158.784 187.707 160.331 179.759 160.331C171.812 160.331 164.427 158.784 157.604 155.689C150.852 152.524 144.979 147.741 139.986 141.341C134.992 134.941 131.089 126.852 128.275 117.076C125.462 107.229 124.055 95.6596 124.055 82.3666C124.055 69.0032 125.462 57.4334 128.275 47.6571C131.089 37.8807 134.992 29.7924 139.986 23.3921C144.979 16.9917 150.852 12.2442 157.604 9.14956C164.427 5.98456 171.812 4.40207 179.759 4.40207C187.707 4.40207 195.092 5.98456 201.914 9.14956C208.807 12.2442 214.75 16.9917 219.744 23.3921C224.808 29.7924 228.746 37.8807 231.56 47.6571C234.443 57.4334 235.885 69.0032 235.885 82.3666ZM208.983 82.3666C208.983 71.3242 208.174 62.1809 206.556 54.9366C204.939 47.6922 202.758 41.9249 200.015 37.6346C197.343 33.3442 194.248 30.3551 190.731 28.6671C187.215 26.9087 183.557 26.0296 179.759 26.0296C176.032 26.0296 172.409 26.9087 168.893 28.6671C165.446 30.3551 162.387 33.3442 159.714 37.6346C157.042 41.9249 154.896 47.6922 153.279 54.9366C151.731 62.1809 150.958 71.3242 150.958 82.3666C150.958 93.4089 151.731 102.552 153.279 109.797C154.896 117.041 157.042 122.808 159.714 127.099C162.387 131.389 165.446 134.413 168.893 136.172C172.409 137.86 176.032 138.704 179.759 138.704C183.557 138.704 187.215 137.86 190.731 136.172C194.248 134.413 197.343 131.389 200.015 127.099C202.758 122.808 204.939 117.041 206.556 109.797C208.174 102.552 208.983 93.4089 208.983 82.3666ZM344.672 134.378C347.486 134.378 349.701 135.187 351.319 136.805C353.007 138.352 353.851 140.427 353.851 143.029V158.643H249.195V149.992C249.195 148.234 249.546 146.405 250.25 144.506C251.023 142.537 252.219 140.778 253.837 139.231L300.151 92.8111C304.02 88.8724 307.466 85.1096 310.49 81.5226C313.585 77.9356 316.152 74.3837 318.192 70.8671C320.231 67.3504 321.779 63.7986 322.834 60.2116C323.959 56.5542 324.522 52.7211 324.522 48.7121C324.522 45.0547 323.994 41.8546 322.939 39.1116C321.884 36.2982 320.372 33.9421 318.403 32.0431C316.504 30.1441 314.183 28.7374 311.44 27.8231C308.767 26.8384 305.743 26.3461 302.367 26.3461C299.272 26.3461 296.388 26.8032 293.716 27.7176C291.113 28.5616 288.792 29.7924 286.753 31.4101C284.713 32.9574 282.99 34.7861 281.583 36.8961C280.177 39.0061 279.122 41.3271 278.418 43.8591C277.223 47.0944 275.675 49.2396 273.776 50.2946C271.877 51.3496 269.134 51.5957 265.547 51.0331L251.832 48.6066C252.887 41.2919 254.927 34.8916 257.951 29.4056C260.976 23.8492 264.738 19.2424 269.24 15.5851C273.811 11.8574 279.016 9.07923 284.854 7.25056C290.762 5.35156 297.092 4.40207 303.844 4.40207C310.877 4.40207 317.313 5.45706 323.15 7.56706C328.988 9.60672 333.982 12.5256 338.131 16.3236C342.281 20.1216 345.516 24.6932 347.837 30.0386C350.158 35.3839 351.319 41.3271 351.319 47.8681C351.319 53.4947 350.475 58.6994 348.787 63.4821C347.169 68.2647 344.954 72.8364 342.14 77.1971C339.397 81.5577 336.162 85.7777 332.434 89.8571C328.707 93.9364 324.803 98.0861 320.724 102.306L286.331 137.438C289.636 136.453 292.907 135.714 296.142 135.222C299.448 134.659 302.578 134.378 305.532 134.378H344.672ZM374.967 48.6066C376.022 41.2919 378.062 34.8916 381.086 29.4056C384.111 23.8492 387.873 19.2424 392.375 15.5851C396.946 11.8574 402.151 9.07923 407.989 7.25056C413.897 5.35156 420.227 4.40207 426.979 4.40207C434.012 4.40207 440.342 5.4219 445.969 7.46156C451.666 9.43089 456.519 12.2091 460.528 15.7961C464.537 19.3127 467.596 23.4624 469.706 28.2451C471.887 33.0277 472.977 38.1972 472.977 43.7536C472.977 48.6066 472.414 52.8969 471.289 56.6246C470.234 60.2819 468.686 63.4821 466.647 66.2251C464.607 68.9681 462.075 71.2891 459.051 73.1881C456.026 75.0871 452.615 76.6696 448.817 77.9356C457.961 80.8192 464.783 85.2151 469.284 91.1231C473.786 97.0311 476.036 104.451 476.036 113.384C476.036 120.98 474.63 127.696 471.816 133.534C469.003 139.372 465.205 144.295 460.422 148.304C455.64 152.243 450.083 155.232 443.753 157.272C437.494 159.311 430.847 160.331 423.814 160.331C416.147 160.331 409.466 159.452 403.769 157.694C398.072 155.935 393.113 153.333 388.893 149.887C384.673 146.44 381.086 142.22 378.132 137.227C375.178 132.233 372.646 126.466 370.536 119.925L382.036 115.177C385.06 113.911 387.873 113.595 390.476 114.228C393.148 114.79 395.083 116.197 396.278 118.448C397.544 120.909 398.916 123.336 400.393 125.727C401.94 128.118 403.769 130.264 405.879 132.163C407.989 133.991 410.45 135.503 413.264 136.699C416.147 137.824 419.559 138.387 423.497 138.387C427.928 138.387 431.797 137.684 435.102 136.277C438.408 134.8 441.151 132.901 443.331 130.58C445.582 128.259 447.235 125.692 448.29 122.879C449.415 119.995 449.978 117.111 449.978 114.228C449.978 110.57 449.591 107.265 448.817 104.311C448.044 101.286 446.426 98.7191 443.964 96.6091C441.503 94.4991 437.951 92.8462 433.309 91.6506C428.737 90.4549 422.583 89.8571 414.846 89.8571V71.2891C421.247 71.2187 426.557 70.6209 430.777 69.4956C434.997 68.3702 438.338 66.8229 440.799 64.8536C443.331 62.8139 445.09 60.3874 446.074 57.5741C447.059 54.7607 447.551 51.6661 447.551 48.2901C447.551 41.1161 445.547 35.6652 441.538 31.9376C437.529 28.2099 432.183 26.3461 425.502 26.3461C422.407 26.3461 419.559 26.8032 416.956 27.7176C414.354 28.5616 411.998 29.7924 409.888 31.4101C407.848 32.9574 406.125 34.7861 404.718 36.8961C403.312 39.0061 402.257 41.3271 401.553 43.8591C400.358 47.0944 398.775 49.2396 396.806 50.2946C394.907 51.3496 392.199 51.5957 388.682 51.0331L374.967 48.6066Z"/>
</mask>
<path d="M106.526 136.805L103.413 139.917L103.481 139.985L103.551 140.049L106.526 136.805ZM109.058 158.643V163.045H113.46V158.643H109.058ZM4.40179 158.643H-6.91414e-05V163.045H4.40179V158.643ZM5.45679 144.506L1.35975 142.897L1.34396 142.937L1.32895 142.977L5.45679 144.506ZM9.04379 139.231L12.0865 142.412L12.1236 142.376L12.1599 142.34L9.04379 139.231ZM55.3583 92.8111L58.4744 95.9201L58.4866 95.9078L58.4988 95.8955L55.3583 92.8111ZM65.6973 81.5226L62.3644 78.6471L62.3481 78.666L62.332 78.6851L65.6973 81.5226ZM73.3988 70.8671L69.591 68.6586L73.3988 70.8671ZM78.0408 60.2116L73.8336 58.917L73.8255 58.9432L73.8178 58.9695L78.0408 60.2116ZM78.1463 39.1116L74.0247 40.6572L74.0312 40.6745L74.0378 40.6917L78.1463 39.1116ZM73.6098 32.0431L70.4972 35.1556L70.5255 35.1839L70.5543 35.2117L73.6098 32.0431ZM66.6468 27.8231L65.125 31.9535L65.1896 31.9773L65.2548 31.999L66.6468 27.8231ZM48.9228 27.7176L50.2808 31.9047L50.3143 31.8938L50.3476 31.8824L48.9228 27.7176ZM41.9598 31.4101L44.6202 34.917L44.658 34.8883L44.6951 34.8589L41.9598 31.4101ZM33.6253 43.8591L37.7542 45.385L37.8176 45.2134L37.8666 45.0372L33.6253 43.8591ZM20.7543 51.0331L19.9874 55.3676L20.0297 55.3751L20.0721 55.3817L20.7543 51.0331ZM7.03929 48.6066L2.68251 47.9782L2.07384 52.1983L6.27241 52.9411L7.03929 48.6066ZM13.1583 29.4056L17.0132 31.5307L17.0189 31.5204L17.0245 31.51L13.1583 29.4056ZM24.4468 15.5851L27.2226 19.0014L27.2285 18.9966L24.4468 15.5851ZM40.0608 7.25056L41.3766 11.4511L41.3922 11.4463L41.4078 11.4413L40.0608 7.25056ZM78.3573 7.56706L76.861 11.7068L76.8831 11.7148L76.9054 11.7226L78.3573 7.56706ZM103.044 30.0386L107.082 28.2854V28.2854L103.044 30.0386ZM103.994 63.4821L99.8429 62.017L99.8333 62.0443L99.824 62.0717L103.994 63.4821ZM97.3473 77.1971L93.6484 74.8107L93.6347 74.8319L93.6213 74.8533L97.3473 77.1971ZM87.6413 89.8571L90.8908 92.8264L87.6413 89.8571ZM75.9308 102.306L79.0763 105.385L79.086 105.375L79.0957 105.365L75.9308 102.306ZM41.5378 137.438L38.3923 134.358L26.4945 146.512L42.7944 141.656L41.5378 137.438ZM51.3493 135.222L52.0115 139.574L52.0498 139.568L52.0879 139.562L51.3493 135.222ZM99.8793 134.378V138.78C101.81 138.78 102.803 139.307 103.413 139.917L106.526 136.805L109.638 133.692C107.014 131.067 103.575 129.976 99.8793 129.976V134.378ZM106.526 136.805L103.551 140.049C104.201 140.645 104.656 141.475 104.656 143.029H109.058H113.46C113.46 139.379 112.226 136.059 109.5 133.56L106.526 136.805ZM109.058 143.029H104.656V158.643H109.058H113.46V143.029H109.058ZM109.058 158.643V154.241H4.40179V158.643V163.045H109.058V158.643ZM4.40179 158.643H8.80365V149.992H4.40179H-6.91414e-05V158.643H4.40179ZM4.40179 149.992H8.80365C8.80365 148.828 9.03544 147.518 9.58463 146.035L5.45679 144.506L1.32895 142.977C0.47147 145.292 -6.91414e-05 147.639 -6.91414e-05 149.992H4.40179ZM5.45679 144.506L9.55383 146.116C10.0807 144.775 10.9027 143.544 12.0865 142.412L9.04379 139.231L6.00112 136.05C3.94954 138.012 2.38023 140.299 1.35975 142.897L5.45679 144.506ZM9.04379 139.231L12.1599 142.34L58.4744 95.9201L55.3583 92.8111L52.2422 89.702L5.92767 136.122L9.04379 139.231ZM55.3583 92.8111L58.4988 95.8955C62.432 91.8908 65.9553 88.0454 69.0626 84.36L65.6973 81.5226L62.332 78.6851C59.3906 82.1737 56.0213 85.854 52.2178 89.7266L55.3583 92.8111ZM65.6973 81.5226L69.0302 84.398C72.275 80.637 75.0094 76.8638 77.2065 73.0756L73.3988 70.8671L69.591 68.6586C67.7089 71.9037 65.3089 75.2342 62.3644 78.6471L65.6973 81.5226ZM73.3988 70.8671L77.2065 73.0756C79.4075 69.2808 81.1013 65.4062 82.2638 61.4536L78.0408 60.2116L73.8178 58.9695C72.8703 62.191 71.4694 65.42 69.591 68.6586L73.3988 70.8671ZM78.0408 60.2116L82.248 61.5061C83.5084 57.4097 84.1307 53.1388 84.1307 48.7121H79.7288H75.3269C75.3269 52.3033 74.8238 55.6987 73.8336 58.917L78.0408 60.2116ZM79.7288 48.7121H84.1307C84.1307 44.6417 83.5447 40.8852 82.2547 37.5314L78.1463 39.1116L74.0378 40.6917C74.8579 42.824 75.3269 45.4677 75.3269 48.7121H79.7288ZM78.1463 39.1116L82.2679 37.566C81.0057 34.2001 79.1512 31.2715 76.6653 28.8744L73.6098 32.0431L70.5543 35.2117C72.0071 36.6126 73.1769 38.3964 74.0247 40.6572L78.1463 39.1116ZM73.6098 32.0431L76.7224 28.9305C74.3037 26.5118 71.3793 24.7606 68.0388 23.6471L66.6468 27.8231L65.2548 31.999C67.4003 32.7142 69.1179 33.7763 70.4972 35.1556L73.6098 32.0431ZM66.6468 27.8231L68.1685 23.6926C64.9276 22.4986 61.3751 21.9442 57.5738 21.9442V26.3461V30.7479C60.5245 30.7479 63.0206 31.1782 65.125 31.9535L66.6468 27.8231ZM57.5738 26.3461V21.9442C54.0405 21.9442 50.671 22.4672 47.498 23.5527L48.9228 27.7176L50.3476 31.8824C52.5199 31.1393 54.9177 30.7479 57.5738 30.7479V26.3461ZM48.9228 27.7176L47.5648 23.5304C44.4887 24.5281 41.6962 26.0009 39.2245 27.9612L41.9598 31.4101L44.6951 34.8589C46.3027 33.5839 48.1522 32.5951 50.2808 31.9047L48.9228 27.7176ZM41.9598 31.4101L39.2994 27.9031C36.8724 29.7443 34.8093 31.9319 33.1277 34.4543L36.7903 36.8961L40.4529 39.3378C41.5846 37.6402 42.9678 36.1705 44.6202 34.917L41.9598 31.4101ZM36.7903 36.8961L33.1277 34.4543C31.4532 36.9662 30.2076 39.7162 29.384 42.6809L33.6253 43.8591L37.8666 45.0372C38.4497 42.9379 39.3141 41.0459 40.4529 39.3378L36.7903 36.8961ZM33.6253 43.8591L29.4964 42.3332C28.4629 45.1295 27.4178 46.1288 26.8456 46.4466L28.9833 50.2946L31.121 54.1425C34.3468 52.3504 36.3963 49.0593 37.7542 45.385L33.6253 43.8591ZM28.9833 50.2946L26.8456 46.4466C26.2132 46.798 24.6484 47.1882 21.4364 46.6844L20.7543 51.0331L20.0721 55.3817C24.0342 56.0032 27.9554 55.9011 31.121 54.1425L28.9833 50.2946ZM20.7543 51.0331L21.5212 46.6985L7.80617 44.272L7.03929 48.6066L6.27241 52.9411L19.9874 55.3676L20.7543 51.0331ZM7.03929 48.6066L11.3961 49.2349C12.3887 42.353 14.2865 36.4768 17.0132 31.5307L13.1583 29.4056L9.3034 27.2804C5.98144 33.3063 3.79992 40.2308 2.68251 47.9782L7.03929 48.6066ZM13.1583 29.4056L17.0245 31.51C19.7995 26.4119 23.2057 22.2651 27.2226 19.0014L24.4468 15.5851L21.671 12.1687C16.6852 16.2197 12.5658 21.2866 9.29205 27.3012L13.1583 29.4056ZM24.4468 15.5851L27.2285 18.9966C31.3501 15.6359 36.0532 13.1187 41.3766 11.4511L40.0608 7.25056L38.7449 3.04998C32.3931 5.03972 26.6868 8.0789 21.6651 12.1735L24.4468 15.5851ZM40.0608 7.25056L41.4078 11.4413C46.8439 9.69394 52.7159 8.80392 59.0508 8.80392V4.40207V0.000205994C51.8816 0.000205994 45.0937 1.00918 38.7138 3.05986L40.0608 7.25056ZM59.0508 4.40207V8.80392C65.6411 8.80392 71.5625 9.79168 76.861 11.7068L78.3573 7.56706L79.8536 3.42732C73.4768 1.12245 66.5272 0.000205994 59.0508 0.000205994V4.40207ZM78.3573 7.56706L76.9054 11.7226C82.2363 13.5852 86.6985 16.2137 90.3663 19.5707L93.3383 16.3236L96.3102 13.0764C91.6788 8.83744 86.1536 5.62827 79.8092 3.41155L78.3573 7.56706ZM93.3383 16.3236L90.3663 19.5707C94.0433 22.936 96.9229 26.9928 99.0066 31.7917L103.044 30.0386L107.082 28.2854C104.524 22.3936 100.933 17.3071 96.3102 13.0764L93.3383 16.3236ZM103.044 30.0386L99.0066 31.7917C101.06 36.5198 102.124 41.8563 102.124 47.8681H106.526H110.928C110.928 40.7978 109.671 34.248 107.082 28.2854L103.044 30.0386ZM106.526 47.8681H102.124C102.124 53.05 101.348 57.7535 99.8429 62.017L103.994 63.4821L108.145 64.9471C110.016 59.6452 110.928 53.9395 110.928 47.8681H106.526ZM103.994 63.4821L99.824 62.0717C98.3257 66.5014 96.2707 70.7462 93.6484 74.8107L97.3473 77.1971L101.046 79.5834C104.051 74.9266 106.427 70.0281 108.164 64.8924L103.994 63.4821ZM97.3473 77.1971L93.6213 74.8533C91.0278 78.9762 87.955 82.9883 84.3918 86.8877L87.6413 89.8571L90.8908 92.8264C94.7829 88.5671 98.1807 84.1392 101.073 79.5408L97.3473 77.1971ZM87.6413 89.8571L84.3918 86.8877C80.6936 90.9348 76.8184 95.0545 72.7659 99.2467L75.9308 102.306L79.0957 105.365C83.2019 101.118 87.1337 96.938 90.8908 92.8264L87.6413 89.8571ZM75.9308 102.306L72.7853 99.2267L38.3923 134.358L41.5378 137.438L44.6833 140.517L79.0763 105.385L75.9308 102.306ZM41.5378 137.438L42.7944 141.656C45.9157 140.727 48.9876 140.034 52.0115 139.574L51.3493 135.222L50.6871 130.87C47.2403 131.395 43.7712 132.179 40.2812 133.219L41.5378 137.438ZM51.3493 135.222L52.0879 139.562C55.1816 139.035 58.0628 138.78 60.7388 138.78V134.378V129.976C57.5068 129.976 54.1283 130.284 50.6107 130.883L51.3493 135.222ZM60.7388 134.378V138.78H99.8793V134.378V129.976H60.7388V134.378ZM231.56 117.076L227.335 115.839L227.332 115.849L227.33 115.859L231.56 117.076ZM219.744 141.341L216.292 138.61L216.282 138.622L216.273 138.633L219.744 141.341ZM201.914 155.689L203.733 159.698L203.742 159.694L203.751 159.689L201.914 155.689ZM157.604 155.689L155.736 159.675L155.761 159.686L155.786 159.698L157.604 155.689ZM139.986 141.341L136.515 144.049L139.986 141.341ZM128.275 117.076L124.043 118.285L124.045 118.293L128.275 117.076ZM128.275 47.6571L132.505 48.8744L128.275 47.6571ZM139.986 23.3921L136.515 20.6843V20.6843L139.986 23.3921ZM157.604 9.14956L159.438 13.1511L159.448 13.1469L159.457 13.1426L157.604 9.14956ZM201.914 9.14956L200.062 13.1426L200.087 13.1541L200.111 13.1652L201.914 9.14956ZM219.744 23.3921L216.273 26.0998L216.282 26.1116L216.292 26.1233L219.744 23.3921ZM231.56 47.6571L227.33 48.8744L227.334 48.8884L227.338 48.9024L231.56 47.6571ZM206.556 54.9366L202.26 55.8959L206.556 54.9366ZM200.015 37.6346L196.279 39.962L196.293 39.9839L196.307 40.0057L200.015 37.6346ZM190.731 28.6671L188.763 32.6042L188.794 32.6201L188.826 32.6354L190.731 28.6671ZM168.893 28.6671L170.829 32.6202L170.845 32.6123L170.861 32.6042L168.893 28.6671ZM159.714 37.6346L155.978 35.3071L159.714 37.6346ZM153.279 54.9366L148.983 53.9772L148.978 53.9972L148.974 54.0171L153.279 54.9366ZM153.279 109.797L148.974 110.716L148.978 110.736L148.983 110.756L153.279 109.797ZM159.714 127.099L155.978 129.426L159.714 127.099ZM168.893 136.172L166.892 140.093L166.94 140.117L166.988 140.14L168.893 136.172ZM190.731 136.172L192.636 140.14L192.668 140.125L192.7 140.109L190.731 136.172ZM200.015 127.099L196.307 124.727L196.293 124.749L196.279 124.771L200.015 127.099ZM206.556 109.797L202.26 108.837L206.556 109.797ZM235.885 82.3666H231.483C231.483 95.3574 230.073 106.492 227.335 115.839L231.56 117.076L235.784 118.313C238.814 107.966 240.287 95.9618 240.287 82.3666H235.885ZM231.56 117.076L227.33 115.859C224.637 125.216 220.924 132.755 216.292 138.61L219.744 141.341L223.196 144.072C228.691 137.127 232.856 128.489 235.79 118.293L231.56 117.076ZM219.744 141.341L216.273 138.633C211.682 144.518 206.285 148.838 200.077 151.689L201.914 155.689L203.751 159.689C211.329 156.21 217.819 150.964 223.214 144.049L219.744 141.341ZM201.914 155.689L200.096 151.68C193.879 154.5 187.119 155.929 179.759 155.929V160.331V164.733C188.295 164.733 196.305 163.067 203.733 159.698L201.914 155.689ZM179.759 160.331V155.929C172.4 155.929 165.639 154.5 159.423 151.68L157.604 155.689L155.786 159.698C163.214 163.067 171.223 164.733 179.759 164.733V160.331ZM157.604 155.689L159.473 151.703C153.402 148.858 148.062 144.537 143.456 138.633L139.986 141.341L136.515 144.049C141.897 150.946 148.302 156.19 155.736 159.675L157.604 155.689ZM139.986 141.341L143.456 138.633C138.884 132.773 135.201 125.226 132.505 115.859L128.275 117.076L124.045 118.293C126.976 128.479 131.1 137.108 136.515 144.049L139.986 141.341ZM128.275 117.076L132.508 115.867C129.834 106.51 128.457 95.3652 128.457 82.3666H124.055H119.653C119.653 95.9539 121.089 107.949 124.043 118.285L128.275 117.076ZM124.055 82.3666H128.457C128.457 69.2941 129.835 58.1535 132.505 48.8744L128.275 47.6571L124.045 46.4397C121.089 56.7133 119.653 68.7124 119.653 82.3666H124.055ZM128.275 47.6571L132.505 48.8744C135.201 39.5069 138.884 31.9597 143.456 26.0998L139.986 23.3921L136.515 20.6843C131.1 27.625 126.976 36.2545 124.045 46.4397L128.275 47.6571ZM139.986 23.3921L143.456 26.0998C148.057 20.2029 153.386 15.9252 159.438 13.1511L157.604 9.14956L155.77 5.14799C148.319 8.56324 141.902 13.7806 136.515 20.6843L139.986 23.3921ZM157.604 9.14956L159.457 13.1426C165.666 10.2621 172.414 8.80392 179.759 8.80392V4.40207V0.000205994C171.209 0.000205994 163.187 1.70701 155.752 5.15647L157.604 9.14956ZM179.759 4.40207V8.80392C187.104 8.80392 193.853 10.2621 200.062 13.1426L201.914 9.14956L203.767 5.15647C196.331 1.70701 188.31 0.000205994 179.759 0.000205994V4.40207ZM201.914 9.14956L200.111 13.1652C206.302 15.9446 211.687 20.2216 216.273 26.0998L219.744 23.3921L223.214 20.6843C217.813 13.7619 211.312 8.54386 203.717 5.13388L201.914 9.14956ZM219.744 23.3921L216.292 26.1233C220.924 31.9786 224.637 39.5174 227.33 48.8744L231.56 47.6571L235.79 46.4397C232.856 36.244 228.691 27.6062 223.196 20.6608L219.744 23.3921ZM231.56 47.6571L227.338 48.9024C230.072 58.1713 231.483 69.3018 231.483 82.3666H235.885H240.287C240.287 68.7046 238.815 56.6955 235.782 46.4117L231.56 47.6571ZM208.983 82.3666H213.385C213.385 71.1417 212.565 61.6489 210.852 53.9772L206.556 54.9366L202.26 55.8959C203.782 62.7129 204.581 71.5068 204.581 82.3666H208.983ZM206.556 54.9366L210.852 53.9772C209.169 46.4404 206.839 40.136 203.724 35.2634L200.015 37.6346L196.307 40.0057C198.677 43.7138 200.708 48.9441 202.26 55.8959L206.556 54.9366ZM200.015 37.6346L203.751 35.3071C200.765 30.5138 197.1 26.8413 192.636 24.6987L190.731 28.6671L188.826 32.6354C191.396 33.8689 193.92 36.1747 196.279 39.962L200.015 37.6346ZM190.731 28.6671L192.7 24.7299C188.594 22.6771 184.265 21.6277 179.759 21.6277V26.0296V30.4314C182.849 30.4314 185.835 31.1404 188.763 32.6042L190.731 28.6671ZM179.759 26.0296V21.6277C175.311 21.6277 171.018 22.6832 166.924 24.7299L168.893 28.6671L170.861 32.6042C173.801 31.1343 176.752 30.4314 179.759 30.4314V26.0296ZM168.893 28.6671L166.957 24.7139C162.57 26.8626 158.951 30.534 155.978 35.3071L159.714 37.6346L163.45 39.962C165.822 36.1544 168.323 33.8475 170.829 32.6202L168.893 28.6671ZM159.714 37.6346L155.978 35.3071C152.951 40.1664 150.663 46.4541 148.983 53.9772L153.279 54.9366L157.575 55.8959C159.13 48.9303 161.132 43.6833 163.45 39.962L159.714 37.6346ZM153.279 54.9366L148.974 54.0171C147.339 61.6719 146.556 71.15 146.556 82.3666H150.958H155.36C155.36 71.4984 156.124 62.6899 157.584 55.856L153.279 54.9366ZM150.958 82.3666H146.556C146.556 93.5831 147.339 103.061 148.974 110.716L153.279 109.797L157.584 108.877C156.124 102.043 155.36 93.2347 155.36 82.3666H150.958ZM153.279 109.797L148.983 110.756C150.663 118.279 152.951 124.567 155.978 129.426L159.714 127.099L163.45 124.771C161.132 121.05 159.13 115.803 157.575 108.837L153.279 109.797ZM159.714 127.099L155.978 129.426C158.947 134.192 162.546 137.875 166.892 140.093L168.893 136.172L170.893 132.251C168.346 130.951 165.827 128.586 163.45 124.771L159.714 127.099ZM168.893 136.172L166.988 140.14C171.071 142.1 175.341 143.105 179.759 143.105V138.704V134.302C176.722 134.302 173.748 133.619 170.798 132.203L168.893 136.172ZM179.759 138.704V143.105C184.235 143.105 188.542 142.105 192.636 140.14L190.731 136.172L188.826 132.203C185.888 133.614 182.88 134.302 179.759 134.302V138.704ZM190.731 136.172L192.7 140.109C197.123 137.897 200.77 134.212 203.751 129.426L200.015 127.099L196.279 124.771C193.915 128.566 191.373 130.929 188.763 132.234L190.731 136.172ZM200.015 127.099L203.724 129.47C206.839 124.597 209.169 118.293 210.852 110.756L206.556 109.797L202.26 108.837C200.708 115.789 198.677 121.019 196.307 124.727L200.015 127.099ZM206.556 109.797L210.852 110.756C212.565 103.084 213.385 93.5914 213.385 82.3666H208.983H204.581C204.581 93.2263 203.782 102.02 202.26 108.837L206.556 109.797ZM351.319 136.805L348.206 139.917L348.274 139.985L348.344 140.049L351.319 136.805ZM353.851 158.643V163.045H358.253V158.643H353.851ZM249.195 158.643H244.793V163.045H249.195V158.643ZM250.25 144.506L246.153 142.897L246.137 142.937L246.122 142.977L250.25 144.506ZM253.837 139.231L256.879 142.412L256.917 142.376L256.953 142.34L253.837 139.231ZM300.151 92.8111L303.267 95.9201L303.28 95.9078L303.292 95.8955L300.151 92.8111ZM310.49 81.5226L307.157 78.6471L307.141 78.666L307.125 78.6851L310.49 81.5226ZM318.192 70.8671L314.384 68.6586L318.192 70.8671ZM322.834 60.2116L318.627 58.917L318.618 58.9432L318.611 58.9695L322.834 60.2116ZM322.939 39.1116L318.818 40.6572L318.824 40.6745L318.831 40.6917L322.939 39.1116ZM318.403 32.0431L315.29 35.1556L315.318 35.1839L315.347 35.2117L318.403 32.0431ZM311.44 27.8231L309.918 31.9535L309.983 31.9773L310.048 31.999L311.44 27.8231ZM293.716 27.7176L295.074 31.9047L295.107 31.8938L295.141 31.8824L293.716 27.7176ZM286.753 31.4101L289.413 34.917L289.451 34.8883L289.488 34.8589L286.753 31.4101ZM278.418 43.8591L282.547 45.385L282.611 45.2134L282.66 45.0372L278.418 43.8591ZM265.547 51.0331L264.78 55.3676L264.823 55.3751L264.865 55.3817L265.547 51.0331ZM251.832 48.6066L247.475 47.9782L246.867 52.1983L251.065 52.9411L251.832 48.6066ZM257.951 29.4056L261.806 31.5307L261.812 31.5204L261.818 31.51L257.951 29.4056ZM269.24 15.5851L272.016 19.0014L272.021 18.9966L269.24 15.5851ZM284.854 7.25056L286.17 11.4511L286.185 11.4463L286.201 11.4413L284.854 7.25056ZM323.15 7.56706L321.654 11.7068L321.676 11.7148L321.698 11.7226L323.15 7.56706ZM347.837 30.0386L351.875 28.2854V28.2854L347.837 30.0386ZM348.787 63.4821L344.636 62.017L344.626 62.0443L344.617 62.0717L348.787 63.4821ZM342.14 77.1971L338.441 74.8107L338.428 74.8319L338.414 74.8533L342.14 77.1971ZM332.434 89.8571L335.684 92.8264H335.684L332.434 89.8571ZM320.724 102.306L323.869 105.385L323.879 105.375L323.889 105.365L320.724 102.306ZM286.331 137.438L283.185 134.358L271.287 146.512L287.587 141.656L286.331 137.438ZM296.142 135.222L296.804 139.574L296.843 139.568L296.881 139.562L296.142 135.222ZM344.672 134.378V138.78C346.603 138.78 347.596 139.307 348.206 139.917L351.319 136.805L354.431 133.692C351.806 131.067 348.368 129.976 344.672 129.976V134.378ZM351.319 136.805L348.344 140.049C348.994 140.645 349.449 141.475 349.449 143.029H353.851H358.253C358.253 139.379 357.019 136.059 354.293 133.56L351.319 136.805ZM353.851 143.029H349.449V158.643H353.851H358.253V143.029H353.851ZM353.851 158.643V154.241H249.195V158.643V163.045H353.851V158.643ZM249.195 158.643H253.597V149.992H249.195H244.793V158.643H249.195ZM249.195 149.992H253.597C253.597 148.828 253.828 147.518 254.378 146.035L250.25 144.506L246.122 142.977C245.264 145.292 244.793 147.639 244.793 149.992H249.195ZM250.25 144.506L254.347 146.116C254.874 144.775 255.696 143.544 256.879 142.412L253.837 139.231L250.794 136.05C248.743 138.012 247.173 140.299 246.153 142.897L250.25 144.506ZM253.837 139.231L256.953 142.34L303.267 95.9201L300.151 92.8111L297.035 89.702L250.721 136.122L253.837 139.231ZM300.151 92.8111L303.292 95.8955C307.225 91.8908 310.748 88.0454 313.856 84.36L310.49 81.5226L307.125 78.6851C304.184 82.1737 300.814 85.854 297.011 89.7266L300.151 92.8111ZM310.49 81.5226L313.823 84.398C317.068 80.637 319.802 76.8638 322 73.0756L318.192 70.8671L314.384 68.6586C312.502 71.9037 310.102 75.2342 307.157 78.6471L310.49 81.5226ZM318.192 70.8671L322 73.0756C324.2 69.2808 325.894 65.4062 327.057 61.4536L322.834 60.2116L318.611 58.9695C317.663 62.191 316.262 65.42 314.384 68.6586L318.192 70.8671ZM322.834 60.2116L327.041 61.5061C328.301 57.4097 328.924 53.1388 328.924 48.7121H324.522H320.12C320.12 52.3033 319.617 55.6987 318.627 58.917L322.834 60.2116ZM324.522 48.7121H328.924C328.924 44.6417 328.338 40.8852 327.048 37.5314L322.939 39.1116L318.831 40.6917C319.651 42.824 320.12 45.4677 320.12 48.7121H324.522ZM322.939 39.1116L327.061 37.566C325.799 34.2001 323.944 31.2715 321.458 28.8744L318.403 32.0431L315.347 35.2117C316.8 36.6126 317.97 38.3964 318.818 40.6572L322.939 39.1116ZM318.403 32.0431L321.515 28.9305C319.097 26.5118 316.172 24.7606 312.832 23.6471L311.44 27.8231L310.048 31.999C312.193 32.7142 313.911 33.7763 315.29 35.1556L318.403 32.0431ZM311.44 27.8231L312.962 23.6926C309.721 22.4986 306.168 21.9442 302.367 21.9442V26.3461V30.7479C305.317 30.7479 307.814 31.1782 309.918 31.9535L311.44 27.8231ZM302.367 26.3461V21.9442C298.833 21.9442 295.464 22.4672 292.291 23.5527L293.716 27.7176L295.141 31.8824C297.313 31.1393 299.711 30.7479 302.367 30.7479V26.3461ZM293.716 27.7176L292.358 23.5304C289.282 24.5281 286.489 26.0009 284.017 27.9612L286.753 31.4101L289.488 34.8589C291.096 33.5839 292.945 32.5951 295.074 31.9047L293.716 27.7176ZM286.753 31.4101L284.092 27.9031C281.665 29.7443 279.602 31.9319 277.921 34.4543L281.583 36.8961L285.246 39.3378C286.378 37.6402 287.761 36.1705 289.413 34.917L286.753 31.4101ZM281.583 36.8961L277.921 34.4543C276.246 36.9662 275.001 39.7162 274.177 42.6809L278.418 43.8591L282.66 45.0372C283.243 42.9379 284.107 41.0459 285.246 39.3378L281.583 36.8961ZM278.418 43.8591L274.289 42.3332C273.256 45.1295 272.211 46.1288 271.639 46.4466L273.776 50.2946L275.914 54.1425C279.14 52.3504 281.189 49.0593 282.547 45.385L278.418 43.8591ZM273.776 50.2946L271.639 46.4466C271.006 46.798 269.441 47.1882 266.229 46.6844L265.547 51.0331L264.865 55.3817C268.827 56.0032 272.748 55.9011 275.914 54.1425L273.776 50.2946ZM265.547 51.0331L266.314 46.6985L252.599 44.272L251.832 48.6066L251.065 52.9411L264.78 55.3676L265.547 51.0331ZM251.832 48.6066L256.189 49.2349C257.182 42.353 259.079 36.4768 261.806 31.5307L257.951 29.4056L254.096 27.2804C250.774 33.3063 248.593 40.2308 247.475 47.9782L251.832 48.6066ZM257.951 29.4056L261.818 31.51C264.592 26.4119 267.999 22.2651 272.016 19.0014L269.24 15.5851L266.464 12.1687C261.478 16.2197 257.359 21.2866 254.085 27.3012L257.951 29.4056ZM269.24 15.5851L272.021 18.9966C276.143 15.6359 280.846 13.1187 286.17 11.4511L284.854 7.25056L283.538 3.04998C277.186 5.03972 271.48 8.0789 266.458 12.1735L269.24 15.5851ZM284.854 7.25056L286.201 11.4413C291.637 9.69394 297.509 8.80392 303.844 8.80392V4.40207V0.000205994C296.675 0.000205994 289.887 1.00918 283.507 3.05986L284.854 7.25056ZM303.844 4.40207V8.80392C310.434 8.80392 316.355 9.79168 321.654 11.7068L323.15 7.56706L324.647 3.42732C318.27 1.12245 311.32 0.000205994 303.844 0.000205994V4.40207ZM323.15 7.56706L321.698 11.7226C327.029 13.5852 331.491 16.2137 335.159 19.5707L338.131 16.3236L341.103 13.0764C336.472 8.83744 330.947 5.62827 324.602 3.41155L323.15 7.56706ZM338.131 16.3236L335.159 19.5707C338.836 22.936 341.716 26.9928 343.8 31.7917L347.837 30.0386L351.875 28.2854C349.317 22.3936 345.726 17.3071 341.103 13.0764L338.131 16.3236ZM347.837 30.0386L343.8 31.7917C345.853 36.5198 346.917 41.8563 346.917 47.8681H351.319H355.721C355.721 40.7978 354.464 34.248 351.875 28.2854L347.837 30.0386ZM351.319 47.8681H346.917C346.917 53.05 346.141 57.7535 344.636 62.017L348.787 63.4821L352.938 64.9471C354.809 59.6452 355.721 53.9395 355.721 47.8681H351.319ZM348.787 63.4821L344.617 62.0717C343.119 66.5014 341.064 70.7462 338.441 74.8107L342.14 77.1971L345.839 79.5834C348.844 74.9266 351.22 70.0281 352.957 64.8924L348.787 63.4821ZM342.14 77.1971L338.414 74.8533C335.821 78.9762 332.748 82.9883 329.185 86.8877L332.434 89.8571L335.684 92.8264C339.576 88.5671 342.974 84.1392 345.866 79.5408L342.14 77.1971ZM332.434 89.8571L329.185 86.8877C325.487 90.9348 321.611 95.0545 317.559 99.2467L320.724 102.306L323.889 105.365C327.995 101.118 331.927 96.938 335.684 92.8264L332.434 89.8571ZM320.724 102.306L317.578 99.2267L283.185 134.358L286.331 137.438L289.476 140.517L323.869 105.385L320.724 102.306ZM286.331 137.438L287.587 141.656C290.709 140.727 293.781 140.034 296.804 139.574L296.142 135.222L295.48 130.87C292.033 131.395 288.564 132.179 285.074 133.219L286.331 137.438ZM296.142 135.222L296.881 139.562C299.975 139.035 302.856 138.78 305.532 138.78V134.378V129.976C302.3 129.976 298.921 130.284 295.404 130.883L296.142 135.222ZM305.532 134.378V138.78H344.672V134.378V129.976H305.532V134.378ZM374.967 48.6066L370.61 47.9782L370.002 52.1983L374.2 52.9411L374.967 48.6066ZM381.086 29.4056L384.941 31.5307L384.947 31.5204L384.952 31.51L381.086 29.4056ZM392.375 15.5851L395.151 19.0014L395.156 18.9966L392.375 15.5851ZM407.989 7.25056L409.305 11.4511L409.32 11.4463L409.336 11.4413L407.989 7.25056ZM445.969 7.46156L444.469 11.5999L444.5 11.6111L444.531 11.6219L445.969 7.46156ZM460.528 15.7961L457.593 19.0765L457.609 19.0909L457.625 19.1052L460.528 15.7961ZM469.706 28.2451L465.679 30.0218L465.69 30.0465L465.701 30.071L469.706 28.2451ZM471.289 56.6246L467.075 55.3524L467.067 55.3784L467.059 55.4045L471.289 56.6246ZM466.647 66.2251L463.114 63.5985V63.5985L466.647 66.2251ZM459.051 73.1881L456.71 69.4602H456.71L459.051 73.1881ZM448.817 77.9356L447.425 73.7596L434.55 78.0514L447.493 82.1336L448.817 77.9356ZM469.284 91.1231L472.786 88.4553H472.786L469.284 91.1231ZM471.816 133.534L467.851 131.623L471.816 133.534ZM460.422 148.304L463.221 151.702L463.235 151.69L463.25 151.678L460.422 148.304ZM443.753 157.272L442.403 153.082L442.396 153.084L442.389 153.086L443.753 157.272ZM388.893 149.887L391.678 146.477L388.893 149.887ZM378.132 137.227L381.921 134.985L378.132 137.227ZM370.536 119.925L368.856 115.856L365.099 117.407L366.347 121.276L370.536 119.925ZM382.036 115.177L383.716 119.246L383.725 119.242L383.735 119.238L382.036 115.177ZM390.476 114.228L389.435 118.505L389.502 118.521L389.569 118.535L390.476 114.228ZM396.278 118.448L400.193 116.434L400.179 116.408L400.166 116.382L396.278 118.448ZM400.393 125.727L396.648 128.04L396.672 128.08L396.697 128.118L400.393 125.727ZM405.879 132.163L402.934 135.434L402.965 135.462L402.996 135.489L405.879 132.163ZM413.264 136.699L411.542 140.75L411.602 140.776L411.663 140.8L413.264 136.699ZM435.102 136.277L436.826 140.327L436.862 140.312L436.898 140.296L435.102 136.277ZM443.331 130.58L440.171 127.516L440.147 127.541L440.123 127.566L443.331 130.58ZM448.29 122.879L444.189 121.278L444.178 121.306L444.168 121.333L448.29 122.879ZM448.817 104.311L444.553 105.401L444.556 105.414L444.559 105.426L448.817 104.311ZM443.964 96.6091L441.1 99.9512L443.964 96.6091ZM433.309 91.6506L432.195 95.9092L432.203 95.9112L432.211 95.9133L433.309 91.6506ZM414.846 89.8571H410.444V94.2589H414.846V89.8571ZM414.846 71.2891L414.798 66.8875L410.444 66.9353V71.2891H414.846ZM430.777 69.4956L431.911 73.7488L430.777 69.4956ZM440.799 64.8536L443.549 68.2908L443.555 68.2862L443.561 68.2815L440.799 64.8536ZM446.074 57.5741L450.229 59.0282V59.0282L446.074 57.5741ZM441.538 31.9376L444.535 28.7139V28.7139L441.538 31.9376ZM416.956 27.7176L418.314 31.9047L418.365 31.8882L418.415 31.8705L416.956 27.7176ZM409.888 31.4101L412.548 34.917L412.557 34.9102L412.566 34.9034L409.888 31.4101ZM401.553 43.8591L405.682 45.385L405.746 45.2134L405.795 45.0372L401.553 43.8591ZM396.806 50.2946L394.727 46.4144L394.697 46.4303L394.668 46.4466L396.806 50.2946ZM388.682 51.0331L387.915 55.3676L387.951 55.3739L387.987 55.3796L388.682 51.0331ZM374.967 48.6066L379.324 49.2349C380.317 42.353 382.214 36.4768 384.941 31.5307L381.086 29.4056L377.231 27.2804C373.909 33.3063 371.728 40.2308 370.61 47.9782L374.967 48.6066ZM381.086 29.4056L384.952 31.51C387.727 26.4119 391.134 22.2651 395.151 19.0014L392.375 15.5851L389.599 12.1687C384.613 16.2197 380.494 21.2866 377.22 27.3012L381.086 29.4056ZM392.375 15.5851L395.156 18.9966C399.278 15.6359 403.981 13.1187 409.305 11.4511L407.989 7.25056L406.673 3.04998C400.321 5.03972 394.615 8.0789 389.593 12.1735L392.375 15.5851ZM407.989 7.25056L409.336 11.4413C414.772 9.69394 420.644 8.80392 426.979 8.80392V4.40207V0.000205994C419.81 0.000205994 413.022 1.00918 406.642 3.05986L407.989 7.25056ZM426.979 4.40207V8.80392C433.588 8.80392 439.399 9.76215 444.469 11.5999L445.969 7.46156L447.469 3.32321C441.285 1.08164 434.436 0.000205994 426.979 0.000205994V4.40207ZM445.969 7.46156L444.531 11.6219C449.742 13.4232 454.069 15.9236 457.593 19.0765L460.528 15.7961L463.463 12.5156C458.969 8.49449 453.59 5.43856 447.407 3.30125L445.969 7.46156ZM460.528 15.7961L457.625 19.1052C461.162 22.2079 463.833 25.8378 465.679 30.0218L469.706 28.2451L473.734 26.4683C471.359 21.087 467.911 16.4176 463.431 12.4869L460.528 15.7961ZM469.706 28.2451L465.701 30.071C467.605 34.2479 468.575 38.7905 468.575 43.7536H472.977H477.379C477.379 37.6039 476.168 31.8075 473.712 26.4191L469.706 28.2451ZM472.977 43.7536H468.575C468.575 48.2769 468.049 52.1242 467.075 55.3524L471.289 56.6246L475.503 57.8967C476.779 53.6696 477.379 48.9362 477.379 43.7536H472.977ZM471.289 56.6246L467.059 55.4045C466.134 58.6123 464.806 61.3241 463.114 63.5985L466.647 66.2251L470.179 68.8517C472.567 65.64 474.333 61.9514 475.518 57.8446L471.289 56.6246ZM466.647 66.2251L463.114 63.5985C461.415 65.8843 459.293 67.8381 456.71 69.4602L459.051 73.1881L461.392 76.916C464.857 74.74 467.799 72.0519 470.179 68.8517L466.647 66.2251ZM459.051 73.1881L456.71 69.4602C454.016 71.1516 450.93 72.5914 447.425 73.7596L448.817 77.9356L450.209 82.1115C454.301 80.7477 458.037 79.0225 461.392 76.9159L459.051 73.1881ZM448.817 77.9356L447.493 82.1336C456.021 84.8233 461.973 88.7898 465.783 93.7908L469.284 91.1231L472.786 88.4553C467.593 81.6403 459.9 76.8152 450.141 73.7375L448.817 77.9356ZM469.284 91.1231L465.783 93.7908C469.589 98.7862 471.634 105.214 471.634 113.384H476.036H480.438C480.438 103.688 477.982 95.2759 472.786 88.4553L469.284 91.1231ZM476.036 113.384H471.634C471.634 120.431 470.331 126.476 467.851 131.623L471.816 133.534L475.782 135.445C478.928 128.917 480.438 121.528 480.438 113.384H476.036ZM471.816 133.534L467.851 131.623C465.298 136.92 461.88 141.338 457.595 144.931L460.422 148.304L463.25 151.678C468.53 147.252 472.708 141.823 475.782 135.445L471.816 133.534ZM460.422 148.304L457.624 144.906C453.3 148.467 448.244 151.2 442.403 153.082L443.753 157.272L445.103 161.461C451.923 159.264 457.979 156.019 463.221 151.702L460.422 148.304ZM443.753 157.272L442.389 153.086C436.599 154.973 430.416 155.929 423.814 155.929V160.331V164.733C431.279 164.733 438.388 163.649 445.117 161.457L443.753 157.272ZM423.814 160.331V155.929C416.469 155.929 410.243 155.085 405.067 153.487L403.769 157.694L402.471 161.9C408.688 163.819 415.826 164.733 423.814 164.733V160.331ZM403.769 157.694L405.067 153.487C399.861 151.881 395.418 149.532 391.678 146.477L388.893 149.887L386.109 153.296C390.808 157.134 396.283 159.99 402.471 161.9L403.769 157.694ZM388.893 149.887L391.678 146.477C387.884 143.379 384.629 139.563 381.921 134.985L378.132 137.227L374.344 139.468C377.544 144.878 381.463 149.502 386.109 153.296L388.893 149.887ZM378.132 137.227L381.921 134.985C379.16 130.318 376.753 124.859 374.726 118.573L370.536 119.925L366.347 121.276C368.539 128.072 371.196 134.147 374.344 139.468L378.132 137.227ZM370.536 119.925L372.216 123.993L383.716 119.246L382.036 115.177L380.356 111.108L368.856 115.856L370.536 119.925ZM382.036 115.177L383.735 119.238C386.091 118.251 387.935 118.14 389.435 118.505L390.476 114.228L391.516 109.95C387.812 109.049 384.029 109.571 380.336 111.117L382.036 115.177ZM390.476 114.228L389.569 118.535C391.069 118.851 391.856 119.505 392.391 120.513L396.278 118.448L400.166 116.382C398.309 112.889 395.228 110.73 391.383 109.92L390.476 114.228ZM396.278 118.448L392.364 120.461C393.683 123.026 395.111 125.553 396.648 128.04L400.393 125.727L404.138 123.414C402.72 121.119 401.405 118.792 400.193 116.434L396.278 118.448ZM400.393 125.727L396.697 128.118C398.454 130.834 400.535 133.275 402.934 135.434L405.879 132.163L408.823 128.891C407.002 127.252 405.426 125.403 404.088 123.336L400.393 125.727ZM405.879 132.163L402.996 135.489C405.484 137.645 408.346 139.392 411.542 140.75L413.264 136.699L414.986 132.648C412.555 131.615 410.493 130.337 408.762 128.836L405.879 132.163ZM413.264 136.699L411.663 140.8C415.175 142.17 419.154 142.789 423.497 142.789V138.387V133.985C419.963 133.985 417.12 133.479 414.864 132.598L413.264 136.699ZM423.497 138.387V142.789C428.386 142.789 432.864 142.013 436.826 140.327L435.102 136.277L433.379 132.227C430.729 133.354 427.47 133.985 423.497 133.985V138.387ZM435.102 136.277L436.898 140.296C440.664 138.613 443.909 136.395 446.54 133.594L443.331 130.58L440.123 127.566C438.393 129.408 436.152 130.987 433.307 132.258L435.102 136.277ZM443.331 130.58L446.491 133.644C449.131 130.922 451.128 127.847 452.411 124.424L448.29 122.879L444.168 121.333C443.342 123.537 442.033 125.596 440.171 127.516L443.331 130.58ZM448.29 122.879L452.39 124.479C453.7 121.123 454.38 117.698 454.38 114.228H449.978H445.576C445.576 116.525 445.13 118.867 444.189 121.278L448.29 122.879ZM449.978 114.228H454.38C454.38 110.266 453.961 106.577 453.075 103.195L448.817 104.311L444.559 105.426C445.221 107.952 445.576 110.875 445.576 114.228H449.978ZM448.817 104.311L453.082 103.22C452.075 99.2836 449.949 95.9415 446.829 93.2669L443.964 96.6091L441.1 99.9512C442.903 101.497 444.012 103.289 444.553 105.401L448.817 104.311ZM443.964 96.6091L446.829 93.2669C443.671 90.5603 439.414 88.6775 434.407 87.3878L433.309 91.6506L432.211 95.9133C436.488 97.015 439.334 98.4378 441.1 99.9512L443.964 96.6091ZM433.309 91.6506L434.423 87.3919C429.331 86.0603 422.753 85.4552 414.846 85.4552V89.8571V94.2589C422.413 94.2589 428.143 94.8495 432.195 95.9092L433.309 91.6506ZM414.846 89.8571H419.248V71.2891H414.846H410.444V89.8571H414.846ZM414.846 71.2891L414.895 75.6907C421.508 75.618 427.214 75.0013 431.911 73.7488L430.777 69.4956L429.643 65.2423C425.899 66.2405 420.985 66.8195 414.798 66.8875L414.846 71.2891ZM430.777 69.4956L431.911 73.7488C436.508 72.523 440.465 70.758 443.549 68.2908L440.799 64.8536L438.049 61.4163C436.21 62.8878 433.486 64.2175 429.643 65.2423L430.777 69.4956ZM440.799 64.8536L443.561 68.2815C446.672 65.7752 448.949 62.6864 450.229 59.0282L446.074 57.5741L441.92 56.1199C441.231 58.0884 439.991 59.8525 438.038 61.4256L440.799 64.8536ZM446.074 57.5741L450.229 59.0282C451.397 55.69 451.953 52.0964 451.953 48.2901H447.551H443.149C443.149 51.2358 442.72 53.8315 441.92 56.1199L446.074 57.5741ZM447.551 48.2901H451.953C451.953 40.2924 449.695 33.5121 444.535 28.7139L441.538 31.9376L438.54 35.1612C441.398 37.8184 443.149 41.9398 443.149 48.2901H447.551ZM441.538 31.9376L444.535 28.7139C439.54 24.0698 433.037 21.9442 425.502 21.9442V26.3461V30.7479C431.33 30.7479 435.517 32.35 438.54 35.1612L441.538 31.9376ZM425.502 26.3461V21.9442C421.97 21.9442 418.622 22.4667 415.497 23.5646L416.956 27.7176L418.415 31.8705C420.495 31.1397 422.844 30.7479 425.502 30.7479V26.3461ZM416.956 27.7176L415.598 23.5304C412.534 24.5244 409.728 25.9855 407.21 27.9167L409.888 31.4101L412.566 34.9034C414.267 33.5992 416.174 32.5988 418.314 31.9047L416.956 27.7176ZM409.888 31.4101L407.227 27.9031C404.8 29.7443 402.737 31.9319 401.056 34.4543L404.718 36.8961L408.381 39.3378C409.513 37.6402 410.896 36.1705 412.548 34.917L409.888 31.4101ZM404.718 36.8961L401.056 34.4543C399.381 36.9662 398.135 39.7162 397.312 42.6809L401.553 43.8591L405.795 45.0372C406.378 42.9379 407.242 41.0459 408.381 39.3378L404.718 36.8961ZM401.553 43.8591L397.424 42.3332C396.407 45.0862 395.349 46.0813 394.727 46.4144L396.806 50.2946L398.884 54.1747C402.201 52.3978 404.308 49.1025 405.682 45.385L401.553 43.8591ZM396.806 50.2946L394.668 46.4466C394.029 46.8015 392.494 47.1852 389.378 46.6865L388.682 51.0331L387.987 55.3796C391.903 56.0063 395.784 55.8976 398.943 54.1425L396.806 50.2946ZM388.682 51.0331L389.449 46.6985L375.734 44.272L374.967 48.6066L374.2 52.9411L387.915 55.3676L388.682 51.0331Z" fill="#A1A1AA" mask="url(#path-1-outside-1_213_3040)"/>
</svg>
