<svg width="56" height="56" viewBox="0 0 56 56" fill="none" xmlns="http://www.w3.org/2000/svg">
<g clip-path="url(#clip0_180_2320)">
<path d="M27.9746 5.24512V10.4904" stroke="#80AE3B" stroke-width="3.49683" stroke-linecap="round" stroke-linejoin="round"/>
<path d="M27.9746 45.4587V50.704" stroke="#80AE3B" stroke-width="3.49683" stroke-linecap="round" stroke-linejoin="round"/>
<path d="M40.2135 19.2325C40.2135 18.0845 39.9874 16.9477 39.548 15.8871C39.1087 14.8265 38.4648 13.8627 37.653 13.051C36.8412 12.2392 35.8775 11.5953 34.8169 11.1559C33.7562 10.7166 32.6195 10.4905 31.4714 10.4905H24.4778C22.1592 10.4905 19.9357 11.4115 18.2962 13.051C16.6568 14.6904 15.7357 16.914 15.7357 19.2325C15.7357 21.5511 16.6568 23.7747 18.2962 25.4141C19.9357 27.0536 22.1592 27.9746 24.4778 27.9746H33.2198C35.5384 27.9746 37.762 28.8956 39.4014 30.5351C41.0409 32.1746 41.9619 34.3981 41.9619 36.7167C41.9619 39.0352 41.0409 41.2588 39.4014 42.8982C37.762 44.5377 35.5384 45.4587 33.2198 45.4587H22.7294C20.4108 45.4587 18.1873 44.5377 16.5478 42.8982C14.9083 41.2588 13.9873 39.0352 13.9873 36.7167" stroke="#80AE3B" stroke-width="3.49683" stroke-linecap="round" stroke-linejoin="round"/>
</g>
<defs>
<clipPath id="clip0_180_2320">
<rect width="55.9492" height="55.9492" fill="white"/>
</clipPath>
</defs>
</svg>
