<svg width="16" height="22" viewBox="0 0 16 22" fill="none" xmlns="http://www.w3.org/2000/svg">
<path d="M1.932 9.083C0.954 9.083 0.75 9.275 0.75 10.194V11.861C0.75 12.781 0.954 12.972 1.932 12.972H4.295V19.639C4.295 20.559 4.5 20.75 5.477 20.75H7.841C8.819 20.75 9.023 20.558 9.023 19.639V12.972H11.677C12.418 12.972 12.609 12.837 12.813 12.166L13.32 10.5C13.669 9.351 13.453 9.083 12.183 9.083H9.023V6.306C9.023 5.692 9.552 5.194 10.204 5.194H13.568C14.546 5.194 14.75 5.003 14.75 4.084V1.86C14.75 0.941 14.546 0.75 13.568 0.75H10.204C6.941 0.75 4.295 3.237 4.295 6.306V9.083H1.932Z" stroke="#438BCF" stroke-width="1.5" stroke-linecap="round" stroke-linejoin="round"/>
</svg>
