<svg width="20" height="22" viewBox="0 0 20 22" fill="none" xmlns="http://www.w3.org/2000/svg">
<path fill-rule="evenodd" clip-rule="evenodd" d="M14.25 5C13.84 5 13.5 4.66 13.5 4.25V3.026C12.726 3 11.817 3 10.75 3H8.75C7.682 3 6.774 3 6 3.026V4.25C6 4.66 5.66 5 5.25 5C4.84 5 4.5 4.66 4.5 4.25V3.134C3.555 3.257 2.906 3.494 2.45 3.95C1.848 4.552 1.628 5.49 1.547 7H17.953C17.872 5.49 17.651 4.552 17.05 3.95C16.594 3.494 15.945 3.257 15 3.134V4.25C15 4.66 14.66 5 14.25 5ZM17.994 8.5C17.9993 9.02867 18.0013 9.612 18 10.25V11.25C18 11.66 18.34 12 18.75 12C19.16 12 19.5 11.66 19.5 11.25V10.25C19.5 6.27 19.5 4.28 18.11 2.89C17.338 2.118 16.38 1.775 15 1.622V0.75C15 0.34 14.66 0 14.25 0C13.84 0 13.5 0.34 13.5 0.75V1.525C12.704 1.5 11.795 1.5 10.75 1.5H8.75C7.704 1.5 6.796 1.5 6 1.525V0.75C6 0.34 5.66 0 5.25 0C4.84 0 4.5 0.34 4.5 0.75V1.622C3.12 1.775 2.162 2.118 1.39 2.89C-1.19209e-07 4.28 0 6.28 0 10.25V12.25C0 16.23 -1.19209e-07 18.22 1.39 19.61C2.78 21 4.77 21 8.75 21C9.16 21 9.5 20.66 9.5 20.25C9.5 19.84 9.16 19.5 8.75 19.5C5.19 19.5 3.4 19.5 2.45 18.55C1.5 17.6 1.5 15.81 1.5 12.25V10.25C1.49933 9.61267 1.501 9.02933 1.505 8.5H17.994ZM14.75 21.5C12.13 21.5 10 19.37 10 16.75C10 14.13 12.13 12 14.75 12C17.37 12 19.5 14.13 19.5 16.75C19.5 19.37 17.37 21.5 14.75 21.5ZM14.75 13.5C12.96 13.5 11.5 14.96 11.5 16.75C11.5 18.54 12.96 20 14.75 20C16.54 20 18 18.54 18 16.75C18 14.96 16.54 13.5 14.75 13.5ZM15.22 18.28C15.37 18.43 15.56 18.5 15.75 18.5C15.94 18.5 16.13 18.43 16.28 18.28C16.57 17.99 16.57 17.51 16.28 17.22L15.5 16.44V14.75C15.5 14.34 15.16 14 14.75 14C14.34 14 14 14.34 14 14.75V16.75C14 16.95 14.08 17.14 14.22 17.28L15.22 18.28Z" fill="#438BCF"/>
</svg>
