<svg width="40" height="40" viewBox="0 0 40 40" fill="none" xmlns="http://www.w3.org/2000/svg">
<g clip-path="url(#clip0_213_3199)">
<path d="M31.25 23.75L25 30L15 27.5L6.25 21.25" stroke="#2F76B9" stroke-width="2.5" stroke-linecap="round" stroke-linejoin="round"/>
<path d="M11.3564 11.0359L20.0002 8.75L28.6439 11.0359" stroke="#2F76B9" stroke-width="2.5" stroke-linecap="round" stroke-linejoin="round"/>
<path d="M5.37 9.44069L1.3825 17.4188C1.23431 17.7151 1.20982 18.0582 1.31441 18.3725C1.41901 18.6869 1.64413 18.9469 1.94031 19.0954L6.24969 21.2501L11.3559 11.036L7.04813 8.88288C6.90132 8.80926 6.74145 8.76529 6.57765 8.75348C6.41385 8.74167 6.24932 8.76226 6.09348 8.81406C5.93763 8.86586 5.79353 8.94787 5.66939 9.05539C5.54525 9.16291 5.44352 9.29384 5.37 9.44069Z" stroke="#2F76B9" stroke-width="2.5" stroke-linecap="round" stroke-linejoin="round"/>
<path d="M33.7498 21.2501L38.0592 19.0954C38.3554 18.9469 38.5805 18.6869 38.6851 18.3725C38.7897 18.0582 38.7652 17.7151 38.617 17.4188L34.6295 9.44069C34.556 9.29384 34.4542 9.16291 34.3301 9.05539C34.206 8.94787 34.0619 8.86586 33.906 8.81406C33.7502 8.76226 33.5856 8.74167 33.4218 8.75348C33.258 8.76529 33.0982 8.80926 32.9514 8.88288L28.6436 11.036L33.7498 21.2501Z" stroke="#2F76B9" stroke-width="2.5" stroke-linecap="round" stroke-linejoin="round"/>
<path d="M28.7502 11.25H22.5002L15.3659 18.1703C15.2332 18.3029 15.1321 18.4636 15.07 18.6405C15.0079 18.8174 14.9864 19.0061 15.0072 19.1925C15.0279 19.3788 15.0902 19.5582 15.1897 19.7171C15.2891 19.8761 15.423 20.0107 15.5815 20.1109C18.3174 21.8594 22.0315 21.7391 25.0002 18.75L31.2502 23.75L33.7502 21.25" stroke="#2F76B9" stroke-width="2.5" stroke-linecap="round" stroke-linejoin="round"/>
<path d="M19.3844 33.75L12.8656 32.1203L8.75 29.1797" stroke="#2F76B9" stroke-width="2.5" stroke-linecap="round" stroke-linejoin="round"/>
</g>
<defs>
<clipPath id="clip0_213_3199">
<rect width="40" height="40" fill="white"/>
</clipPath>
</defs>
</svg>
