<svg width="56" height="56" viewBox="0 0 56 56" fill="none" xmlns="http://www.w3.org/2000/svg">
<g clip-path="url(#clip0_180_2321)">
<path d="M48.9554 43.7102V45.4586C48.9554 47.3134 48.2186 49.0923 46.907 50.4039C45.5955 51.7154 43.8166 52.4523 41.9618 52.4523H29.7229" stroke="#80AE3B" stroke-width="3.49683" stroke-linecap="round" stroke-linejoin="round"/>
<path d="M48.9556 27.9746H41.9619C41.0345 27.9746 40.1451 28.343 39.4893 28.9988C38.8335 29.6546 38.4651 30.544 38.4651 31.4714V40.2135C38.4651 41.1409 38.8335 42.0303 39.4893 42.6861C40.1451 43.3419 41.0345 43.7103 41.9619 43.7103H48.9556V27.9746ZM48.9556 27.9746C48.9556 25.2193 48.4129 22.4911 47.3585 19.9455C46.3041 17.4 44.7586 15.0871 42.8104 13.1388C40.8621 11.1906 38.5492 9.64512 36.0037 8.59073C33.4581 7.53634 30.7299 6.99365 27.9746 6.99365C25.2193 6.99365 22.4911 7.53634 19.9455 8.59073C17.4 9.64512 15.0871 11.1906 13.1388 13.1388C11.1906 15.0871 9.64512 17.4 8.59073 19.9455C7.53634 22.4911 6.99365 25.2193 6.99365 27.9746M6.99365 27.9746V40.2135C6.99365 41.1409 7.36207 42.0303 8.01785 42.6861C8.67363 43.3419 9.56306 43.7103 10.4905 43.7103H13.9873C14.9147 43.7103 15.8041 43.3419 16.4599 42.6861C17.1157 42.0303 17.4841 41.1409 17.4841 40.2135V31.4714C17.4841 30.544 17.1157 29.6546 16.4599 28.9988C15.8041 28.343 14.9147 27.9746 13.9873 27.9746H6.99365Z" stroke="#80AE3B" stroke-width="3.49683" stroke-linecap="round" stroke-linejoin="round"/>
</g>
<defs>
<clipPath id="clip0_180_2321">
<rect width="55.9492" height="55.9492" fill="white"/>
</clipPath>
</defs>
</svg>
