<svg width="22" height="19" viewBox="0 0 22 19" fill="none" xmlns="http://www.w3.org/2000/svg">
<path d="M0.750244 3.24951L7.66324 7.16651C10.2122 8.61051 11.2882 8.61051 13.8372 7.16651L20.7502 3.24951" stroke="#438BCF" stroke-width="1.5" stroke-linecap="round" stroke-linejoin="round"/>
<path d="M0.7663 10.7256C0.8313 13.7906 0.8643 15.3236 1.9953 16.4586C3.1263 17.5946 4.7003 17.6336 7.8493 17.7126C9.7893 17.7626 11.7113 17.7626 13.6513 17.7126C16.8003 17.6336 18.3743 17.5946 19.5053 16.4586C20.6363 15.3236 20.6693 13.7906 20.7353 10.7256C20.7553 9.7396 20.7553 8.7596 20.7353 7.7736C20.6693 4.7086 20.6363 3.1756 19.5053 2.0406C18.3743 0.904596 16.8003 0.865596 13.6513 0.786596C11.7176 0.737801 9.78299 0.737801 7.8493 0.786596C4.7003 0.865596 3.1263 0.904596 1.9953 2.0406C0.8643 3.1756 0.8313 4.7086 0.7653 7.7736C0.744249 8.75748 0.745249 9.74171 0.7663 10.7256Z" stroke="#438BCF" stroke-width="1.5" stroke-linecap="round" stroke-linejoin="round"/>
</svg>
