<svg width="40" height="40" viewBox="0 0 40 40" fill="none" xmlns="http://www.w3.org/2000/svg">
<g clip-path="url(#clip0_213_3198)">
<path d="M13.75 36.25H26.25" stroke="#2F76B9" stroke-width="2.5" stroke-linecap="round" stroke-linejoin="round"/>
<path d="M20 31.25V22.5" stroke="#2F76B9" stroke-width="2.5" stroke-linecap="round" stroke-linejoin="round"/>
<path d="M15 17.5L20 22.5L25 17.5" stroke="#2F76B9" stroke-width="2.5" stroke-linecap="round" stroke-linejoin="round"/>
<path d="M12.2971 26.0938C10.8111 24.9329 9.60748 23.4505 8.77667 21.7577C7.94585 20.065 7.50943 18.2059 7.50019 16.3203C7.46269 9.54532 12.9252 3.90625 19.6986 3.75C22.3236 3.68642 24.902 4.4511 27.0679 5.93553C29.2339 7.41997 30.8773 9.54878 31.7651 12.0199C32.6529 14.4911 32.74 17.179 32.014 19.7025C31.288 22.2259 29.7858 24.4566 27.7205 26.0781C27.265 26.4313 26.8958 26.8836 26.6411 27.4007C26.3863 27.9178 26.2527 28.4861 26.2502 29.0625V30C26.2502 30.3315 26.1185 30.6495 25.8841 30.8839C25.6497 31.1183 25.3317 31.25 25.0002 31.25H15.0002C14.6687 31.25 14.3507 31.1183 14.1163 30.8839C13.8819 30.6495 13.7502 30.3315 13.7502 30V29.0625C13.7496 28.4898 13.6184 27.9247 13.3666 27.4103C13.1148 26.8958 12.749 26.4456 12.2971 26.0938Z" stroke="#2F76B9" stroke-width="2.5" stroke-linecap="round" stroke-linejoin="round"/>
</g>
<defs>
<clipPath id="clip0_213_3198">
<rect width="40" height="40" fill="white"/>
</clipPath>
</defs>
</svg>
