<svg width="22" height="22" viewBox="0 0 22 22" fill="none" xmlns="http://www.w3.org/2000/svg">
<path d="M11.076 8.25H10.25C9.307 8.25 8.836 8.25 8.543 8.543C8.25 8.836 8.25 9.307 8.25 10.25V18.75C8.25 19.693 8.25 20.164 8.543 20.457C8.836 20.75 9.307 20.75 10.25 20.75H10.75C11.693 20.75 12.164 20.75 12.457 20.457C12.75 20.164 12.75 19.693 12.75 18.75V15.25C12.75 13.593 13.278 12.25 14.838 12.25C15.618 12.25 16.25 12.922 16.25 13.75V18.25C16.25 19.193 16.25 19.664 16.543 19.957C16.836 20.25 17.307 20.25 18.25 20.25H18.749C19.691 20.25 20.163 20.25 20.456 19.957C20.748 19.664 20.749 19.193 20.749 18.251L20.75 12.75C20.75 10.264 18.386 8.25 16.047 8.25C14.715 8.25 13.527 8.902 12.75 9.923C12.75 9.293 12.75 8.978 12.613 8.744C12.5264 8.59593 12.4031 8.47265 12.255 8.386C12.021 8.249 11.706 8.249 11.076 8.249M3.25 8.25H2.75C1.807 8.25 1.336 8.25 1.043 8.543C0.75 8.836 0.75 9.307 0.75 10.25V18.75C0.75 19.693 0.75 20.164 1.043 20.457C1.336 20.75 1.807 20.75 2.75 20.75H3.25C4.193 20.75 4.664 20.75 4.957 20.457C5.25 20.164 5.25 19.693 5.25 18.75V10.25C5.25 9.307 5.25 8.836 4.957 8.543C4.664 8.25 4.193 8.25 3.25 8.25ZM5.25 3C5.25 3.59674 5.01295 4.16903 4.59099 4.59099C4.16903 5.01295 3.59674 5.25 3 5.25C2.40326 5.25 1.83097 5.01295 1.40901 4.59099C0.987053 4.16903 0.75 3.59674 0.75 3C0.75 2.40326 0.987053 1.83097 1.40901 1.40901C1.83097 0.987053 2.40326 0.75 3 0.75C3.59674 0.75 4.16903 0.987053 4.59099 1.40901C5.01295 1.83097 5.25 2.40326 5.25 3Z" stroke="#438BCF" stroke-width="1.5" stroke-linecap="round" stroke-linejoin="round"/>
</svg>
