<svg width="20" height="22" viewBox="0 0 20 22" fill="none" xmlns="http://www.w3.org/2000/svg">
<path d="M13.25 9.75C13.25 10.2096 13.1595 10.6648 12.9836 11.0894C12.8077 11.514 12.5499 11.8999 12.2249 12.2249C11.8999 12.5499 11.514 12.8077 11.0894 12.9836C10.6648 13.1595 10.2096 13.25 9.75 13.25C9.29037 13.25 8.83525 13.1595 8.41061 12.9836C7.98597 12.8077 7.60013 12.5499 7.27513 12.2249C6.95012 11.8999 6.69231 11.514 6.51642 11.0894C6.34053 10.6648 6.25 10.2096 6.25 9.75C6.25 8.82174 6.61875 7.9315 7.27513 7.27513C7.9315 6.61875 8.82174 6.25 9.75 6.25C10.6783 6.25 11.5685 6.61875 12.2249 7.27513C12.8813 7.9315 13.25 8.82174 13.25 9.75Z" stroke="#438BCF" stroke-width="1.5" stroke-linecap="round" stroke-linejoin="round"/>
<path d="M9.75 0.75C14.62 0.75 18.75 4.783 18.75 9.676C18.75 14.646 14.553 18.135 10.677 20.506C10.394 20.6653 10.0747 20.749 9.75 20.749C9.42526 20.749 9.106 20.6653 8.823 20.506C4.953 18.113 0.75 14.665 0.75 9.677C0.75 4.783 4.88 0.75 9.75 0.75Z" stroke="#438BCF" stroke-width="1.5" stroke-linecap="round" stroke-linejoin="round"/>
</svg>
