<svg width="40" height="40" viewBox="0 0 40 40" fill="none" xmlns="http://www.w3.org/2000/svg">
<path d="M33.3337 16.6666C33.3337 24.9883 24.102 33.655 21.002 36.3316C20.7132 36.5488 20.3617 36.6662 20.0003 36.6662C19.639 36.6662 19.2875 36.5488 18.9987 36.3316C15.8987 33.655 6.66699 24.9883 6.66699 16.6666C6.66699 13.1304 8.07175 9.73904 10.5722 7.23856C13.0727 4.73807 16.4641 3.33331 20.0003 3.33331C23.5365 3.33331 26.9279 4.73807 29.4284 7.23856C31.9289 9.73904 33.3337 13.1304 33.3337 16.6666Z" stroke="#FEFBEC" stroke-width="3.33333" stroke-linecap="round" stroke-linejoin="round"/>
<path d="M20.0003 21.6666C22.7617 21.6666 25.0003 19.4281 25.0003 16.6666C25.0003 13.9052 22.7617 11.6666 20.0003 11.6666C17.2389 11.6666 15.0003 13.9052 15.0003 16.6666C15.0003 19.4281 17.2389 21.6666 20.0003 21.6666Z" stroke="#FEFBEC" stroke-width="3.33333" stroke-linecap="round" stroke-linejoin="round"/>
</svg>
