<svg width="56" height="56" viewBox="0 0 56 56" fill="none" xmlns="http://www.w3.org/2000/svg">
<g clip-path="url(#clip0_180_2319)">
<path d="M27.9746 38.4651C37.6308 38.4651 45.4587 30.6372 45.4587 20.981C45.4587 11.3247 37.6308 3.49683 27.9746 3.49683C18.3184 3.49683 10.4905 11.3247 10.4905 20.981C10.4905 30.6372 18.3184 38.4651 27.9746 38.4651Z" stroke="#80AE3B" stroke-width="3.49683" stroke-linecap="round" stroke-linejoin="round"/>
<path d="M27.9746 31.4714C33.7683 31.4714 38.4651 26.7747 38.4651 20.981C38.4651 15.1872 33.7683 10.4905 27.9746 10.4905C22.1809 10.4905 17.4841 15.1872 17.4841 20.981C17.4841 26.7747 22.1809 31.4714 27.9746 31.4714Z" stroke="#80AE3B" stroke-width="3.49683" stroke-linecap="round" stroke-linejoin="round"/>
<path d="M38.4651 34.9683V52.4524L27.9724 47.2072L17.4841 52.4524V34.9704" stroke="#80AE3B" stroke-width="3.49683" stroke-linecap="round" stroke-linejoin="round"/>
</g>
<defs>
<clipPath id="clip0_180_2319">
<rect width="55.9492" height="55.9492" fill="white"/>
</clipPath>
</defs>
</svg>
