<svg width="40" height="40" viewBox="0 0 40 40" fill="none" xmlns="http://www.w3.org/2000/svg">
<path d="M36.6674 28.2V33.2C36.6693 33.6641 36.5742 34.1236 36.3882 34.5489C36.2023 34.9742 35.9295 35.3559 35.5875 35.6697C35.2455 35.9835 34.8417 36.2224 34.402 36.3711C33.9622 36.5198 33.4963 36.5751 33.034 36.5333C27.9054 35.976 22.979 34.2235 18.6507 31.4166C14.6237 28.8577 11.2096 25.4436 8.6507 21.4166C5.834 17.0686 4.08111 12.1183 3.53404 6.96662C3.49239 6.50574 3.54716 6.04123 3.69487 5.60267C3.84258 5.16411 4.07999 4.76111 4.39198 4.41933C4.70397 4.07755 5.08371 3.80447 5.50702 3.61749C5.93033 3.43052 6.38794 3.33373 6.8507 3.33329H11.8507C12.6595 3.32533 13.4437 3.61176 14.057 4.13918C14.6703 4.6666 15.0708 5.39904 15.184 6.19996C15.3951 7.80007 15.7865 9.37117 16.3507 10.8833C16.5749 11.4798 16.6235 12.1281 16.4905 12.7514C16.3576 13.3747 16.0488 13.9468 15.6007 14.4L13.484 16.5166C15.8566 20.6892 19.3115 24.144 23.484 26.5166L25.6007 24.4C26.0539 23.9519 26.626 23.643 27.2492 23.5101C27.8725 23.3772 28.5208 23.4257 29.1174 23.65C30.6295 24.2142 32.2006 24.6056 33.8007 24.8166C34.6103 24.9308 35.3497 25.3386 35.8783 25.9624C36.4068 26.5863 36.6876 27.3826 36.6674 28.2Z" stroke="#FEFBEC" stroke-width="3.33333" stroke-linecap="round" stroke-linejoin="round"/>
</svg>
