<svg width="22" height="22" viewBox="0 0 22 22" fill="none" xmlns="http://www.w3.org/2000/svg">
<path d="M10.75 9.75024L6.75 19.7502M8.724 15.3222C9.81196 15.8047 11.0363 15.8832 12.177 15.5437C13.3177 15.2043 14.2999 14.4691 14.9471 13.4702C15.5942 12.4714 15.8638 11.2745 15.7075 10.0947C15.5512 8.9149 14.9792 7.82953 14.0942 7.03371C13.2093 6.2379 12.0695 5.78383 10.8798 5.75313C9.69006 5.72243 8.52839 6.11712 7.6036 6.86624C6.67882 7.61537 6.05157 8.6698 5.83462 9.83999C5.61766 11.0102 5.82522 12.2194 6.42 13.2502" stroke="#438BCF" stroke-width="1.5" stroke-linecap="round" stroke-linejoin="round"/>
<path d="M10.75 20.75C16.2728 20.75 20.75 16.2728 20.75 10.75C20.75 5.22715 16.2728 0.75 10.75 0.75C5.22715 0.75 0.75 5.22715 0.75 10.75C0.75 16.2728 5.22715 20.75 10.75 20.75Z" stroke="#438BCF" stroke-width="1.5" stroke-linecap="round" stroke-linejoin="round"/>
</svg>
