<svg width="56" height="56" viewBox="0 0 56 56" fill="none" xmlns="http://www.w3.org/2000/svg">
<g clip-path="url(#clip0_180_2339)">
<path d="M11.9023 44.0468C9.89165 42.0361 11.2248 37.8115 10.202 35.3375C9.13983 32.7826 5.24524 30.7064 5.24524 27.9745C5.24524 25.2426 9.13983 23.1663 10.202 20.6115C11.2248 18.1397 9.89165 13.9129 11.9023 11.9022C13.913 9.89152 18.1398 11.2247 20.6116 10.2019C23.1774 9.13971 25.2427 5.24512 27.9746 5.24512C30.7065 5.24512 32.7827 9.13971 35.3376 10.2019C37.8116 11.2247 42.0362 9.89152 44.0469 11.9022C46.0576 13.9129 44.7244 18.1375 45.7472 20.6115C46.8094 23.1773 50.704 25.2426 50.704 27.9745C50.704 30.7064 46.8094 32.7826 45.7472 35.3375C44.7244 37.8115 46.0576 42.0361 44.0469 44.0468C42.0362 46.0574 37.8116 44.7243 35.3376 45.7471C32.7827 46.8093 30.7065 50.7038 27.9746 50.7038C25.2427 50.7038 23.1665 46.8093 20.6116 45.7471C18.1398 44.7243 13.913 46.0574 11.9023 44.0468Z" stroke="#80AE3B" stroke-width="3.49683" stroke-linecap="round" stroke-linejoin="round"/>
<path d="M19.2325 29.7229L24.4778 34.9681L36.7167 22.7292" stroke="#80AE3B" stroke-width="3.49683" stroke-linecap="round" stroke-linejoin="round"/>
</g>
<defs>
<clipPath id="clip0_180_2339">
<rect width="55.9492" height="55.9492" fill="white"/>
</clipPath>
</defs>
</svg>
