<svg width="22" height="20" viewBox="0 0 22 20" fill="none" xmlns="http://www.w3.org/2000/svg">
<path d="M10.7347 13.1578L13.9767 16.8438C15.1767 18.2088 15.7777 18.8918 16.4067 18.7248C17.0347 18.5588 17.2507 17.6608 17.6817 15.8638L20.0717 5.89579C20.7367 3.12779 21.0687 1.7448 20.3307 1.0618C19.5927 0.378795 18.3137 0.886795 15.7557 1.9018L3.88974 6.61479C1.84374 7.42779 0.820741 7.83379 0.755741 8.53179C0.748086 8.60292 0.748086 8.67467 0.755741 8.7458C0.818741 9.4448 1.83974 9.8538 3.88374 10.6728C4.80874 11.0438 5.27174 11.2298 5.60374 11.5848C5.64107 11.6248 5.67707 11.6661 5.71174 11.7088C6.01774 12.0888 6.14774 12.5888 6.40874 13.5848L6.89774 15.4518C7.15074 16.4218 7.27774 16.9078 7.61074 16.9738C7.94374 17.0398 8.23274 16.6378 8.81174 15.8328L10.7347 13.1578ZM10.7347 13.1578L10.4177 12.8278C10.0557 12.4498 9.87474 12.2618 9.87474 12.0278C9.87474 11.7938 10.0547 11.6048 10.4177 11.2278L13.9907 7.50379" stroke="#438BCF" stroke-width="1.5" stroke-linecap="round" stroke-linejoin="round"/>
</svg>
