<svg width="193" height="60" viewBox="0 0 193 60" fill="none" xmlns="http://www.w3.org/2000/svg">
<path d="M19.9423 12.9258C17.486 17.1803 19.6575 23.2296 21.0502 25.7224C24.7932 21.5008 26.5345 20.5151 32.6835 20.5151C40.1762 20.5151 50.2995 27.6613 50.2995 27.6613C47.6368 12.805 35.6642 8.24862 29.8583 7.94015C27.5764 7.82936 22.3985 8.67138 19.9423 12.9258Z" fill="#D12228" stroke="black" stroke-width="0.110793"/>
<path d="M50.5415 30.3435C48.0852 26.0891 41.7607 24.945 38.9054 24.9047C40.6899 30.257 40.6728 32.2579 37.5984 37.5831C33.852 44.0719 22.6016 49.266 22.6016 49.266C36.7988 54.3881 46.7311 46.2977 49.9013 41.4239C51.1381 39.5031 52.9978 34.598 50.5415 30.3435Z" fill="#438BCF" stroke="black" stroke-width="0.110793"/>
<path d="M19.2645 48.4898C24.1769 48.5391 28.379 43.6758 29.866 41.2381C24.3501 40.052 22.6361 39.0196 19.6152 33.6637C15.9342 27.1377 17.1851 14.8094 17.1851 14.8094C5.55337 24.4273 7.46671 37.0939 10.0504 42.3024C11.075 44.3444 14.3521 48.4406 19.2645 48.4898Z" fill="#F2CF13" stroke="black" stroke-width="0.110793"/>
<path d="M74.9023 18.5055V30.3364H72.9632V22.6946C72.9632 22.3892 72.9796 22.0592 73.0123 21.7046L69.4369 28.4219C69.2678 28.7437 69.0087 28.9046 68.6596 28.9046H68.3487C67.9996 28.9046 67.7405 28.7437 67.5714 28.4219L63.9551 21.6801C63.9714 21.8601 63.9851 22.0374 63.996 22.2119C64.0069 22.3864 64.0123 22.5474 64.0123 22.6946V30.3364H62.0732V18.5055H63.7342C63.8323 18.5055 63.9169 18.5083 63.9878 18.5137C64.0587 18.5192 64.1214 18.5328 64.176 18.5546C64.236 18.5764 64.2878 18.6119 64.3314 18.661C64.3805 18.7101 64.4269 18.7755 64.4705 18.8574L68.0132 25.4274C68.106 25.6019 68.1905 25.7819 68.2669 25.9674C68.3487 26.1528 68.4278 26.3437 68.5042 26.5401C68.5805 26.3383 68.6596 26.1446 68.7414 25.9592C68.8232 25.7683 68.9105 25.5855 69.0032 25.411L72.4969 18.8574C72.5405 18.7755 72.5869 18.7101 72.636 18.661C72.6851 18.6119 72.7369 18.5764 72.7914 18.5546C72.8514 18.5328 72.9169 18.5192 72.9878 18.5137C73.0587 18.5083 73.1432 18.5055 73.2414 18.5055H74.9023ZM88.0475 24.421C88.0475 25.2883 87.903 26.0846 87.6139 26.8101C87.3248 27.5355 86.9184 28.1601 86.3948 28.6837C85.8712 29.2074 85.2412 29.6137 84.5048 29.9028C83.7684 30.1919 82.9502 30.3364 82.0502 30.3364H77.5421V18.5055H82.0502C82.9502 18.5055 83.7684 18.6528 84.5048 18.9474C85.2412 19.2364 85.8712 19.6428 86.3948 20.1664C86.9184 20.6846 87.3248 21.3064 87.6139 22.0319C87.903 22.7574 88.0475 23.5537 88.0475 24.421ZM85.7893 24.421C85.7893 23.7719 85.7021 23.191 85.5275 22.6783C85.3584 22.1601 85.1102 21.7237 84.783 21.3692C84.4612 21.0092 84.0684 20.7337 83.6048 20.5428C83.1466 20.3519 82.6284 20.2564 82.0502 20.2564H79.7512V28.5855H82.0502C82.6284 28.5855 83.1466 28.4901 83.6048 28.2992C84.0684 28.1083 84.4612 27.8355 84.783 27.481C85.1102 27.121 85.3584 26.6846 85.5275 26.1719C85.7021 25.6537 85.7893 25.0701 85.7893 24.421ZM95.2051 30.3364H94.3623V18.7592H95.2051V30.3364ZM98.8778 23.6192C99.2542 23.1501 99.6878 22.7737 100.179 22.4901C100.675 22.2064 101.226 22.0646 101.831 22.0646C102.279 22.0646 102.671 22.1355 103.01 22.2774C103.353 22.4192 103.637 22.6237 103.861 22.891C104.084 23.1583 104.253 23.4801 104.368 23.8564C104.482 24.2328 104.54 24.6583 104.54 25.1328V30.3364H103.754V25.1328C103.754 24.3692 103.58 23.7719 103.231 23.341C102.881 22.9046 102.35 22.6864 101.635 22.6864C101.106 22.6864 100.61 22.8228 100.146 23.0955C99.6878 23.3628 99.2787 23.7364 98.9187 24.2164V30.3364H98.1332V22.1955H98.5669C98.7032 22.1955 98.7823 22.2637 98.8041 22.4001L98.8778 23.6192ZM109.243 30.4674C108.692 30.4674 108.261 30.3146 107.951 30.0092C107.645 29.7037 107.492 29.2319 107.492 28.5937V23.0301H106.322C106.262 23.0301 106.213 23.0137 106.175 22.981C106.137 22.9483 106.118 22.9019 106.118 22.8419V22.5392L107.509 22.441L107.705 19.5283C107.716 19.4792 107.738 19.4355 107.771 19.3974C107.803 19.3592 107.85 19.3401 107.91 19.3401H108.278V22.4492H110.847V23.0301H108.278V28.5528C108.278 28.7764 108.305 28.9701 108.36 29.1337C108.42 29.2919 108.499 29.4228 108.597 29.5264C108.701 29.6301 108.821 29.7064 108.957 29.7555C109.093 29.8046 109.241 29.8292 109.399 29.8292C109.595 29.8292 109.764 29.8019 109.906 29.7474C110.048 29.6874 110.171 29.6246 110.274 29.5592C110.378 29.4883 110.462 29.4255 110.528 29.371C110.593 29.311 110.645 29.281 110.683 29.281C110.727 29.281 110.771 29.3083 110.814 29.3628L111.027 29.7064C110.82 29.9355 110.555 30.121 110.233 30.2628C109.917 30.3992 109.587 30.4674 109.243 30.4674ZM118.306 25.4437C118.306 25.0074 118.243 24.6174 118.118 24.2737C117.998 23.9246 117.826 23.6301 117.602 23.3901C117.379 23.1501 117.111 22.9674 116.801 22.8419C116.495 22.711 116.157 22.6455 115.786 22.6455C115.366 22.6455 114.99 22.711 114.657 22.8419C114.324 22.9728 114.035 23.161 113.79 23.4064C113.55 23.6519 113.356 23.9464 113.209 24.2901C113.061 24.6337 112.963 25.0183 112.914 25.4437H118.306ZM112.873 25.9428V26.0983C112.873 26.7092 112.944 27.2464 113.086 27.7101C113.228 28.1737 113.43 28.5637 113.691 28.8801C113.953 29.191 114.27 29.4255 114.641 29.5837C115.011 29.7419 115.426 29.821 115.884 29.821C116.293 29.821 116.648 29.7774 116.948 29.6901C117.248 29.5974 117.499 29.4964 117.701 29.3874C117.908 29.2728 118.071 29.1719 118.191 29.0846C118.311 28.9919 118.399 28.9455 118.453 28.9455C118.524 28.9455 118.579 28.9728 118.617 29.0274L118.83 29.2892C118.699 29.4528 118.524 29.6055 118.306 29.7474C118.093 29.8892 117.853 30.0119 117.586 30.1155C117.324 30.2137 117.041 30.2928 116.735 30.3528C116.435 30.4128 116.132 30.4428 115.827 30.4428C115.271 30.4428 114.763 30.3474 114.305 30.1564C113.847 29.9601 113.454 29.6764 113.127 29.3055C112.8 28.9346 112.546 28.4819 112.366 27.9474C112.191 27.4074 112.104 26.791 112.104 26.0983C112.104 25.5146 112.186 24.9774 112.35 24.4864C112.519 23.9901 112.759 23.5646 113.07 23.2101C113.386 22.8501 113.771 22.5692 114.223 22.3674C114.681 22.1655 115.2 22.0646 115.778 22.0646C116.236 22.0646 116.661 22.1437 117.054 22.3019C117.447 22.4601 117.788 22.6919 118.077 22.9974C118.366 23.2974 118.592 23.6683 118.756 24.1101C118.925 24.5519 119.01 25.0592 119.01 25.6319C119.01 25.7519 118.993 25.8337 118.961 25.8774C118.928 25.921 118.873 25.9428 118.797 25.9428H112.873ZM121.873 24.1592C121.999 23.8264 122.141 23.5319 122.299 23.2755C122.462 23.0137 122.648 22.7928 122.855 22.6128C123.068 22.4328 123.302 22.2964 123.559 22.2037C123.821 22.1055 124.11 22.0564 124.426 22.0564C124.595 22.0564 124.761 22.0728 124.925 22.1055C125.089 22.1328 125.233 22.1846 125.359 22.261L125.293 22.801C125.266 22.8883 125.214 22.9319 125.138 22.9319C125.072 22.9319 124.971 22.9128 124.835 22.8746C124.704 22.8364 124.53 22.8174 124.311 22.8174C123.995 22.8174 123.714 22.8664 123.469 22.9646C123.229 23.0574 123.011 23.1992 122.814 23.3901C122.623 23.581 122.454 23.8183 122.307 24.1019C122.165 24.3801 122.034 24.7019 121.914 25.0674V30.3364H121.129V22.1955H121.546C121.639 22.1955 121.704 22.2146 121.742 22.2528C121.781 22.291 121.805 22.3564 121.816 22.4492L121.873 24.1592ZM127.658 23.6192C128.034 23.1501 128.468 22.7737 128.959 22.4901C129.455 22.2064 130.006 22.0646 130.611 22.0646C131.059 22.0646 131.451 22.1355 131.79 22.2774C132.133 22.4192 132.417 22.6237 132.641 22.891C132.864 23.1583 133.033 23.4801 133.148 23.8564C133.262 24.2328 133.32 24.6583 133.32 25.1328V30.3364H132.534V25.1328C132.534 24.3692 132.36 23.7719 132.011 23.341C131.661 22.9046 131.13 22.6864 130.415 22.6864C129.886 22.6864 129.39 22.8228 128.926 23.0955C128.468 23.3628 128.059 23.7364 127.699 24.2164V30.3364H126.913V22.1955H127.347C127.483 22.1955 127.562 22.2637 127.584 22.4001L127.658 23.6192ZM140.467 26.401C139.692 26.4283 139.024 26.491 138.462 26.5892C137.906 26.6819 137.445 26.8101 137.08 26.9737C136.72 27.1374 136.452 27.3337 136.278 27.5628C136.103 27.7864 136.016 28.0428 136.016 28.3319C136.016 28.6046 136.06 28.8419 136.147 29.0437C136.24 29.2401 136.36 29.4037 136.507 29.5346C136.66 29.6601 136.834 29.7528 137.031 29.8128C137.227 29.8728 137.431 29.9028 137.644 29.9028C137.961 29.9028 138.25 29.8701 138.511 29.8046C138.779 29.7337 139.024 29.6383 139.248 29.5183C139.477 29.3928 139.69 29.2455 139.886 29.0764C140.082 28.9074 140.276 28.7246 140.467 28.5283V26.401ZM135.681 23.3492C136.106 22.9237 136.553 22.6019 137.022 22.3837C137.491 22.1655 138.023 22.0564 138.618 22.0564C139.054 22.0564 139.436 22.1274 139.763 22.2692C140.091 22.4055 140.361 22.6046 140.573 22.8664C140.791 23.1228 140.955 23.4364 141.064 23.8074C141.173 24.1728 141.228 24.5819 141.228 25.0346V30.3364H140.917C140.753 30.3364 140.652 30.2601 140.614 30.1074L140.5 29.0601C140.276 29.2783 140.052 29.4746 139.829 29.6492C139.611 29.8237 139.381 29.971 139.141 30.091C138.901 30.211 138.642 30.3037 138.364 30.3692C138.086 30.4346 137.781 30.4674 137.448 30.4674C137.17 30.4674 136.9 30.4264 136.638 30.3446C136.376 30.2628 136.141 30.1374 135.934 29.9683C135.732 29.7992 135.569 29.5837 135.443 29.3219C135.323 29.0546 135.263 28.7355 135.263 28.3646C135.263 28.021 135.361 27.7019 135.558 27.4074C135.754 27.1128 136.062 26.8564 136.482 26.6383C136.902 26.4201 137.44 26.2455 138.094 26.1146C138.754 25.9837 139.545 25.9074 140.467 25.8855V25.0346C140.467 24.2819 140.303 23.7037 139.976 23.3001C139.654 22.891 139.174 22.6864 138.536 22.6864C138.143 22.6864 137.808 22.741 137.53 22.8501C137.257 22.9592 137.025 23.0792 136.834 23.2101C136.643 23.341 136.488 23.461 136.368 23.5701C136.248 23.6792 136.147 23.7337 136.065 23.7337C136.005 23.7337 135.956 23.7201 135.918 23.6928C135.88 23.6655 135.847 23.6301 135.82 23.5864L135.681 23.3492ZM150.499 30.3364H149.713V23.0301H145.001V28.5528C145.001 28.7764 145.028 28.9701 145.082 29.1337C145.142 29.2919 145.221 29.4228 145.32 29.5264C145.423 29.6301 145.543 29.7064 145.68 29.7555C145.816 29.8046 145.963 29.8292 146.121 29.8292C146.318 29.8292 146.487 29.8019 146.629 29.7474C146.771 29.6874 146.893 29.6246 146.997 29.5592C147.101 29.4883 147.185 29.4255 147.251 29.371C147.316 29.311 147.368 29.281 147.406 29.281C147.45 29.281 147.493 29.3083 147.537 29.3628L147.75 29.7064C147.542 29.9355 147.278 30.121 146.956 30.2628C146.64 30.3992 146.31 30.4674 145.966 30.4674C145.415 30.4674 144.984 30.3146 144.673 30.0092C144.368 29.7037 144.215 29.2319 144.215 28.5937V23.0301H143.045C142.985 23.0301 142.936 23.0137 142.898 22.981C142.86 22.9483 142.841 22.9019 142.841 22.8419V22.5392L144.231 22.441L144.428 19.5283C144.439 19.4792 144.461 19.4355 144.493 19.3974C144.526 19.3592 144.572 19.3401 144.632 19.3401H145.001V22.4492H150.499V30.3364ZM150.859 19.291C150.859 19.3892 150.837 19.4819 150.793 19.5692C150.755 19.651 150.701 19.7246 150.63 19.7901C150.564 19.8555 150.488 19.9074 150.401 19.9455C150.313 19.9837 150.221 20.0028 150.122 20.0028C150.024 20.0028 149.931 19.9837 149.844 19.9455C149.757 19.9074 149.681 19.8555 149.615 19.7901C149.55 19.7246 149.498 19.651 149.46 19.5692C149.421 19.4819 149.402 19.3892 149.402 19.291C149.402 19.1928 149.421 19.1001 149.46 19.0128C149.498 18.9201 149.55 18.841 149.615 18.7755C149.681 18.7101 149.757 18.6583 149.844 18.6201C149.931 18.5819 150.024 18.5628 150.122 18.5628C150.221 18.5628 150.313 18.5819 150.401 18.6201C150.488 18.6583 150.564 18.7101 150.63 18.7755C150.701 18.841 150.755 18.9201 150.793 19.0128C150.837 19.1001 150.859 19.1928 150.859 19.291ZM156.488 22.0646C157.071 22.0646 157.592 22.1655 158.051 22.3674C158.514 22.5637 158.904 22.8446 159.221 23.2101C159.537 23.5755 159.777 24.0174 159.941 24.5355C160.11 25.0483 160.194 25.6237 160.194 26.2619C160.194 26.9001 160.11 27.4755 159.941 27.9883C159.777 28.501 159.537 28.9401 159.221 29.3055C158.904 29.671 158.514 29.9519 158.051 30.1483C157.592 30.3446 157.071 30.4428 156.488 30.4428C155.904 30.4428 155.381 30.3446 154.917 30.1483C154.459 29.9519 154.069 29.671 153.747 29.3055C153.431 28.9401 153.188 28.501 153.019 27.9883C152.855 27.4755 152.773 26.9001 152.773 26.2619C152.773 25.6237 152.855 25.0483 153.019 24.5355C153.188 24.0174 153.431 23.5755 153.747 23.2101C154.069 22.8446 154.459 22.5637 154.917 22.3674C155.381 22.1655 155.904 22.0646 156.488 22.0646ZM156.488 29.8292C156.973 29.8292 157.396 29.7474 157.756 29.5837C158.121 29.4146 158.424 29.1746 158.664 28.8637C158.91 28.5528 159.092 28.1792 159.212 27.7428C159.332 27.301 159.392 26.8074 159.392 26.2619C159.392 25.7219 159.332 25.231 159.212 24.7892C159.092 24.3474 158.91 23.971 158.664 23.6601C158.424 23.3437 158.121 23.101 157.756 22.9319C157.396 22.7628 156.973 22.6783 156.488 22.6783C156.002 22.6783 155.577 22.7628 155.211 22.9319C154.851 23.101 154.549 23.3437 154.303 23.6601C154.063 23.971 153.881 24.3474 153.755 24.7892C153.635 25.231 153.575 25.7219 153.575 26.2619C153.575 26.8074 153.635 27.301 153.755 27.7428C153.881 28.1792 154.063 28.5528 154.303 28.8637C154.549 29.1746 154.851 29.4146 155.211 29.5837C155.577 29.7474 156.002 29.8292 156.488 29.8292ZM163.133 23.6192C163.51 23.1501 163.943 22.7737 164.434 22.4901C164.931 22.2064 165.481 22.0646 166.087 22.0646C166.534 22.0646 166.927 22.1355 167.265 22.2774C167.609 22.4192 167.892 22.6237 168.116 22.891C168.34 23.1583 168.509 23.4801 168.623 23.8564C168.738 24.2328 168.795 24.6583 168.795 25.1328V30.3364H168.01V25.1328C168.01 24.3692 167.835 23.7719 167.486 23.341C167.137 22.9046 166.605 22.6864 165.891 22.6864C165.361 22.6864 164.865 22.8228 164.401 23.0955C163.943 23.3628 163.534 23.7364 163.174 24.2164V30.3364H162.389V22.1955H162.822C162.959 22.1955 163.038 22.2637 163.06 22.4001L163.133 23.6192ZM175.943 26.401C175.169 26.4283 174.501 26.491 173.939 26.5892C173.382 26.6819 172.921 26.8101 172.556 26.9737C172.196 27.1374 171.929 27.3337 171.754 27.5628C171.58 27.7864 171.492 28.0428 171.492 28.3319C171.492 28.6046 171.536 28.8419 171.623 29.0437C171.716 29.2401 171.836 29.4037 171.983 29.5346C172.136 29.6601 172.311 29.7528 172.507 29.8128C172.703 29.8728 172.908 29.9028 173.121 29.9028C173.437 29.9028 173.726 29.8701 173.988 29.8046C174.255 29.7337 174.501 29.6383 174.724 29.5183C174.953 29.3928 175.166 29.2455 175.362 29.0764C175.559 28.9074 175.752 28.7246 175.943 28.5283V26.401ZM171.157 23.3492C171.582 22.9237 172.03 22.6019 172.499 22.3837C172.968 22.1655 173.5 22.0564 174.094 22.0564C174.531 22.0564 174.912 22.1274 175.24 22.2692C175.567 22.4055 175.837 22.6046 176.05 22.8664C176.268 23.1228 176.431 23.4364 176.541 23.8074C176.65 24.1728 176.704 24.5819 176.704 25.0346V30.3364H176.393C176.23 30.3364 176.129 30.2601 176.091 30.1074L175.976 29.0601C175.752 29.2783 175.529 29.4746 175.305 29.6492C175.087 29.8237 174.858 29.971 174.618 30.091C174.378 30.211 174.119 30.3037 173.841 30.3692C173.562 30.4346 173.257 30.4674 172.924 30.4674C172.646 30.4674 172.376 30.4264 172.114 30.3446C171.852 30.2628 171.618 30.1374 171.411 29.9683C171.209 29.7992 171.045 29.5837 170.92 29.3219C170.8 29.0546 170.74 28.7355 170.74 28.3646C170.74 28.021 170.838 27.7019 171.034 27.4074C171.231 27.1128 171.539 26.8564 171.959 26.6383C172.379 26.4201 172.916 26.2455 173.571 26.1146C174.231 25.9837 175.021 25.9074 175.943 25.8855V25.0346C175.943 24.2819 175.78 23.7037 175.452 23.3001C175.131 22.891 174.651 22.6864 174.012 22.6864C173.62 22.6864 173.284 22.741 173.006 22.8501C172.733 22.9592 172.501 23.0792 172.311 23.2101C172.12 23.341 171.964 23.461 171.844 23.5701C171.724 23.6792 171.623 23.7337 171.541 23.7337C171.481 23.7337 171.432 23.7201 171.394 23.6928C171.356 23.6655 171.323 23.6301 171.296 23.5864L171.157 23.3492ZM180.171 18.4319V30.3364H179.386V18.4319H180.171Z" fill="white"/>
<path d="M69.5839 36.59V43.9728H68.3738V39.2041C68.3738 39.0134 68.384 38.8075 68.4044 38.5863L66.1732 42.7781C66.0677 42.9789 65.906 43.0793 65.6882 43.0793H65.4941C65.2763 43.0793 65.1147 42.9789 65.0091 42.7781L62.7524 38.571C62.7626 38.6833 62.7711 38.7939 62.7779 38.9028C62.7848 39.0118 62.7881 39.1122 62.7881 39.2041V43.9728H61.5781V36.59H62.6146C62.6759 36.59 62.7286 36.5916 62.7729 36.5951C62.817 36.5984 62.8562 36.607 62.8902 36.6206C62.9277 36.6342 62.96 36.6564 62.9872 36.687C63.0179 36.7176 63.0469 36.7584 63.074 36.8095L65.2849 40.9094C65.3427 41.0184 65.3955 41.1306 65.4431 41.2464C65.4941 41.3621 65.5435 41.4813 65.5912 41.6038C65.6389 41.4778 65.6882 41.357 65.7392 41.2413C65.7903 41.1222 65.8448 41.0081 65.9027 40.8992L68.0828 36.8095C68.11 36.7584 68.1389 36.7176 68.1696 36.687C68.2002 36.6564 68.2326 36.6342 68.2666 36.6206C68.304 36.607 68.3449 36.5984 68.3891 36.5951C68.4334 36.5916 68.4861 36.59 68.5474 36.59H69.5839ZM73.6696 41.7365C73.3054 41.7535 72.999 41.7859 72.7506 41.8335C72.5021 41.8778 72.303 41.9356 72.1532 42.0071C72.0035 42.0786 71.8962 42.162 71.8316 42.2573C71.7669 42.3526 71.7346 42.4564 71.7346 42.5687C71.7346 42.79 71.7992 42.9483 71.9286 43.0436C72.0613 43.1389 72.2332 43.1865 72.4442 43.1865C72.7029 43.1865 72.9259 43.1406 73.1131 43.0487C73.3037 42.9534 73.4892 42.8104 73.6696 42.6198V41.7365ZM70.7798 39.4644C71.3822 38.9131 72.1073 38.6374 72.9549 38.6374C73.2611 38.6374 73.5351 38.6884 73.7769 38.7905C74.0185 38.8893 74.2228 39.0288 74.3895 39.2092C74.5563 39.3862 74.6822 39.5989 74.7673 39.8474C74.8559 40.0959 74.9001 40.3682 74.9001 40.6644V43.9728H74.3282C74.2091 43.9728 74.1172 43.9558 74.0526 43.9218C73.9879 43.8844 73.9369 43.8112 73.8994 43.7023L73.787 43.3244C73.6543 43.4435 73.5249 43.5491 73.399 43.641C73.273 43.7294 73.142 43.8044 73.0059 43.8656C72.8698 43.9269 72.7234 43.9728 72.5668 44.0034C72.4136 44.0375 72.2434 44.0545 72.0562 44.0545C71.8349 44.0545 71.6308 44.0256 71.4435 43.9677C71.2563 43.9064 71.0947 43.8163 70.9585 43.6971C70.8223 43.578 70.7169 43.4299 70.6419 43.2529C70.567 43.0759 70.5296 42.87 70.5296 42.6351C70.5296 42.5024 70.5518 42.3714 70.5959 42.242C70.6402 42.1093 70.7117 41.9833 70.8104 41.8642C70.9125 41.745 71.0436 41.6327 71.2036 41.5272C71.3636 41.4216 71.5592 41.3298 71.7907 41.2514C72.0256 41.1732 72.2979 41.1103 72.6077 41.0625C72.9174 41.0115 73.2714 40.9809 73.6696 40.9706V40.6644C73.6696 40.3137 73.5948 40.0551 73.4449 39.8883C73.2952 39.7181 73.079 39.633 72.7966 39.633C72.5923 39.633 72.4221 39.6568 72.2859 39.7044C72.1532 39.7521 72.0358 39.8065 71.9337 39.8678C71.8316 39.9257 71.7379 39.9784 71.6529 40.0261C71.5711 40.0737 71.4793 40.0976 71.3771 40.0976C71.2887 40.0976 71.2138 40.0754 71.1525 40.0312C71.0912 39.9835 71.0419 39.9291 71.0044 39.8678L70.7798 39.4644ZM79.284 39.7555C79.2499 39.81 79.2142 39.8491 79.1768 39.8729C79.1393 39.8934 79.0917 39.9035 79.0339 39.9035C78.9726 39.9035 78.9062 39.8865 78.8347 39.8525C78.7666 39.8184 78.6867 39.781 78.5948 39.7402C78.5029 39.6959 78.3973 39.6568 78.2781 39.6227C78.1624 39.5887 78.0246 39.5717 77.8646 39.5717C77.6161 39.5717 77.4204 39.6244 77.2775 39.73C77.1379 39.8355 77.0681 39.9734 77.0681 40.1435C77.0681 40.2559 77.1039 40.3512 77.1753 40.4294C77.2502 40.5044 77.3472 40.5707 77.4664 40.6285C77.5889 40.6864 77.7268 40.7392 77.8799 40.7869C78.0331 40.8311 78.1879 40.8804 78.3446 40.9349C78.5045 40.9894 78.6611 41.0524 78.8143 41.1238C78.9674 41.1919 79.1036 41.2804 79.2228 41.3894C79.3453 41.4948 79.4423 41.6225 79.5138 41.7723C79.5887 41.922 79.626 42.1024 79.626 42.3134C79.626 42.5654 79.5801 42.7985 79.4882 43.013C79.3998 43.224 79.2669 43.4078 79.0899 43.5644C78.9129 43.7175 78.6934 43.8384 78.4313 43.9269C78.1727 44.012 77.8731 44.0545 77.5328 44.0545C77.3523 44.0545 77.1753 44.0375 77.0018 44.0034C76.8316 43.9728 76.6665 43.9285 76.5065 43.8707C76.3499 43.8128 76.2036 43.7448 76.0674 43.6664C75.9347 43.5882 75.8172 43.5031 75.7151 43.4112L76.0061 42.9313C76.0436 42.8734 76.0879 42.8292 76.1389 42.7985C76.1899 42.7679 76.2546 42.7525 76.3329 42.7525C76.4112 42.7525 76.4844 42.7747 76.5524 42.8189C76.6239 42.8632 76.7056 42.9108 76.7975 42.9619C76.8894 43.013 76.9967 43.0606 77.1191 43.1048C77.2451 43.1491 77.4034 43.1713 77.594 43.1713C77.7438 43.1713 77.8714 43.1542 77.9769 43.1202C78.0859 43.0827 78.1744 43.0351 78.2424 42.9772C78.3139 42.9194 78.3649 42.853 78.3956 42.7781C78.4297 42.6998 78.4467 42.6198 78.4467 42.5381C78.4467 42.4155 78.4092 42.3152 78.3343 42.2369C78.2629 42.1586 78.1659 42.0905 78.0433 42.0326C77.9242 41.9748 77.7863 41.9237 77.6298 41.8794C77.4766 41.8318 77.3183 41.7808 77.1549 41.7263C76.9949 41.6718 76.8367 41.6089 76.68 41.5374C76.5269 41.4625 76.389 41.3689 76.2665 41.2566C76.1474 41.1443 76.0504 41.0064 75.9755 40.843C75.904 40.6796 75.8683 40.4822 75.8683 40.2507C75.8683 40.0364 75.9109 39.8321 75.9959 39.6381C76.081 39.4441 76.2052 39.2755 76.3687 39.1326C76.5354 38.9863 76.7413 38.8705 76.9864 38.7854C77.2349 38.6969 77.5209 38.6526 77.8442 38.6526C78.2049 38.6526 78.5335 38.7123 78.8296 38.8314C79.1258 38.9505 79.3725 39.1071 79.5699 39.3011L79.284 39.7555ZM82.3214 44.0545C81.8653 44.0545 81.5147 43.9269 81.2697 43.6716C81.0279 43.4129 80.9071 43.0572 80.9071 42.6045V39.6789H80.371C80.3029 39.6789 80.2451 39.6568 80.1974 39.6125C80.1498 39.5683 80.1259 39.5019 80.1259 39.4134V38.9131L80.9684 38.7752L81.2339 37.3456C81.2509 37.2775 81.2832 37.2248 81.3309 37.1874C81.3786 37.1499 81.4398 37.1312 81.5147 37.1312H82.1682V38.7804H83.5672V39.6789H82.1682V42.5177C82.1682 42.6811 82.2074 42.8087 82.2857 42.9006C82.3674 42.9925 82.478 43.0384 82.6176 43.0384C82.6959 43.0384 82.7605 43.03 82.8116 43.013C82.866 42.9925 82.9119 42.9721 82.9494 42.9517C82.9903 42.9313 83.026 42.9125 83.0567 42.8955C83.0873 42.8751 83.1179 42.8649 83.1486 42.8649C83.1859 42.8649 83.2166 42.8751 83.2405 42.8955C83.2643 42.9125 83.2898 42.9398 83.317 42.9772L83.6949 43.5899C83.511 43.7431 83.3 43.8588 83.0618 43.9371C82.8235 44.0154 82.5767 44.0545 82.3214 44.0545ZM87.7097 40.7511C87.7097 40.5877 87.6858 40.4345 87.6381 40.2916C87.5939 40.1453 87.5259 40.0176 87.4339 39.9087C87.342 39.7997 87.2246 39.7146 87.0816 39.6534C86.942 39.5887 86.7787 39.5564 86.5915 39.5564C86.2273 39.5564 85.9397 39.6602 85.7286 39.8678C85.5209 40.0754 85.3882 40.3699 85.3304 40.7511H87.7097ZM85.3049 41.5119C85.3252 41.7808 85.3729 42.0139 85.4478 42.2114C85.5227 42.4054 85.6214 42.5671 85.7439 42.6964C85.8665 42.8224 86.0111 42.9176 86.1779 42.9824C86.3481 43.0436 86.5353 43.0743 86.7396 43.0743C86.9438 43.0743 87.119 43.0504 87.2654 43.0027C87.4152 42.9551 87.5446 42.9024 87.6535 42.8444C87.7658 42.7866 87.8628 42.7338 87.9445 42.6862C88.0296 42.6385 88.1113 42.6147 88.1896 42.6147C88.2951 42.6147 88.3734 42.6538 88.4244 42.7322L88.7869 43.1916C88.6474 43.355 88.4908 43.4929 88.3172 43.6052C88.1436 43.7142 87.9615 43.8026 87.7709 43.8707C87.5837 43.9354 87.3914 43.9814 87.1939 44.0085C86.9999 44.0358 86.811 44.0494 86.6272 44.0494C86.263 44.0494 85.9243 43.9898 85.6112 43.8707C85.298 43.7482 85.0258 43.5694 84.7943 43.3346C84.5628 43.0964 84.3807 42.8036 84.2479 42.4564C84.1152 42.1058 84.0489 41.7008 84.0489 41.2413C84.0489 40.8839 84.1067 40.5486 84.2224 40.2354C84.3381 39.9189 84.5032 39.6449 84.7177 39.4134C84.9355 39.1785 85.1993 38.9931 85.509 38.8569C85.8222 38.7207 86.1745 38.6526 86.5659 38.6526C86.8961 38.6526 87.2008 38.7054 87.4799 38.8109C87.7589 38.9164 87.9989 39.0714 88.1998 39.2755C88.4006 39.4764 88.5572 39.7249 88.6695 40.021C88.7852 40.3137 88.8431 40.649 88.8431 41.0268C88.8431 41.2174 88.8227 41.3468 88.7819 41.4149C88.7409 41.4795 88.6627 41.5119 88.5469 41.5119H85.3049ZM90.9788 39.6432C91.1424 39.33 91.3369 39.085 91.5615 38.908C91.786 38.7275 92.0515 38.6374 92.3579 38.6374C92.5997 38.6374 92.7933 38.6901 92.9397 38.7956L92.8579 39.7402C92.8406 39.8014 92.8151 39.8457 92.7815 39.8729C92.7506 39.8967 92.7079 39.9087 92.6542 39.9087C92.6024 39.9087 92.526 39.9002 92.4242 39.8832C92.3251 39.8661 92.2288 39.8576 92.1333 39.8576C91.9933 39.8576 91.8688 39.8781 91.7606 39.9189C91.6515 39.9597 91.5524 40.0193 91.4642 40.0976C91.3788 40.1724 91.3024 40.2644 91.2342 40.3733C91.1697 40.4822 91.1088 40.6064 91.0506 40.746V43.9728H89.7895V38.7344H90.5299C90.6591 38.7344 90.7494 38.7582 90.8004 38.8058C90.8515 38.8501 90.8855 38.9318 90.9025 39.0509L90.9788 39.6432ZM96.4706 42.9006C96.726 42.9006 96.9406 42.87 97.1133 42.8087C97.2869 42.7474 97.4251 42.6657 97.5269 42.5636C97.6324 42.4615 97.7079 42.3424 97.7515 42.2063C97.7997 42.0701 97.8233 41.9254 97.8233 41.7723C97.8233 41.6123 97.7979 41.4694 97.7469 41.3434C97.696 41.214 97.616 41.1051 97.5069 41.0166C97.3979 40.9247 97.2569 40.8549 97.0833 40.8073C96.9133 40.7596 96.7069 40.7358 96.4651 40.7358H95.0815V42.9006H96.4706ZM95.0815 37.652V39.7862H96.1742C96.6442 39.7862 96.9979 39.7011 97.236 39.5308C97.4779 39.3606 97.5988 39.0901 97.5988 38.7191C97.5988 38.3344 97.4897 38.0604 97.2724 37.897C97.0542 37.7336 96.7142 37.652 96.2506 37.652H95.0815ZM96.2506 36.59C96.7342 36.59 97.1479 36.6359 97.4915 36.7278C97.8351 36.8197 98.116 36.9507 98.3342 37.121C98.5551 37.2912 98.7169 37.4971 98.8188 37.7387C98.9215 37.9804 98.9724 38.2527 98.9724 38.5556C98.9724 38.7293 98.9469 38.8961 98.896 39.056C98.8442 39.2126 98.7642 39.3606 98.656 39.5002C98.5506 39.6364 98.4142 39.7606 98.2469 39.8729C98.0842 39.9853 97.8879 40.0805 97.6597 40.1588C98.6742 40.3869 99.1815 40.9349 99.1815 41.8029C99.1815 42.1161 99.1224 42.4054 99.0024 42.6709C98.8833 42.9364 98.7097 43.1661 98.4824 43.3602C98.2542 43.5507 97.9733 43.7005 97.6397 43.8094C97.306 43.9184 96.9251 43.9728 96.496 43.9728H93.7079V36.59H96.2506ZM102.918 41.7365C102.553 41.7535 102.247 41.7859 101.999 41.8335C101.751 41.8778 101.551 41.9356 101.401 42.0071C101.251 42.0786 101.144 42.162 101.08 42.2573C101.015 42.3526 100.982 42.4564 100.982 42.5687C100.982 42.79 101.048 42.9483 101.177 43.0436C101.31 43.1389 101.481 43.1865 101.692 43.1865C101.951 43.1865 102.174 43.1406 102.361 43.0487C102.551 42.9534 102.738 42.8104 102.918 42.6198V41.7365ZM100.028 39.4644C100.631 38.9131 101.355 38.6374 102.203 38.6374C102.51 38.6374 102.783 38.6884 103.025 38.7905C103.267 38.8893 103.471 39.0288 103.638 39.2092C103.804 39.3862 103.931 39.5989 104.015 39.8474C104.104 40.0959 104.148 40.3682 104.148 40.6644V43.9728H103.576C103.457 43.9728 103.365 43.9558 103.301 43.9218C103.236 43.8844 103.185 43.8112 103.148 43.7023L103.035 43.3244C102.902 43.4435 102.773 43.5491 102.647 43.641C102.521 43.7294 102.391 43.8044 102.254 43.8656C102.118 43.9269 101.971 43.9728 101.815 44.0034C101.661 44.0375 101.491 44.0545 101.304 44.0545C101.083 44.0545 100.879 44.0256 100.691 43.9677C100.504 43.9064 100.342 43.8163 100.207 43.6971C100.071 43.578 99.9651 43.4299 99.8897 43.2529C99.8151 43.0759 99.7779 42.87 99.7779 42.6351C99.7779 42.5024 99.7997 42.3714 99.8442 42.242C99.8888 42.1093 99.9597 41.9833 100.059 41.8642C100.161 41.745 100.291 41.6327 100.451 41.5272C100.611 41.4216 100.808 41.3298 101.039 41.2514C101.274 41.1732 101.546 41.1103 101.856 41.0625C102.165 41.0115 102.52 40.9809 102.918 40.9706V40.6644C102.918 40.3137 102.843 40.0551 102.693 39.8883C102.543 39.7181 102.327 39.633 102.045 39.633C101.841 39.633 101.671 39.6568 101.534 39.7044C101.401 39.7521 101.284 39.8065 101.181 39.8678C101.08 39.9257 100.986 39.9784 100.901 40.0261C100.82 40.0737 100.728 40.0976 100.625 40.0976C100.537 40.0976 100.462 40.0754 100.401 40.0312C100.34 39.9835 100.29 39.9291 100.252 39.8678L100.028 39.4644ZM107.012 44.0545C106.556 44.0545 106.206 43.9269 105.961 43.6716C105.719 43.4129 105.598 43.0572 105.598 42.6045V39.6789H105.062C104.994 39.6789 104.936 39.6568 104.889 39.6125C104.841 39.5683 104.817 39.5019 104.817 39.4134V38.9131L105.66 38.7752L105.925 37.3456C105.941 37.2775 105.974 37.2248 106.021 37.1874C106.07 37.1499 106.131 37.1312 106.206 37.1312H106.859V38.7804H108.258V39.6789H106.859V42.5177C106.859 42.6811 106.899 42.8087 106.977 42.9006C107.058 42.9925 107.169 43.0384 107.309 43.0384C107.387 43.0384 107.451 43.03 107.502 43.013C107.557 42.9925 107.603 42.9721 107.641 42.9517C107.681 42.9313 107.717 42.9125 107.748 42.8955C107.778 42.8751 107.809 42.8649 107.84 42.8649C107.877 42.8649 107.908 42.8751 107.931 42.8955C107.955 42.9125 107.981 42.9398 108.008 42.9772L108.386 43.5899C108.202 43.7431 107.991 43.8588 107.752 43.9371C107.514 44.0154 107.268 44.0545 107.012 44.0545ZM112.779 39.8423C112.741 39.89 112.703 39.9274 112.666 39.9546C112.632 39.9819 112.581 39.9954 112.513 39.9954C112.448 39.9954 112.385 39.9767 112.324 39.9393C112.262 39.8984 112.19 39.8542 112.104 39.8065C112.02 39.7555 111.917 39.7113 111.798 39.6738C111.682 39.633 111.538 39.6125 111.364 39.6125C111.142 39.6125 110.949 39.6534 110.782 39.7351C110.615 39.8134 110.476 39.9274 110.363 40.0772C110.254 40.2269 110.172 40.409 110.118 40.6234C110.064 40.8345 110.037 41.0744 110.037 41.3434C110.037 41.6225 110.065 41.871 110.123 42.0888C110.185 42.3066 110.271 42.4904 110.384 42.6403C110.496 42.7866 110.632 42.8989 110.792 42.9772C110.952 43.0521 111.132 43.0895 111.333 43.0895C111.534 43.0895 111.696 43.0657 111.819 43.0181C111.944 42.967 112.05 42.9125 112.135 42.8546C112.221 42.7934 112.293 42.7389 112.354 42.6913C112.42 42.6403 112.491 42.6147 112.569 42.6147C112.671 42.6147 112.748 42.6538 112.799 42.7322L113.161 43.1916C113.021 43.355 112.871 43.4929 112.707 43.6052C112.543 43.7142 112.373 43.8026 112.196 43.8707C112.022 43.9354 111.842 43.9814 111.655 44.0085C111.471 44.0358 111.288 44.0494 111.103 44.0494C110.781 44.0494 110.476 43.9898 110.19 43.8707C109.904 43.7482 109.653 43.5712 109.44 43.3397C109.225 43.1083 109.054 42.8257 108.929 42.4922C108.806 42.1552 108.745 41.7723 108.745 41.3434C108.745 40.9587 108.8 40.6031 108.908 40.2763C109.021 39.9461 109.184 39.6619 109.399 39.4236C109.612 39.182 109.879 38.9931 110.195 38.8569C110.511 38.7207 110.876 38.6526 111.288 38.6526C111.679 38.6526 112.021 38.7156 112.313 38.8415C112.61 38.9675 112.875 39.1479 113.111 39.3828L112.779 39.8423ZM115.213 39.296C115.417 39.1054 115.641 38.9505 115.887 38.8314C116.132 38.7123 116.42 38.6526 116.75 38.6526C117.036 38.6526 117.29 38.702 117.511 38.8007C117.731 38.8961 117.916 39.0322 118.062 39.2092C118.211 39.3828 118.324 39.5921 118.399 39.8372C118.477 40.0789 118.516 40.3461 118.516 40.6388V43.9728H117.255V40.6388C117.255 40.3188 117.182 40.0721 117.036 39.8984C116.89 39.7214 116.666 39.633 116.367 39.633C116.149 39.633 115.945 39.6824 115.754 39.781C115.563 39.8797 115.383 40.0142 115.213 40.1844V43.9728H113.951V36.3857H115.213V39.296Z" fill="#438BCF"/>
<path d="M124.016 40.5214C123.745 40.6984 123.546 40.8992 123.419 41.1238C123.297 41.3451 123.236 41.5834 123.236 41.8387C123.236 42.0258 123.268 42.1944 123.333 42.3441C123.397 42.4939 123.485 42.6216 123.593 42.727C123.706 42.8292 123.835 42.9092 123.981 42.967C124.131 43.0215 124.289 43.0487 124.456 43.0487C124.756 43.0487 125.029 43.0027 125.278 42.9108C125.526 42.8156 125.751 42.6845 125.952 42.5177L124.016 40.5214ZM128.934 43.9728H127.698C127.569 43.9728 127.463 43.9576 127.382 43.9269C127.303 43.8963 127.22 43.8316 127.131 43.7329L126.621 43.207C126.297 43.4725 125.935 43.6801 125.534 43.8299C125.132 43.9797 124.697 44.0546 124.231 44.0546C123.949 44.0546 123.67 44.0069 123.394 43.9116C123.122 43.8128 122.878 43.6717 122.664 43.4878C122.449 43.304 122.276 43.0827 122.143 42.8241C122.014 42.5619 121.949 42.2676 121.949 41.9407C121.949 41.7093 121.986 41.4915 122.061 41.2872C122.136 41.0797 122.24 40.8873 122.373 40.7103C122.506 40.5333 122.664 40.375 122.847 40.2355C123.032 40.0925 123.232 39.9699 123.45 39.8678C123.266 39.6126 123.134 39.3641 123.052 39.1224C122.97 38.8774 122.929 38.6339 122.929 38.3923C122.929 38.137 122.976 37.8954 123.067 37.6673C123.163 37.4358 123.298 37.235 123.476 37.0648C123.653 36.8947 123.87 36.7602 124.129 36.6615C124.388 36.5594 124.681 36.5083 125.007 36.5083C125.307 36.5083 125.574 36.5542 125.809 36.6461C126.047 36.738 126.25 36.8606 126.416 37.0137C126.586 37.1669 126.719 37.3422 126.815 37.5397C126.914 37.7371 126.971 37.9413 126.988 38.1523L126.186 38.3208C126.037 38.3515 125.928 38.2867 125.86 38.1268C125.829 38.0383 125.788 37.9549 125.737 37.8767C125.69 37.7949 125.632 37.7252 125.564 37.6673C125.496 37.606 125.416 37.5584 125.324 37.5243C125.232 37.4869 125.126 37.4682 125.007 37.4682C124.865 37.4682 124.736 37.4937 124.625 37.5447C124.512 37.5924 124.416 37.6587 124.338 37.7438C124.264 37.8256 124.206 37.9226 124.165 38.0349C124.124 38.1438 124.104 38.2596 124.104 38.3821C124.104 38.4842 124.114 38.5829 124.135 38.6782C124.155 38.7736 124.189 38.8688 124.236 38.9641C124.284 39.0595 124.346 39.1582 124.42 39.2603C124.498 39.359 124.594 39.4662 124.706 39.5819L126.666 41.6191C126.779 41.4047 126.869 41.1783 126.937 40.94C127.006 40.7017 127.05 40.4601 127.07 40.215C127.08 40.1367 127.107 40.0737 127.152 40.0261C127.196 39.9785 127.257 39.9547 127.336 39.9547H128.122C128.118 40.4039 128.054 40.8328 127.928 41.2413C127.802 41.6497 127.622 42.0258 127.386 42.3697L128.934 43.9728Z" fill="white"/>
<path d="M137.341 42.2318C137.415 42.2318 137.482 42.2607 137.54 42.3185L138.081 42.9057C137.782 43.2767 137.412 43.561 136.973 43.7584C136.537 43.9558 136.013 44.0545 135.401 44.0545C134.853 44.0545 134.359 43.9609 133.92 43.7737C133.485 43.5865 133.112 43.3261 132.802 42.9925C132.492 42.659 132.254 42.2607 132.087 41.7978C131.924 41.3349 131.842 40.8294 131.842 40.2814C131.842 39.7265 131.93 39.2194 132.107 38.7599C132.285 38.297 132.533 37.8987 132.853 37.5652C133.176 37.2315 133.561 36.9729 134.006 36.7891C134.453 36.6019 134.946 36.5083 135.487 36.5083C136.025 36.5083 136.502 36.5968 136.917 36.7737C137.335 36.9507 137.691 37.1823 137.984 37.4682L137.525 38.1064C137.497 38.1472 137.462 38.1829 137.417 38.2135C137.376 38.2442 137.318 38.2595 137.244 38.2595C137.193 38.2595 137.14 38.2459 137.085 38.2187C137.031 38.1881 136.971 38.1523 136.906 38.1114C136.842 38.0672 136.767 38.0195 136.682 37.9685C136.597 37.9174 136.498 37.8715 136.385 37.8306C136.274 37.7864 136.143 37.7506 135.993 37.7234C135.846 37.6928 135.676 37.6774 135.482 37.6774C135.152 37.6774 134.849 37.7371 134.574 37.8562C134.301 37.9719 134.066 38.1421 133.869 38.3667C133.671 38.588 133.518 38.8603 133.409 39.1836C133.3 39.5036 133.245 39.8695 133.245 40.2814C133.245 40.6966 133.304 41.066 133.419 41.3894C133.538 41.7127 133.698 41.985 133.899 42.2063C134.1 42.4275 134.336 42.5977 134.609 42.7168C134.882 42.8325 135.175 42.8904 135.487 42.8904C135.675 42.8904 135.843 42.8802 135.993 42.8598C136.145 42.8394 136.285 42.807 136.412 42.7628C136.541 42.7185 136.662 42.6624 136.774 42.5943C136.89 42.5228 137.004 42.436 137.116 42.3339C137.15 42.3033 137.185 42.2794 137.224 42.2624C137.261 42.242 137.3 42.2318 137.341 42.2318ZM141.031 38.6526C141.419 38.6526 141.771 38.7156 142.088 38.8415C142.408 38.9675 142.68 39.1463 142.905 39.3777C143.133 39.6092 143.308 39.8916 143.431 40.2253C143.554 40.5588 143.615 40.9315 143.615 41.3434C143.615 41.7586 143.554 42.1331 143.431 42.4666C143.308 42.8002 143.133 43.0844 142.905 43.3193C142.68 43.5542 142.408 43.7345 142.088 43.8605C141.771 43.9864 141.419 44.0494 141.031 44.0494C140.639 44.0494 140.284 43.9864 139.964 43.8605C139.644 43.7345 139.37 43.5542 139.142 43.3193C138.917 43.0844 138.742 42.8002 138.616 42.4666C138.494 42.1331 138.432 41.7586 138.432 41.3434C138.432 40.9315 138.494 40.5588 138.616 40.2253C138.742 39.8916 138.917 39.6092 139.142 39.3777C139.37 39.1463 139.644 38.9675 139.964 38.8415C140.284 38.7156 140.639 38.6526 141.031 38.6526ZM141.031 43.0794C141.466 43.0794 141.788 42.933 141.996 42.6403C142.207 42.3475 142.313 41.9186 142.313 41.3536C142.313 40.7885 142.207 40.358 141.996 40.0618C141.788 39.7657 141.466 39.6176 141.031 39.6176C140.588 39.6176 140.26 39.7674 140.045 40.067C139.835 40.3631 139.729 40.792 139.729 41.3536C139.729 41.9153 139.835 42.3441 140.045 42.6403C140.26 42.933 140.588 43.0794 141.031 43.0794ZM144.576 43.9728V38.7344H145.347C145.511 38.7344 145.618 38.8109 145.669 38.9641L145.751 39.3522C145.843 39.25 145.938 39.1564 146.036 39.0714C146.139 38.9863 146.246 38.9131 146.358 38.8518C146.475 38.7905 146.596 38.7429 146.726 38.7088C146.859 38.6714 147.004 38.6526 147.16 38.6526C147.49 38.6526 147.761 38.7429 147.972 38.9233C148.186 39.1003 148.346 39.3368 148.452 39.633C148.534 39.4594 148.635 39.3113 148.758 39.1888C148.881 39.0628 149.015 38.9607 149.162 38.8824C149.308 38.8042 149.463 38.7463 149.626 38.7088C149.793 38.6714 149.96 38.6526 150.126 38.6526C150.415 38.6526 150.673 38.6969 150.897 38.7854C151.122 38.8739 151.311 39.0033 151.465 39.1734C151.617 39.3436 151.733 39.5513 151.811 39.7964C151.893 40.0414 151.934 40.3223 151.934 40.6388V43.9728H150.673V40.6388C150.673 40.3052 150.6 40.0551 150.454 39.8883C150.307 39.7181 150.093 39.633 149.81 39.633C149.681 39.633 149.56 39.6551 149.447 39.6994C149.338 39.7436 149.242 39.8083 149.156 39.8934C149.075 39.9751 149.01 40.0789 148.963 40.2048C148.915 40.3307 148.891 40.4754 148.891 40.6388V43.9728H147.625V40.6388C147.625 40.2882 147.554 40.0329 147.41 39.8729C147.271 39.713 147.065 39.633 146.793 39.633C146.609 39.633 146.436 39.6789 146.276 39.7708C146.12 39.8594 145.974 39.9819 145.837 40.1384V43.9728H144.576ZM154.394 42.6147C154.536 42.7883 154.692 42.9108 154.858 42.9824C155.028 43.0538 155.213 43.0895 155.41 43.0895C155.6 43.0895 155.773 43.0538 155.925 42.9824C156.078 42.9108 156.208 42.8019 156.314 42.6555C156.423 42.5092 156.505 42.3254 156.564 42.1042C156.622 41.8794 156.651 41.6157 156.651 41.3127C156.651 41.0064 156.625 40.7477 156.574 40.5367C156.526 40.3223 156.456 40.1486 156.365 40.0159C156.273 39.8832 156.16 39.7862 156.027 39.7249C155.898 39.6636 155.75 39.633 155.584 39.633C155.321 39.633 155.098 39.6892 154.915 39.8014C154.731 39.9104 154.557 40.0653 154.394 40.2661V42.6147ZM154.327 39.4492C154.542 39.2074 154.785 39.0118 155.057 38.862C155.33 38.7123 155.65 38.6374 156.017 38.6374C156.304 38.6374 156.564 38.6969 156.798 38.8161C157.036 38.9352 157.241 39.1088 157.411 39.3368C157.585 39.5614 157.717 39.8406 157.809 40.1742C157.905 40.5044 157.953 40.8839 157.953 41.3127C157.953 41.7042 157.9 42.0667 157.795 42.4003C157.688 42.7338 157.537 43.0232 157.34 43.2683C157.145 43.5134 156.909 43.7056 156.63 43.8452C156.355 43.9814 156.045 44.0494 155.701 44.0494C155.408 44.0494 155.158 44.0052 154.95 43.9166C154.743 43.8247 154.557 43.6988 154.394 43.5388V45.6833H153.133V38.7344H153.904C154.067 38.7344 154.175 38.8109 154.225 38.9641L154.327 39.4492ZM161.255 38.6526C161.643 38.6526 161.995 38.7156 162.311 38.8415C162.631 38.9675 162.904 39.1463 163.128 39.3777C163.356 39.6092 163.532 39.8916 163.654 40.2253C163.776 40.5588 163.838 40.9315 163.838 41.3434C163.838 41.7586 163.776 42.1331 163.654 42.4666C163.532 42.8002 163.356 43.0844 163.128 43.3193C162.904 43.5542 162.631 43.7345 162.311 43.8605C161.995 43.9864 161.643 44.0494 161.255 44.0494C160.863 44.0494 160.507 43.9864 160.187 43.8605C159.867 43.7345 159.594 43.5542 159.365 43.3193C159.141 43.0844 158.965 42.8002 158.839 42.4666C158.717 42.1331 158.655 41.7586 158.655 41.3434C158.655 40.9315 158.717 40.5588 158.839 40.2253C158.965 39.8916 159.141 39.6092 159.365 39.3777C159.594 39.1463 159.867 38.9675 160.187 38.8415C160.507 38.7156 160.863 38.6526 161.255 38.6526ZM161.255 43.0794C161.69 43.0794 162.012 42.933 162.219 42.6403C162.43 42.3475 162.536 41.9186 162.536 41.3536C162.536 40.7885 162.43 40.358 162.219 40.0618C162.012 39.7657 161.69 39.6176 161.255 39.6176C160.812 39.6176 160.484 39.7674 160.269 40.067C160.058 40.3631 159.953 40.792 159.953 41.3536C159.953 41.9153 160.058 42.3441 160.269 42.6403C160.484 42.933 160.812 43.0794 161.255 43.0794ZM169.314 38.7344V43.9728H168.543C168.375 43.9728 168.27 43.8963 168.226 43.7431L168.139 43.3244C167.925 43.5423 167.688 43.7193 167.429 43.8554C167.171 43.9882 166.866 44.0545 166.515 44.0545C166.23 44.0545 165.976 44.0069 165.755 43.9115C165.537 43.8128 165.353 43.675 165.204 43.498C165.054 43.321 164.94 43.1116 164.861 42.87C164.786 42.6249 164.749 42.356 164.749 42.0633V38.7344H166.01V42.0633C166.01 42.3833 166.084 42.6317 166.23 42.8087C166.379 42.9824 166.603 43.0691 166.898 43.0691C167.116 43.0691 167.321 43.0214 167.511 42.9262C167.702 42.8274 167.882 42.693 168.053 42.5228V38.7344H169.314ZM171.744 39.3777C171.849 39.2722 171.959 39.1752 172.075 39.0866C172.195 38.9947 172.318 38.9182 172.448 38.8569C172.581 38.7923 172.722 38.7429 172.872 38.7088C173.022 38.6714 173.185 38.6526 173.362 38.6526C173.647 38.6526 173.901 38.702 174.123 38.8007C174.344 38.8961 174.527 39.0322 174.674 39.2092C174.824 39.3828 174.936 39.5921 175.011 39.8372C175.089 40.0789 175.128 40.3461 175.128 40.6388V43.9728H173.867V40.6388C173.867 40.3188 173.794 40.0721 173.647 39.8984C173.501 39.7214 173.278 39.633 172.979 39.633C172.761 39.633 172.556 39.6824 172.366 39.781C172.175 39.8797 171.995 40.0142 171.825 40.1844V43.9728H170.564V38.7344H171.335C171.498 38.7344 171.605 38.8109 171.656 38.9641L171.744 39.3777ZM179.615 40.0721C179.473 39.8984 179.316 39.7759 179.146 39.7044C178.979 39.633 178.799 39.5973 178.605 39.5973C178.415 39.5973 178.243 39.633 178.089 39.7044C177.936 39.7759 177.805 39.8848 177.696 40.0312C177.587 40.1742 177.504 40.358 177.445 40.5826C177.388 40.8039 177.359 41.066 177.359 41.3689C177.359 41.6753 177.383 41.9356 177.431 42.1501C177.482 42.3611 177.553 42.5347 177.645 42.6709C177.737 42.8036 177.849 42.9006 177.982 42.9619C178.115 43.0197 178.263 43.0487 178.426 43.0487C178.688 43.0487 178.911 42.9943 179.095 42.8853C179.279 42.7764 179.453 42.6215 179.615 42.4207V40.0721ZM180.877 36.3857V43.9728H180.106C179.939 43.9728 179.834 43.8963 179.789 43.7431L179.682 43.2376C179.471 43.4793 179.228 43.675 178.952 43.8247C178.68 43.9745 178.362 44.0494 177.997 44.0494C177.712 44.0494 177.449 43.9898 177.211 43.8707C176.973 43.7515 176.767 43.5797 176.594 43.355C176.423 43.127 176.29 42.8462 176.195 42.5126C176.103 42.179 176.057 41.7978 176.057 41.3689C176.057 40.9809 176.11 40.6201 176.215 40.2865C176.321 39.9529 176.473 39.6636 176.67 39.4185C176.867 39.1734 177.104 38.9828 177.379 38.8467C177.655 38.7072 177.965 38.6374 178.309 38.6374C178.602 38.6374 178.852 38.6833 179.059 38.7752C179.267 38.8671 179.453 38.9914 179.615 39.1479V36.3857H180.877Z" fill="#92C24A"/>
</svg>
