<svg width="65" height="65" viewBox="0 0 65 65" fill="none" xmlns="http://www.w3.org/2000/svg">
<g clip-path="url(#clip0_213_4627)">
<path d="M27.4219 36.5625H10.1562C9.61753 36.5625 9.10087 36.3485 8.71994 35.9676C8.33901 35.5866 8.125 35.07 8.125 34.5312V18.2812C8.125 17.7425 8.33901 17.2259 8.71994 16.8449C9.10087 16.464 9.61753 16.25 10.1562 16.25H25.3906C25.9293 16.25 26.446 16.464 26.8269 16.8449C27.2079 17.2259 27.4219 17.7425 27.4219 18.2812V40.625C27.4219 43.3186 26.3518 45.9019 24.4472 47.8066C22.5425 49.7112 19.9592 50.7812 17.2656 50.7812" stroke="#438BCF" stroke-width="4.0625" stroke-linecap="round" stroke-linejoin="round"/>
<path d="M56.875 36.5625H39.6094C39.0707 36.5625 38.554 36.3485 38.1731 35.9676C37.7921 35.5866 37.5781 35.07 37.5781 34.5312V18.2812C37.5781 17.7425 37.7921 17.2259 38.1731 16.8449C38.554 16.464 39.0707 16.25 39.6094 16.25H54.8438C55.3825 16.25 55.8991 16.464 56.2801 16.8449C56.661 17.2259 56.875 17.7425 56.875 18.2812V40.625C56.875 43.3186 55.805 45.9019 53.9003 47.8066C51.9956 49.7112 49.4124 50.7812 46.7188 50.7812" stroke="#438BCF" stroke-width="4.0625" stroke-linecap="round" stroke-linejoin="round"/>
</g>
<defs>
<clipPath id="clip0_213_4627">
<rect width="65" height="65" fill="white"/>
</clipPath>
</defs>
</svg>
